<?xml version="1.0" encoding="utf-8" standalone="no"?>
<!DOCTYPE svg PUBLIC "-//W3C//DTD SVG 1.1//EN"
  "http://www.w3.org/Graphics/SVG/1.1/DTD/svg11.dtd">
<svg xmlns:xlink="http://www.w3.org/1999/xlink" width="432pt" height="252pt" viewBox="0 0 432 252" xmlns="http://www.w3.org/2000/svg" version="1.1">
 <metadata>
  <rdf:RDF xmlns:dc="http://purl.org/dc/elements/1.1/" xmlns:cc="http://creativecommons.org/ns#" xmlns:rdf="http://www.w3.org/1999/02/22-rdf-syntax-ns#">
   <cc:Work>
    <dc:type rdf:resource="http://purl.org/dc/dcmitype/StillImage"/>
    <dc:date>2024-07-17T20:14:08.167718</dc:date>
    <dc:format>image/svg+xml</dc:format>
    <dc:creator>
     <cc:Agent>
      <dc:title>Matplotlib v3.8.2, https://matplotlib.org/</dc:title>
     </cc:Agent>
    </dc:creator>
   </cc:Work>
  </rdf:RDF>
 </metadata>
 <defs>
  <style type="text/css">*{stroke-linejoin: round; stroke-linecap: butt}</style>
 </defs>
 <g id="figure_1">
  <g id="patch_1">
   <path d="M 0 252 
L 432 252 
L 432 0 
L 0 0 
z
" style="fill: #ffffff"/>
  </g>
  <g id="axes_1">
   <g id="patch_2">
    <path d="M 54 201.6 
L 388.8 201.6 
L 388.8 30.24 
L 54 30.24 
z
" style="fill: #ffffff"/>
   </g>
   <g id="matplotlib.axis_1">
    <g id="xtick_1">
     <g id="line2d_1">
      <path d="M 96.462154 201.6 
L 96.462154 30.24 
" clip-path="url(#p5007f0d9a1)" style="fill: none; stroke: #b0b0b0; stroke-opacity: 0.3; stroke-width: 0.8; stroke-linecap: square"/>
     </g>
     <g id="line2d_2">
      <defs>
       <path id="mcf1cfa9d1d" d="M 0 0 
L 0 3.5 
" style="stroke: #000000; stroke-width: 0.8"/>
      </defs>
      <g>
       <use xlink:href="#mcf1cfa9d1d" x="96.462154" y="201.6" style="stroke: #000000; stroke-width: 0.8"/>
      </g>
     </g>
     <g id="text_1">
      <!-- 2020 -->
      <g transform="translate(68.765925 231.766528) rotate(-30) scale(0.12 -0.12)">
       <defs>
        <path id="DejaVuSans-32" d="M 1228 531 
L 3431 531 
L 3431 0 
L 469 0 
L 469 531 
Q 828 903 1448 1529 
Q 2069 2156 2228 2338 
Q 2531 2678 2651 2914 
Q 2772 3150 2772 3378 
Q 2772 3750 2511 3984 
Q 2250 4219 1831 4219 
Q 1534 4219 1204 4116 
Q 875 4013 500 3803 
L 500 4441 
Q 881 4594 1212 4672 
Q 1544 4750 1819 4750 
Q 2544 4750 2975 4387 
Q 3406 4025 3406 3419 
Q 3406 3131 3298 2873 
Q 3191 2616 2906 2266 
Q 2828 2175 2409 1742 
Q 1991 1309 1228 531 
z
" transform="scale(0.015625)"/>
        <path id="DejaVuSans-30" d="M 2034 4250 
Q 1547 4250 1301 3770 
Q 1056 3291 1056 2328 
Q 1056 1369 1301 889 
Q 1547 409 2034 409 
Q 2525 409 2770 889 
Q 3016 1369 3016 2328 
Q 3016 3291 2770 3770 
Q 2525 4250 2034 4250 
z
M 2034 4750 
Q 2819 4750 3233 4129 
Q 3647 3509 3647 2328 
Q 3647 1150 3233 529 
Q 2819 -91 2034 -91 
Q 1250 -91 836 529 
Q 422 1150 422 2328 
Q 422 3509 836 4129 
Q 1250 4750 2034 4750 
z
" transform="scale(0.015625)"/>
       </defs>
       <use xlink:href="#DejaVuSans-32"/>
       <use xlink:href="#DejaVuSans-30" x="63.623047"/>
       <use xlink:href="#DejaVuSans-32" x="127.246094"/>
       <use xlink:href="#DejaVuSans-30" x="190.869141"/>
      </g>
     </g>
    </g>
    <g id="xtick_2">
     <g id="line2d_3">
      <path d="M 157.635735 201.6 
L 157.635735 30.24 
" clip-path="url(#p5007f0d9a1)" style="fill: none; stroke: #b0b0b0; stroke-opacity: 0.3; stroke-width: 0.8; stroke-linecap: square"/>
     </g>
     <g id="line2d_4">
      <g>
       <use xlink:href="#mcf1cfa9d1d" x="157.635735" y="201.6" style="stroke: #000000; stroke-width: 0.8"/>
      </g>
     </g>
     <g id="text_2">
      <!-- 2021 -->
      <g transform="translate(129.939506 231.766528) rotate(-30) scale(0.12 -0.12)">
       <defs>
        <path id="DejaVuSans-31" d="M 794 531 
L 1825 531 
L 1825 4091 
L 703 3866 
L 703 4441 
L 1819 4666 
L 2450 4666 
L 2450 531 
L 3481 531 
L 3481 0 
L 794 0 
L 794 531 
z
" transform="scale(0.015625)"/>
       </defs>
       <use xlink:href="#DejaVuSans-32"/>
       <use xlink:href="#DejaVuSans-30" x="63.623047"/>
       <use xlink:href="#DejaVuSans-32" x="127.246094"/>
       <use xlink:href="#DejaVuSans-31" x="190.869141"/>
      </g>
     </g>
    </g>
    <g id="xtick_3">
     <g id="line2d_5">
      <path d="M 218.642175 201.6 
L 218.642175 30.24 
" clip-path="url(#p5007f0d9a1)" style="fill: none; stroke: #b0b0b0; stroke-opacity: 0.3; stroke-width: 0.8; stroke-linecap: square"/>
     </g>
     <g id="line2d_6">
      <g>
       <use xlink:href="#mcf1cfa9d1d" x="218.642175" y="201.6" style="stroke: #000000; stroke-width: 0.8"/>
      </g>
     </g>
     <g id="text_3">
      <!-- 2022 -->
      <g transform="translate(190.945946 231.766528) rotate(-30) scale(0.12 -0.12)">
       <use xlink:href="#DejaVuSans-32"/>
       <use xlink:href="#DejaVuSans-30" x="63.623047"/>
       <use xlink:href="#DejaVuSans-32" x="127.246094"/>
       <use xlink:href="#DejaVuSans-32" x="190.869141"/>
      </g>
     </g>
    </g>
    <g id="xtick_4">
     <g id="line2d_7">
      <path d="M 279.648615 201.6 
L 279.648615 30.24 
" clip-path="url(#p5007f0d9a1)" style="fill: none; stroke: #b0b0b0; stroke-opacity: 0.3; stroke-width: 0.8; stroke-linecap: square"/>
     </g>
     <g id="line2d_8">
      <g>
       <use xlink:href="#mcf1cfa9d1d" x="279.648615" y="201.6" style="stroke: #000000; stroke-width: 0.8"/>
      </g>
     </g>
     <g id="text_4">
      <!-- 2023 -->
      <g transform="translate(251.952386 231.766528) rotate(-30) scale(0.12 -0.12)">
       <defs>
        <path id="DejaVuSans-33" d="M 2597 2516 
Q 3050 2419 3304 2112 
Q 3559 1806 3559 1356 
Q 3559 666 3084 287 
Q 2609 -91 1734 -91 
Q 1441 -91 1130 -33 
Q 819 25 488 141 
L 488 750 
Q 750 597 1062 519 
Q 1375 441 1716 441 
Q 2309 441 2620 675 
Q 2931 909 2931 1356 
Q 2931 1769 2642 2001 
Q 2353 2234 1838 2234 
L 1294 2234 
L 1294 2753 
L 1863 2753 
Q 2328 2753 2575 2939 
Q 2822 3125 2822 3475 
Q 2822 3834 2567 4026 
Q 2313 4219 1838 4219 
Q 1578 4219 1281 4162 
Q 984 4106 628 3988 
L 628 4550 
Q 988 4650 1302 4700 
Q 1616 4750 1894 4750 
Q 2613 4750 3031 4423 
Q 3450 4097 3450 3541 
Q 3450 3153 3228 2886 
Q 3006 2619 2597 2516 
z
" transform="scale(0.015625)"/>
       </defs>
       <use xlink:href="#DejaVuSans-32"/>
       <use xlink:href="#DejaVuSans-30" x="63.623047"/>
       <use xlink:href="#DejaVuSans-32" x="127.246094"/>
       <use xlink:href="#DejaVuSans-33" x="190.869141"/>
      </g>
     </g>
    </g>
    <g id="xtick_5">
     <g id="line2d_9">
      <path d="M 340.655055 201.6 
L 340.655055 30.24 
" clip-path="url(#p5007f0d9a1)" style="fill: none; stroke: #b0b0b0; stroke-opacity: 0.3; stroke-width: 0.8; stroke-linecap: square"/>
     </g>
     <g id="line2d_10">
      <g>
       <use xlink:href="#mcf1cfa9d1d" x="340.655055" y="201.6" style="stroke: #000000; stroke-width: 0.8"/>
      </g>
     </g>
     <g id="text_5">
      <!-- 2024 -->
      <g transform="translate(312.958826 231.766528) rotate(-30) scale(0.12 -0.12)">
       <defs>
        <path id="DejaVuSans-34" d="M 2419 4116 
L 825 1625 
L 2419 1625 
L 2419 4116 
z
M 2253 4666 
L 3047 4666 
L 3047 1625 
L 3713 1625 
L 3713 1100 
L 3047 1100 
L 3047 0 
L 2419 0 
L 2419 1100 
L 313 1100 
L 313 1709 
L 2253 4666 
z
" transform="scale(0.015625)"/>
       </defs>
       <use xlink:href="#DejaVuSans-32"/>
       <use xlink:href="#DejaVuSans-30" x="63.623047"/>
       <use xlink:href="#DejaVuSans-32" x="127.246094"/>
       <use xlink:href="#DejaVuSans-34" x="190.869141"/>
      </g>
     </g>
    </g>
    <g id="text_6">
     <!-- Date -->
     <g transform="translate(207.059063 247.045928) scale(0.12 -0.12)">
      <defs>
       <path id="DejaVuSans-44" d="M 1259 4147 
L 1259 519 
L 2022 519 
Q 2988 519 3436 956 
Q 3884 1394 3884 2338 
Q 3884 3275 3436 3711 
Q 2988 4147 2022 4147 
L 1259 4147 
z
M 628 4666 
L 1925 4666 
Q 3281 4666 3915 4102 
Q 4550 3538 4550 2338 
Q 4550 1131 3912 565 
Q 3275 0 1925 0 
L 628 0 
L 628 4666 
z
" transform="scale(0.015625)"/>
       <path id="DejaVuSans-61" d="M 2194 1759 
Q 1497 1759 1228 1600 
Q 959 1441 959 1056 
Q 959 750 1161 570 
Q 1363 391 1709 391 
Q 2188 391 2477 730 
Q 2766 1069 2766 1631 
L 2766 1759 
L 2194 1759 
z
M 3341 1997 
L 3341 0 
L 2766 0 
L 2766 531 
Q 2569 213 2275 61 
Q 1981 -91 1556 -91 
Q 1019 -91 701 211 
Q 384 513 384 1019 
Q 384 1609 779 1909 
Q 1175 2209 1959 2209 
L 2766 2209 
L 2766 2266 
Q 2766 2663 2505 2880 
Q 2244 3097 1772 3097 
Q 1472 3097 1187 3025 
Q 903 2953 641 2809 
L 641 3341 
Q 956 3463 1253 3523 
Q 1550 3584 1831 3584 
Q 2591 3584 2966 3190 
Q 3341 2797 3341 1997 
z
" transform="scale(0.015625)"/>
       <path id="DejaVuSans-74" d="M 1172 4494 
L 1172 3500 
L 2356 3500 
L 2356 3053 
L 1172 3053 
L 1172 1153 
Q 1172 725 1289 603 
Q 1406 481 1766 481 
L 2356 481 
L 2356 0 
L 1766 0 
Q 1100 0 847 248 
Q 594 497 594 1153 
L 594 3053 
L 172 3053 
L 172 3500 
L 594 3500 
L 594 4494 
L 1172 4494 
z
" transform="scale(0.015625)"/>
       <path id="DejaVuSans-65" d="M 3597 1894 
L 3597 1613 
L 953 1613 
Q 991 1019 1311 708 
Q 1631 397 2203 397 
Q 2534 397 2845 478 
Q 3156 559 3463 722 
L 3463 178 
Q 3153 47 2828 -22 
Q 2503 -91 2169 -91 
Q 1331 -91 842 396 
Q 353 884 353 1716 
Q 353 2575 817 3079 
Q 1281 3584 2069 3584 
Q 2775 3584 3186 3129 
Q 3597 2675 3597 1894 
z
M 3022 2063 
Q 3016 2534 2758 2815 
Q 2500 3097 2075 3097 
Q 1594 3097 1305 2825 
Q 1016 2553 972 2059 
L 3022 2063 
z
" transform="scale(0.015625)"/>
      </defs>
      <use xlink:href="#DejaVuSans-44"/>
      <use xlink:href="#DejaVuSans-61" x="77.001953"/>
      <use xlink:href="#DejaVuSans-74" x="138.28125"/>
      <use xlink:href="#DejaVuSans-65" x="177.490234"/>
     </g>
    </g>
   </g>
   <g id="matplotlib.axis_2">
    <g id="ytick_1">
     <g id="line2d_11">
      <path d="M 54 178.232727 
L 388.8 178.232727 
" clip-path="url(#p5007f0d9a1)" style="fill: none; stroke: #b0b0b0; stroke-opacity: 0.3; stroke-width: 0.8; stroke-linecap: square"/>
     </g>
     <g id="line2d_12">
      <defs>
       <path id="me00a512d44" d="M 0 0 
L -3.5 0 
" style="stroke: #000000; stroke-width: 0.8"/>
      </defs>
      <g>
       <use xlink:href="#me00a512d44" x="54" y="178.232727" style="stroke: #000000; stroke-width: 0.8"/>
      </g>
     </g>
     <g id="text_7">
      <!-- −0.4 -->
      <g transform="translate(17.860625 182.79179) scale(0.12 -0.12)">
       <defs>
        <path id="DejaVuSans-2212" d="M 678 2272 
L 4684 2272 
L 4684 1741 
L 678 1741 
L 678 2272 
z
" transform="scale(0.015625)"/>
        <path id="DejaVuSans-2e" d="M 684 794 
L 1344 794 
L 1344 0 
L 684 0 
L 684 794 
z
" transform="scale(0.015625)"/>
       </defs>
       <use xlink:href="#DejaVuSans-2212"/>
       <use xlink:href="#DejaVuSans-30" x="83.789062"/>
       <use xlink:href="#DejaVuSans-2e" x="147.412109"/>
       <use xlink:href="#DejaVuSans-34" x="179.199219"/>
      </g>
     </g>
    </g>
    <g id="ytick_2">
     <g id="line2d_13">
      <path d="M 54 147.076364 
L 388.8 147.076364 
" clip-path="url(#p5007f0d9a1)" style="fill: none; stroke: #b0b0b0; stroke-opacity: 0.3; stroke-width: 0.8; stroke-linecap: square"/>
     </g>
     <g id="line2d_14">
      <g>
       <use xlink:href="#me00a512d44" x="54" y="147.076364" style="stroke: #000000; stroke-width: 0.8"/>
      </g>
     </g>
     <g id="text_8">
      <!-- −0.2 -->
      <g transform="translate(17.860625 151.635426) scale(0.12 -0.12)">
       <use xlink:href="#DejaVuSans-2212"/>
       <use xlink:href="#DejaVuSans-30" x="83.789062"/>
       <use xlink:href="#DejaVuSans-2e" x="147.412109"/>
       <use xlink:href="#DejaVuSans-32" x="179.199219"/>
      </g>
     </g>
    </g>
    <g id="ytick_3">
     <g id="line2d_15">
      <path d="M 54 115.92 
L 388.8 115.92 
" clip-path="url(#p5007f0d9a1)" style="fill: none; stroke: #b0b0b0; stroke-opacity: 0.3; stroke-width: 0.8; stroke-linecap: square"/>
     </g>
     <g id="line2d_16">
      <g>
       <use xlink:href="#me00a512d44" x="54" y="115.92" style="stroke: #000000; stroke-width: 0.8"/>
      </g>
     </g>
     <g id="text_9">
      <!-- 0.0 -->
      <g transform="translate(27.91625 120.479063) scale(0.12 -0.12)">
       <use xlink:href="#DejaVuSans-30"/>
       <use xlink:href="#DejaVuSans-2e" x="63.623047"/>
       <use xlink:href="#DejaVuSans-30" x="95.410156"/>
      </g>
     </g>
    </g>
    <g id="ytick_4">
     <g id="line2d_17">
      <path d="M 54 84.763636 
L 388.8 84.763636 
" clip-path="url(#p5007f0d9a1)" style="fill: none; stroke: #b0b0b0; stroke-opacity: 0.3; stroke-width: 0.8; stroke-linecap: square"/>
     </g>
     <g id="line2d_18">
      <g>
       <use xlink:href="#me00a512d44" x="54" y="84.763636" style="stroke: #000000; stroke-width: 0.8"/>
      </g>
     </g>
     <g id="text_10">
      <!-- 0.2 -->
      <g transform="translate(27.91625 89.322699) scale(0.12 -0.12)">
       <use xlink:href="#DejaVuSans-30"/>
       <use xlink:href="#DejaVuSans-2e" x="63.623047"/>
       <use xlink:href="#DejaVuSans-32" x="95.410156"/>
      </g>
     </g>
    </g>
    <g id="ytick_5">
     <g id="line2d_19">
      <path d="M 54 53.607273 
L 388.8 53.607273 
" clip-path="url(#p5007f0d9a1)" style="fill: none; stroke: #b0b0b0; stroke-opacity: 0.3; stroke-width: 0.8; stroke-linecap: square"/>
     </g>
     <g id="line2d_20">
      <g>
       <use xlink:href="#me00a512d44" x="54" y="53.607273" style="stroke: #000000; stroke-width: 0.8"/>
      </g>
     </g>
     <g id="text_11">
      <!-- 0.4 -->
      <g transform="translate(27.91625 58.166335) scale(0.12 -0.12)">
       <use xlink:href="#DejaVuSans-30"/>
       <use xlink:href="#DejaVuSans-2e" x="63.623047"/>
       <use xlink:href="#DejaVuSans-34" x="95.410156"/>
      </g>
     </g>
    </g>
   </g>
   <g id="line2d_21">
    <path d="M 69.218182 115.818456 
L 69.385323 114.903562 
L 69.552464 116.37124 
L 69.719605 116.656865 
L 69.886746 115.624576 
L 70.388168 115.754436 
L 70.555309 116.053512 
L 70.72245 117.831616 
L 70.889591 117.548606 
L 71.056732 116.496694 
L 71.558155 120.432995 
L 71.725296 114.031434 
L 71.892437 116.054359 
L 72.059578 113.696999 
L 72.226719 116.455943 
L 72.728141 118.17233 
L 72.895282 113.679905 
L 73.062423 120.665138 
L 73.229564 115.308781 
L 73.396705 114.052644 
L 73.898128 114.416826 
L 74.065269 116.953249 
L 74.23241 114.478194 
L 74.399551 115.625651 
L 74.566692 119.618924 
L 75.068114 114.279267 
L 75.235255 116.647396 
L 75.402396 114.359638 
L 75.569537 113.968546 
L 75.736678 115.677542 
L 76.405242 117.603061 
L 76.572383 114.503721 
L 76.739524 113.717164 
L 76.906665 115.516035 
L 77.408087 115.698804 
L 77.575228 115.49089 
L 77.742369 114.602339 
L 77.90951 115.659321 
L 78.076651 115.707553 
L 78.578074 116.736696 
L 78.745215 115.724502 
L 78.912356 115.711531 
L 79.246638 116.838312 
L 79.748061 115.833709 
L 79.915201 116.742089 
L 80.082342 114.973144 
L 80.249483 116.379709 
L 80.416624 116.330554 
L 80.918047 115.359028 
L 81.252329 118.818488 
L 81.586611 113.704181 
L 82.255174 117.767282 
L 82.422315 114.836543 
L 82.589456 115.02916 
L 82.756597 114.039095 
L 83.25802 116.089802 
L 83.425161 114.539168 
L 83.592302 116.051544 
L 83.759443 115.782114 
L 83.926584 117.393783 
L 84.428007 115.585744 
L 84.595148 116.1496 
L 84.762288 115.653367 
L 84.929429 116.084989 
L 85.09657 115.033563 
L 85.597993 115.153401 
L 85.765134 116.030982 
L 85.932275 115.256682 
L 86.099416 116.724847 
L 86.266557 114.185541 
L 87.102261 115.920397 
L 87.269402 114.887369 
L 87.436543 115.883749 
L 88.105107 115.92 
L 88.272248 115.40188 
L 88.439389 115.929139 
L 88.60653 114.669964 
L 89.107953 115.745722 
L 89.275094 116.487869 
L 89.442235 116.549785 
L 89.609375 116.226848 
L 89.776516 115.306608 
L 90.277939 114.853442 
L 90.44508 115.613559 
L 90.612221 115.685566 
L 90.946503 116.542762 
L 91.615067 117.491273 
L 91.782208 115.08753 
L 91.949349 115.762189 
L 92.116489 114.021708 
L 92.617912 116.506426 
L 92.952194 115.754729 
L 93.119335 114.687924 
L 93.286476 115.90156 
L 93.787899 115.36349 
L 94.122181 116.073648 
L 94.289322 115.160489 
L 94.456462 115.491087 
L 94.957885 115.392024 
L 95.125026 116.116858 
L 95.459308 115.341243 
L 96.127872 116.915863 
L 96.295013 115.502387 
L 96.629295 114.116675 
L 96.796436 117.182279 
L 97.297858 115.547341 
L 97.464999 116.569648 
L 97.63214 115.040311 
L 97.799281 114.772112 
L 97.966422 116.63621 
L 98.467845 115.469902 
L 98.634986 115.744209 
L 98.802127 115.432571 
L 98.969268 114.484972 
L 99.136409 115.651693 
L 99.804972 116.727145 
L 99.972113 115.97213 
L 100.139254 116.059736 
L 100.306395 116.830113 
L 100.807818 118.359279 
L 100.974959 114.898862 
L 101.1421 115.857086 
L 101.309241 115.242375 
L 101.476382 119.177177 
L 102.312086 113.306911 
L 102.646368 117.39013 
L 103.147791 114.986942 
L 103.314932 115.922554 
L 103.482073 114.456277 
L 103.649214 116.595338 
L 103.816355 116.05358 
L 104.484918 116.799059 
L 104.652059 115.302675 
L 105.487764 121.46304 
L 105.654905 120.819744 
L 105.822046 116.63197 
L 105.989187 122.802231 
L 106.156328 118.080069 
L 106.65775 107.986882 
L 106.824891 120.504841 
L 106.992032 108.866742 
L 107.159173 121.49542 
L 107.326314 117.449712 
L 107.827737 128.04874 
L 107.994878 108.29688 
L 108.32916 131.480178 
L 108.496301 101.334252 
L 108.997724 136.057209 
L 109.164864 107.826622 
L 109.332005 125.737959 
L 109.499146 114.446099 
L 109.666287 123.002201 
L 110.16771 120.648951 
L 110.334851 98.215336 
L 110.501992 112.190851 
L 110.669133 105.988285 
L 110.836274 122.243166 
L 111.337697 110.947056 
L 111.671978 122.840466 
L 111.839119 112.424571 
L 112.00626 118.545604 
L 112.507683 103.87733 
L 112.674824 116.099479 
L 112.841965 110.558236 
L 113.009106 114.020057 
L 113.67767 118.078148 
L 113.844811 112.197144 
L 114.011951 118.817181 
L 114.346233 111.255284 
L 114.847656 119.724503 
L 115.014797 120.079989 
L 115.181938 112.827628 
L 115.349079 115.658282 
L 115.51622 114.197509 
L 116.017643 113.570948 
L 116.184784 116.128042 
L 116.351925 112.479382 
L 116.686206 119.900205 
L 117.35477 115.045448 
L 117.521911 117.34488 
L 117.856193 112.948479 
L 118.357616 116.619988 
L 118.524757 118.86051 
L 118.691898 119.30777 
L 118.859038 113.39129 
L 119.026179 115.523842 
L 119.527602 109.921997 
L 119.694743 118.393206 
L 119.861884 113.545065 
L 120.029025 116.565163 
L 120.196166 115.977032 
L 120.86473 112.545545 
L 121.031871 112.472435 
L 121.199012 116.820181 
L 121.366152 116.027511 
L 121.867575 115.355928 
L 122.201857 112.729404 
L 122.368998 115.849254 
L 122.536139 111.00527 
L 123.037562 113.268415 
L 123.204703 117.615764 
L 123.371844 117.53258 
L 123.538985 126.666121 
L 123.706126 112.96055 
L 124.207548 114.961054 
L 124.374689 112.734483 
L 124.54183 116.929531 
L 124.708971 116.155644 
L 124.876112 117.16625 
L 125.377535 114.995719 
L 125.544676 115.135014 
L 125.711817 120.149607 
L 125.878958 114.085461 
L 126.046099 120.337396 
L 126.547521 112.306552 
L 126.881803 116.39019 
L 127.048944 115.360734 
L 127.717508 113.147427 
L 127.884649 118.271807 
L 128.05179 114.854385 
L 128.218931 118.078523 
L 128.386072 113.682546 
L 128.887494 115.85727 
L 129.054635 112.594905 
L 129.388917 116.704936 
L 129.556058 116.285699 
L 130.057481 115.867901 
L 130.224622 114.988551 
L 130.391763 114.959785 
L 130.558904 117.959205 
L 130.726045 116.986355 
L 131.227467 115.243903 
L 131.394608 117.124133 
L 131.561749 114.973414 
L 131.72889 117.246104 
L 131.896031 115.241132 
L 132.397454 114.528426 
L 132.564595 114.961451 
L 132.731736 113.753853 
L 133.066018 115.6555 
L 133.56744 113.887314 
L 133.734581 116.505931 
L 133.901722 114.288694 
L 134.068863 116.366128 
L 134.236004 115.728461 
L 134.737427 116.400268 
L 134.904568 116.293945 
L 135.071709 116.397753 
L 135.405991 114.849621 
L 135.907414 113.810974 
L 136.074554 116.250291 
L 136.408836 115.038323 
L 136.575977 115.03645 
L 137.0774 117.136837 
L 137.411682 113.446473 
L 137.578823 120.244183 
L 137.745964 116.797778 
L 138.414527 119.421882 
L 138.581668 113.429951 
L 138.748809 118.183036 
L 138.91595 115.178505 
L 139.417373 114.074818 
L 139.584514 115.907368 
L 139.751655 115.715337 
L 140.085937 117.285423 
L 140.58736 118.791024 
L 140.754501 115.113883 
L 140.921641 118.917387 
L 141.255923 113.837211 
L 141.757346 113.568995 
L 141.924487 116.662085 
L 142.091628 114.052842 
L 142.42591 116.670939 
L 142.927333 113.298595 
L 143.094474 118.000217 
L 143.261614 112.943219 
L 143.428755 115.248239 
L 144.097319 114.554268 
L 144.26446 116.771958 
L 144.431601 116.82064 
L 144.765883 115.307079 
L 145.267306 118.15759 
L 145.434447 115.293622 
L 145.601588 116.459124 
L 145.768728 115.076008 
L 146.437292 119.494581 
L 146.604433 117.170233 
L 146.771574 121.270421 
L 146.938715 115.102555 
L 147.105856 116.840406 
L 147.77442 112.70902 
L 147.941561 113.835939 
L 148.108702 112.885104 
L 148.275842 116.286433 
L 148.777265 111.329773 
L 149.111547 116.043319 
L 149.278688 117.602261 
L 149.445829 113.779137 
L 149.947252 113.433023 
L 150.114393 116.789089 
L 150.281534 117.724156 
L 150.448675 115.682875 
L 150.615815 117.081103 
L 151.284379 113.524832 
L 151.45152 116.820952 
L 151.785802 115.722355 
L 152.287225 117.335248 
L 152.454366 114.946161 
L 152.621507 115.607276 
L 152.788648 115.473096 
L 152.955789 114.627047 
L 153.457211 116.685396 
L 153.624352 115.380744 
L 153.791493 116.462456 
L 153.958634 116.280328 
L 154.125775 115.675365 
L 154.627198 116.878239 
L 154.794339 114.157973 
L 154.96148 116.150944 
L 155.128621 115.151127 
L 155.295762 116.559097 
L 155.797184 115.726944 
L 155.964325 116.955952 
L 156.131466 115.326674 
L 156.298607 115.557869 
L 156.967171 114.867179 
L 157.134312 116.269951 
L 157.468594 114.91122 
L 158.137157 117.867319 
L 158.471439 113.675917 
L 158.805721 115.634745 
L 159.307144 116.367238 
L 159.474285 115.618571 
L 159.975708 116.811014 
L 160.644271 115.332246 
L 160.811412 114.621286 
L 161.145694 116.814586 
L 161.814258 116.035528 
L 161.981399 119.111819 
L 162.14854 114.37679 
L 162.315681 119.079784 
L 162.984244 113.467816 
L 163.151385 115.736641 
L 163.318526 114.235299 
L 163.485667 115.456605 
L 163.98709 114.73209 
L 164.154231 115.969287 
L 164.321372 115.612317 
L 164.488513 115.955182 
L 164.655654 115.782709 
L 165.491358 115.473896 
L 165.658499 116.509756 
L 165.82564 115.915152 
L 166.494204 115.842607 
L 166.661345 113.823091 
L 166.828486 118.648704 
L 166.995627 118.249831 
L 167.49705 112.882462 
L 167.664191 116.631294 
L 167.831331 116.522602 
L 167.998472 117.643459 
L 168.165613 113.037717 
L 168.667036 114.405821 
L 168.834177 115.771578 
L 169.001318 113.647925 
L 169.168459 115.010449 
L 169.3356 114.514704 
L 169.837023 115.089161 
L 170.004164 116.522782 
L 170.171304 115.021071 
L 170.338445 116.642255 
L 170.505586 117.030828 
L 171.007009 115.42713 
L 171.17415 117.386142 
L 171.675573 113.754684 
L 172.344137 116.410338 
L 172.511278 116.322375 
L 172.678418 115.109198 
L 173.346982 114.162726 
L 173.514123 116.370472 
L 174.015546 114.538897 
L 174.516969 116.174408 
L 174.68411 116.234514 
L 174.851251 115.671969 
L 175.018391 114.510935 
L 175.185532 115.166264 
L 175.854096 117.091782 
L 176.021237 114.464449 
L 176.188378 117.386719 
L 176.355519 114.871547 
L 176.856942 116.203344 
L 177.024083 115.904597 
L 177.191224 116.674273 
L 177.358365 114.814616 
L 177.525505 116.768467 
L 178.026928 114.823751 
L 178.194069 115.829581 
L 178.36121 115.475881 
L 178.528351 114.471922 
L 179.196915 116.076509 
L 179.531197 119.017984 
L 179.698338 113.908053 
L 179.865479 114.268472 
L 180.534042 117.132254 
L 180.701183 116.672916 
L 180.868324 115.055471 
L 181.035465 115.354674 
L 181.536888 115.072322 
L 181.704029 116.289231 
L 182.038311 115.277366 
L 182.205452 115.627056 
L 183.041156 115.807045 
L 183.208297 116.025084 
L 183.375438 115.111965 
L 183.876861 116.485418 
L 184.044002 116.056842 
L 184.211143 116.607425 
L 184.378284 115.833623 
L 184.545425 115.859615 
L 185.213988 116.347663 
L 185.381129 117.126583 
L 185.54827 116.882237 
L 185.715411 118.37656 
L 186.216834 113.173633 
L 186.383975 115.6045 
L 186.551116 116.247391 
L 186.718257 114.43651 
L 186.885398 114.840268 
L 187.38682 116.601192 
L 187.721102 114.96502 
L 187.888243 115.328433 
L 188.055384 115.232615 
L 188.723948 116.855864 
L 188.891089 115.449555 
L 189.05823 117.087225 
L 189.225371 113.891465 
L 189.726793 115.357008 
L 189.893934 116.398035 
L 190.061075 193.810909 
L 190.228216 115.680128 
L 190.395357 117.252072 
L 190.89678 119.179585 
L 191.063921 113.397413 
L 191.398203 115.806514 
L 191.565344 114.854415 
L 192.066767 115.552289 
L 192.233907 116.300276 
L 192.401048 116.486944 
L 192.568189 115.234989 
L 192.73533 116.581854 
L 193.236753 116.353918 
L 193.403894 114.675826 
L 193.571035 117.356117 
L 193.738176 114.704019 
L 193.905317 115.279088 
L 194.40674 116.391923 
L 194.57388 115.197406 
L 194.741021 114.946824 
L 194.908162 115.854676 
L 195.075303 115.851851 
L 195.576726 115.437417 
L 195.743867 117.153647 
L 195.911008 117.606334 
L 196.24529 114.911221 
L 196.746713 114.963532 
L 196.913854 115.785317 
L 197.080994 115.747155 
L 197.248135 116.766459 
L 197.415276 114.846391 
L 197.916699 116.165871 
L 198.250981 116.132345 
L 198.418122 115.340812 
L 198.585263 116.248451 
L 199.253827 117.105197 
L 199.420968 116.225927 
L 199.755249 117.133315 
L 200.256672 114.741049 
L 200.423813 117.224793 
L 200.590954 114.853058 
L 200.925236 116.666111 
L 201.426659 118.687507 
L 201.760941 114.365481 
L 201.928081 113.616808 
L 202.095222 115.77132 
L 202.596645 115.600495 
L 202.763786 118.463753 
L 202.930927 115.507927 
L 203.098068 118.396875 
L 203.265209 113.698893 
L 203.766632 117.388303 
L 203.933773 114.491741 
L 204.100914 115.455487 
L 204.268055 114.390335 
L 204.435195 115.958951 
L 204.936618 117.041705 
L 205.2709 115.922402 
L 205.438041 113.496799 
L 206.106605 116.079557 
L 206.273746 115.042091 
L 206.440887 115.252056 
L 206.608028 115.947386 
L 206.775168 115.596474 
L 207.276591 115.63998 
L 207.443732 115.851439 
L 207.610873 117.079709 
L 207.778014 114.867473 
L 207.945155 115.531619 
L 208.446578 115.50997 
L 208.613719 115.317977 
L 208.78086 115.466516 
L 208.948001 116.063686 
L 209.115142 115.04148 
L 209.616564 115.472869 
L 209.950846 116.949567 
L 210.117987 116.60526 
L 210.285128 115.143373 
L 210.786551 115.975494 
L 210.953692 115.68357 
L 211.120833 116.830194 
L 211.287974 116.180568 
L 211.455115 117.088094 
L 211.956537 115.844433 
L 212.123678 115.06913 
L 212.290819 115.960975 
L 212.625101 119.857752 
L 213.126524 114.863878 
L 213.293665 118.81174 
L 213.460806 118.005661 
L 213.627947 113.091415 
L 213.795088 116.188527 
L 214.29651 113.005517 
L 214.463651 113.742497 
L 214.630792 115.76596 
L 214.797933 115.920261 
L 214.965074 114.977589 
L 215.466497 117.306017 
L 215.633638 116.386546 
L 215.800779 114.240305 
L 216.135061 118.229541 
L 216.636483 117.828562 
L 216.803624 113.420242 
L 216.970765 114.773605 
L 217.137906 115.063097 
L 217.80647 114.395485 
L 217.973611 115.508772 
L 218.140752 115.533009 
L 218.307893 116.306587 
L 218.475034 116.175855 
L 218.976456 114.862143 
L 219.143597 115.00626 
L 219.310738 117.581717 
L 219.64502 115.940678 
L 220.146443 116.619933 
L 220.313584 115.128973 
L 220.815007 116.790539 
L 221.48357 118.276954 
L 221.650711 117.416751 
L 221.817852 117.313151 
L 221.984993 117.939419 
L 222.486416 115.469322 
L 222.820698 116.508831 
L 222.987839 115.953328 
L 223.15498 113.34487 
L 223.656403 114.096895 
L 223.990684 114.934012 
L 224.157825 118.18559 
L 224.324966 116.015037 
L 224.826389 115.913829 
L 224.99353 114.270115 
L 225.160671 114.578958 
L 225.327812 118.212952 
L 225.494953 118.145802 
L 225.996376 116.690836 
L 226.163517 114.015123 
L 226.497798 118.694745 
L 226.664939 116.977174 
L 227.333503 118.125911 
L 227.500644 118.075431 
L 227.834926 112.005179 
L 228.50349 118.667001 
L 228.670631 113.129538 
L 228.837771 116.364436 
L 229.004912 116.749093 
L 229.506335 119.615501 
L 229.840617 112.799794 
L 230.007758 116.44501 
L 230.174899 116.999491 
L 230.676322 115.915035 
L 230.843463 113.087151 
L 231.177744 114.009903 
L 231.846308 116.825154 
L 232.013449 114.772724 
L 232.18059 117.929334 
L 232.347731 114.335635 
L 232.514872 115.231934 
L 233.016295 115.497045 
L 233.183436 114.412357 
L 233.517718 118.354134 
L 233.684858 115.291452 
L 234.186281 115.456434 
L 234.353422 117.172165 
L 234.520563 116.570583 
L 234.687704 115.526848 
L 234.854845 115.300406 
L 235.356268 117.77317 
L 235.69055 114.352957 
L 235.857691 116.430911 
L 236.526254 116.098792 
L 236.693395 113.658717 
L 236.860536 114.806272 
L 237.194818 120.313961 
L 237.696241 114.823168 
L 237.863382 119.622588 
L 238.197664 113.045641 
L 238.364805 120.23376 
L 238.866227 115.52182 
L 239.033368 115.602938 
L 239.200509 111.536178 
L 239.36765 120.782153 
L 239.534791 116.385486 
L 240.036214 119.015193 
L 240.203355 116.330449 
L 240.370496 117.502147 
L 240.537637 116.427999 
L 240.704778 113.630378 
L 241.2062 115.790523 
L 241.373341 113.835539 
L 241.540482 121.475453 
L 241.707623 117.092146 
L 242.376187 112.838737 
L 242.543328 115.683593 
L 242.710469 114.984878 
L 242.87761 113.413011 
L 243.044751 113.17177 
L 243.713314 116.965207 
L 243.880455 116.755288 
L 244.047596 113.854587 
L 244.214737 117.55324 
L 244.71616 115.84386 
L 244.883301 114.668853 
L 245.217583 118.940456 
L 245.384724 120.167789 
L 245.886146 120.267261 
L 246.220428 114.361917 
L 246.387569 119.686271 
L 246.55471 116.119314 
L 247.223274 112.576626 
L 247.390415 116.160432 
L 247.557556 114.927402 
L 247.724697 111.739122 
L 248.39326 118.354325 
L 248.560401 115.505615 
L 248.727542 117.194598 
L 248.894683 114.290932 
L 249.563247 116.56843 
L 249.897529 114.179018 
L 250.06467 116.150313 
L 250.900374 116.968591 
L 251.067515 116.641989 
L 251.234656 112.573024 
L 251.736079 116.993705 
L 251.90322 112.137632 
L 252.070361 115.686085 
L 252.237502 115.127965 
L 252.404643 116.589139 
L 252.906066 115.476818 
L 253.073207 117.032726 
L 253.240347 113.781292 
L 253.407488 114.313489 
L 253.574629 114.409096 
L 254.076052 116.141637 
L 254.243193 117.830463 
L 254.410334 113.918015 
L 254.577475 116.326777 
L 254.744616 115.555141 
L 255.246039 115.781948 
L 255.41318 116.195812 
L 255.580321 113.376587 
L 255.747461 115.792978 
L 255.914602 113.936878 
L 256.416025 115.221449 
L 256.583166 114.8195 
L 256.750307 116.703151 
L 256.917448 115.834179 
L 257.084589 117.259303 
L 257.586012 118.892342 
L 257.920294 115.637686 
L 258.087434 114.39593 
L 258.254575 120.6385 
L 258.755998 116.809861 
L 258.923139 117.415358 
L 259.09028 117.294214 
L 259.257421 115.198252 
L 259.424562 117.583206 
L 260.093126 116.78122 
L 260.260267 113.739326 
L 260.427408 114.9668 
L 260.594548 114.07074 
L 261.095971 114.807394 
L 261.263112 122.060427 
L 261.430253 115.769151 
L 261.597394 116.786942 
L 261.764535 116.621379 
L 262.265958 114.923014 
L 262.60024 118.570544 
L 262.767381 116.472755 
L 262.934521 118.43863 
L 263.435944 117.655214 
L 263.603085 116.589854 
L 263.770226 112.98589 
L 263.937367 118.32429 
L 264.104508 118.585692 
L 264.605931 111.769254 
L 264.773072 111.559773 
L 265.107354 117.705216 
L 265.274495 119.200185 
L 265.943058 115.726305 
L 266.110199 116.070991 
L 266.27734 111.504959 
L 266.444481 118.014587 
L 266.945904 113.023603 
L 267.113045 114.175766 
L 267.280186 116.430311 
L 267.447327 116.381962 
L 267.614468 112.073574 
L 268.283031 114.252768 
L 268.450172 115.908403 
L 268.617313 114.969969 
L 268.784454 111.890804 
L 269.285877 116.530815 
L 269.453018 116.299544 
L 269.620159 118.331352 
L 269.954441 113.963213 
L 270.455863 113.882634 
L 270.623004 114.335797 
L 270.790145 118.958938 
L 270.957286 110.163671 
L 271.124427 115.76988 
L 271.62585 116.894725 
L 271.792991 115.658852 
L 271.960132 116.101274 
L 272.127273 115.954867 
L 272.294414 114.994169 
L 272.795836 116.129628 
L 272.962977 114.08105 
L 273.130118 115.481594 
L 273.4644 115.223097 
L 273.965823 118.176741 
L 274.300105 112.527385 
L 274.467246 116.79714 
L 274.634387 115.762067 
L 275.135809 118.104392 
L 275.30295 117.529623 
L 275.637232 115.068896 
L 275.804373 117.326586 
L 276.305796 113.460267 
L 276.807219 119.424573 
L 276.97436 117.241992 
L 277.475783 116.690948 
L 277.642923 115.481534 
L 277.810064 113.422065 
L 277.977205 117.54888 
L 278.144346 115.08778 
L 278.81291 115.743453 
L 278.980051 117.634504 
L 279.147192 114.284788 
L 279.314333 116.264897 
L 279.982897 115.971133 
L 280.150037 115.292855 
L 280.317178 117.510559 
L 280.484319 112.606014 
L 280.985742 116.443247 
L 281.152883 115.053426 
L 281.320024 114.677086 
L 281.487165 114.925139 
L 281.654306 115.406772 
L 282.32287 117.699138 
L 282.49001 118.740127 
L 282.657151 117.100868 
L 282.824292 114.359898 
L 283.325715 114.734115 
L 283.659997 115.874375 
L 283.827138 114.970965 
L 283.994279 115.788444 
L 284.495702 117.11658 
L 284.662843 114.215354 
L 284.829984 115.888374 
L 284.997124 116.098295 
L 285.164265 116.505224 
L 285.665688 116.080667 
L 285.832829 114.698834 
L 285.99997 116.867187 
L 286.167111 117.063183 
L 286.334252 115.136974 
L 286.835675 114.187551 
L 287.002816 116.632633 
L 287.169957 115.742782 
L 287.337097 117.888267 
L 287.504238 115.319745 
L 288.172802 119.13035 
L 288.339943 116.317336 
L 288.507084 115.406999 
L 288.674225 117.503431 
L 289.175648 115.577409 
L 289.342789 117.020734 
L 289.844211 114.091414 
L 290.345634 115.731192 
L 290.512775 118.599257 
L 290.679916 116.195279 
L 290.847057 118.50164 
L 291.014198 117.587315 
L 291.515621 116.361818 
L 291.682762 114.273721 
L 291.849903 117.280524 
L 292.017044 114.102008 
L 292.184185 117.777843 
L 292.685607 114.049365 
L 292.852748 114.393227 
L 293.019889 118.458058 
L 293.18703 115.554549 
L 293.354171 115.278148 
L 293.855594 114.979874 
L 294.022735 116.10171 
L 294.189876 114.365031 
L 294.357017 115.246594 
L 294.524158 113.951952 
L 295.02558 114.389062 
L 295.192721 116.841538 
L 295.359862 115.545311 
L 295.527003 115.908043 
L 296.362708 115.464202 
L 296.529849 116.09708 
L 296.69699 114.145847 
L 296.864131 116.575635 
L 297.365553 115.457019 
L 297.699835 116.285055 
L 297.866976 116.427324 
L 298.034117 115.816996 
L 298.53554 115.613864 
L 298.702681 117.504564 
L 298.869822 116.983732 
L 299.036963 113.46744 
L 299.204104 114.667341 
L 299.705526 116.132258 
L 299.872667 117.599752 
L 300.039808 117.170018 
L 300.206949 117.255703 
L 300.37409 113.349448 
L 300.875513 116.177629 
L 301.042654 116.18357 
L 301.209795 116.061477 
L 301.376936 116.950544 
L 301.544077 115.961577 
L 302.045499 115.695547 
L 302.21264 117.491711 
L 302.379781 113.991706 
L 302.714063 116.42763 
L 303.215486 116.57269 
L 303.549768 117.124528 
L 303.88405 114.35722 
L 304.719754 116.554154 
L 304.886895 115.194305 
L 305.054036 112.616084 
L 305.555459 116.842341 
L 305.889741 115.494321 
L 306.056882 115.139865 
L 306.224023 115.72123 
L 306.725446 115.048357 
L 306.892586 115.253317 
L 307.059727 116.979988 
L 307.226868 113.954442 
L 307.394009 116.413224 
L 308.062573 117.033891 
L 308.396855 115.94207 
L 308.563996 116.926278 
L 309.065419 115.978752 
L 309.23256 114.940297 
L 309.3997 116.260154 
L 309.566841 114.678629 
L 309.733982 114.618045 
L 310.569687 116.507625 
L 310.736828 117.584555 
L 310.903969 116.780509 
L 311.405392 114.952473 
L 311.572533 38.029091 
L 311.739674 115.528925 
L 311.906814 115.703613 
L 312.073955 115.404172 
L 312.575378 115.575474 
L 312.742519 114.268824 
L 312.90966 115.432936 
L 313.076801 115.191459 
L 313.243942 115.9089 
L 313.745365 115.108316 
L 313.912506 115.801969 
L 314.079647 115.559317 
L 314.246787 116.961173 
L 314.413928 115.1404 
L 315.082492 115.608301 
L 315.249633 117.442199 
L 315.416774 116.214189 
L 315.583915 116.584738 
L 316.085338 114.109604 
L 316.252479 116.616675 
L 316.41962 116.763126 
L 316.586761 115.685862 
L 316.753901 115.453888 
L 317.255324 115.804184 
L 317.422465 117.513837 
L 317.589606 116.72529 
L 317.756747 117.223539 
L 317.923888 115.803282 
L 318.425311 116.086932 
L 318.592452 116.710397 
L 318.759593 115.083365 
L 318.926734 117.608101 
L 319.093874 114.789398 
L 319.595297 114.953567 
L 319.762438 114.600677 
L 320.09672 116.671578 
L 320.263861 115.400457 
L 320.932425 116.795279 
L 321.099566 116.813896 
L 321.266707 115.659754 
L 321.433848 115.577468 
L 321.93527 115.527443 
L 322.269552 116.236816 
L 322.436693 114.426049 
L 322.603834 117.209156 
L 323.105257 115.89273 
L 323.272398 116.39948 
L 323.439539 116.266831 
L 323.60668 117.595652 
L 323.773821 116.407321 
L 324.275243 115.722589 
L 324.442384 117.697386 
L 324.776666 115.38106 
L 324.943807 116.654989 
L 325.44523 116.264735 
L 325.612371 117.928093 
L 325.779512 115.319717 
L 325.946653 115.966928 
L 326.113794 114.565311 
L 326.615216 115.001049 
L 326.949498 115.617249 
L 327.116639 116.720594 
L 327.28378 115.738654 
L 327.785203 114.466064 
L 328.119485 117.443881 
L 328.286626 117.081061 
L 328.453767 117.257524 
L 328.955189 116.817571 
L 329.12233 114.950538 
L 329.456612 117.106568 
L 329.623753 117.662503 
L 330.125176 113.462626 
L 330.292317 115.333801 
L 330.459458 114.875056 
L 330.626599 113.277177 
L 330.79374 114.896894 
L 331.295162 115.762029 
L 331.462303 115.660759 
L 331.629444 116.103959 
L 331.796585 116.92619 
L 331.963726 114.122062 
L 332.465149 115.671126 
L 332.63229 113.697771 
L 332.966572 116.123636 
L 333.133713 115.911931 
L 333.635136 115.011715 
L 333.802276 116.198094 
L 333.969417 115.099808 
L 334.303699 115.402745 
L 334.805122 116.169496 
L 334.972263 115.551813 
L 335.139404 115.860884 
L 335.306545 113.631578 
L 335.473686 114.643401 
L 336.14225 116.263711 
L 336.30939 116.222425 
L 336.643672 115.357169 
L 337.312236 115.179666 
L 337.479377 113.738165 
L 337.646518 115.255926 
L 337.813659 115.682407 
L 338.315082 115.916409 
L 338.482223 114.86812 
L 338.649363 117.894009 
L 338.816504 114.565805 
L 338.983645 115.996549 
L 339.652209 115.25597 
L 340.153632 116.004934 
L 340.822196 115.814601 
L 340.989337 117.096572 
L 341.156477 115.877756 
L 341.323618 115.812776 
L 341.825041 115.018143 
L 341.992182 116.572553 
L 342.159323 115.211896 
L 342.493605 116.407616 
L 343.162169 116.880806 
L 343.32931 116.313821 
L 343.663591 114.276934 
L 344.165014 115.35219 
L 344.332155 116.315011 
L 344.499296 116.327112 
L 344.666437 114.919786 
L 344.833578 115.673118 
L 345.335001 115.004262 
L 345.502142 115.376012 
L 345.669283 117.203802 
L 345.836424 114.411031 
L 346.003564 115.375732 
L 346.504987 117.025461 
L 346.672128 115.346718 
L 346.839269 115.28913 
L 347.173551 116.139797 
L 347.674974 115.413681 
L 347.842115 118.026529 
L 348.009256 115.303267 
L 348.176397 114.505673 
L 348.343538 116.5031 
L 349.012101 116.17887 
L 349.179242 115.724322 
L 349.346383 114.076749 
L 349.513524 115.67111 
L 350.182088 116.306053 
L 350.683511 115.556515 
L 351.184933 116.308783 
L 351.352074 117.536718 
L 351.519215 115.613727 
L 351.686356 115.394966 
L 351.853497 116.195731 
L 352.35492 115.731039 
L 352.522061 114.972403 
L 352.856343 116.46926 
L 353.023484 116.684341 
L 353.524906 115.615557 
L 353.692047 114.633559 
L 353.859188 114.321306 
L 354.026329 114.858486 
L 354.19347 117.116205 
L 354.694893 116.560319 
L 354.862034 116.044067 
L 355.029175 114.025388 
L 355.196316 115.734716 
L 355.864879 116.861249 
L 356.03202 117.481525 
L 356.199161 116.091411 
L 356.366302 118.030793 
L 356.533443 114.680671 
L 357.034866 115.965008 
L 357.202007 115.956569 
L 357.369148 117.611323 
L 357.536289 115.929842 
L 357.70343 117.847431 
L 358.204852 116.937663 
L 358.371993 115.656367 
L 358.539134 116.10818 
L 358.706275 115.828932 
L 358.873416 115.049775 
L 359.54198 114.8457 
L 359.876262 117.439383 
L 360.043403 115.290669 
L 360.544826 115.323469 
L 360.711966 118.233914 
L 361.046248 114.595065 
L 361.213389 114.086024 
L 361.881953 115.791733 
L 362.216235 114.598285 
L 362.383376 115.425298 
L 362.884799 116.240649 
L 363.21908 114.542116 
L 363.386221 116.070754 
L 363.553362 115.395601 
L 364.054785 116.686456 
L 364.221926 115.660851 
L 364.556208 118.298801 
L 364.723349 115.902733 
L 365.391913 116.784166 
L 365.559053 117.569201 
L 365.726194 117.257546 
L 365.893335 113.570324 
L 366.394758 116.384249 
L 366.561899 115.353514 
L 366.896181 115.603518 
L 367.063322 116.269252 
L 367.564745 115.642757 
L 367.731886 116.403441 
L 367.899027 116.06156 
L 368.066167 116.182009 
L 368.233308 116.153549 
L 368.734731 115.157262 
L 368.901872 115.69198 
L 369.236154 114.716984 
L 369.403295 115.858021 
L 369.904718 114.881941 
L 370.071859 117.102063 
L 370.239 115.857707 
L 370.40614 115.775636 
L 370.573281 116.099791 
L 371.074704 115.718258 
L 371.241845 115.274394 
L 371.408986 116.014463 
L 371.743268 115.651024 
L 372.411832 116.129136 
L 372.578973 114.217587 
L 372.746114 115.792971 
L 372.913254 114.951501 
L 373.414677 115.09897 
L 373.581818 113.042518 
L 373.581818 113.042518 
" clip-path="url(#p5007f0d9a1)" style="fill: none; stroke: #000000; stroke-width: 1.5; stroke-linecap: square"/>
   </g>
   <g id="patch_3">
    <path d="M 54 201.6 
L 54 30.24 
" style="fill: none; stroke: #000000; stroke-width: 0.8; stroke-linejoin: miter; stroke-linecap: square"/>
   </g>
   <g id="patch_4">
    <path d="M 54 201.6 
L 388.8 201.6 
" style="fill: none; stroke: #000000; stroke-width: 0.8; stroke-linejoin: miter; stroke-linecap: square"/>
   </g>
   <g id="text_12">
    <!-- DJI returns -->
    <g transform="translate(183.558375 24.24) scale(0.144 -0.144)">
     <defs>
      <path id="DejaVuSans-4a" d="M 628 4666 
L 1259 4666 
L 1259 325 
Q 1259 -519 939 -900 
Q 619 -1281 -91 -1281 
L -331 -1281 
L -331 -750 
L -134 -750 
Q 284 -750 456 -515 
Q 628 -281 628 325 
L 628 4666 
z
" transform="scale(0.015625)"/>
      <path id="DejaVuSans-49" d="M 628 4666 
L 1259 4666 
L 1259 0 
L 628 0 
L 628 4666 
z
" transform="scale(0.015625)"/>
      <path id="DejaVuSans-20" transform="scale(0.015625)"/>
      <path id="DejaVuSans-72" d="M 2631 2963 
Q 2534 3019 2420 3045 
Q 2306 3072 2169 3072 
Q 1681 3072 1420 2755 
Q 1159 2438 1159 1844 
L 1159 0 
L 581 0 
L 581 3500 
L 1159 3500 
L 1159 2956 
Q 1341 3275 1631 3429 
Q 1922 3584 2338 3584 
Q 2397 3584 2469 3576 
Q 2541 3569 2628 3553 
L 2631 2963 
z
" transform="scale(0.015625)"/>
      <path id="DejaVuSans-75" d="M 544 1381 
L 544 3500 
L 1119 3500 
L 1119 1403 
Q 1119 906 1312 657 
Q 1506 409 1894 409 
Q 2359 409 2629 706 
Q 2900 1003 2900 1516 
L 2900 3500 
L 3475 3500 
L 3475 0 
L 2900 0 
L 2900 538 
Q 2691 219 2414 64 
Q 2138 -91 1772 -91 
Q 1169 -91 856 284 
Q 544 659 544 1381 
z
M 1991 3584 
L 1991 3584 
z
" transform="scale(0.015625)"/>
      <path id="DejaVuSans-6e" d="M 3513 2113 
L 3513 0 
L 2938 0 
L 2938 2094 
Q 2938 2591 2744 2837 
Q 2550 3084 2163 3084 
Q 1697 3084 1428 2787 
Q 1159 2491 1159 1978 
L 1159 0 
L 581 0 
L 581 3500 
L 1159 3500 
L 1159 2956 
Q 1366 3272 1645 3428 
Q 1925 3584 2291 3584 
Q 2894 3584 3203 3211 
Q 3513 2838 3513 2113 
z
" transform="scale(0.015625)"/>
      <path id="DejaVuSans-73" d="M 2834 3397 
L 2834 2853 
Q 2591 2978 2328 3040 
Q 2066 3103 1784 3103 
Q 1356 3103 1142 2972 
Q 928 2841 928 2578 
Q 928 2378 1081 2264 
Q 1234 2150 1697 2047 
L 1894 2003 
Q 2506 1872 2764 1633 
Q 3022 1394 3022 966 
Q 3022 478 2636 193 
Q 2250 -91 1575 -91 
Q 1294 -91 989 -36 
Q 684 19 347 128 
L 347 722 
Q 666 556 975 473 
Q 1284 391 1588 391 
Q 1994 391 2212 530 
Q 2431 669 2431 922 
Q 2431 1156 2273 1281 
Q 2116 1406 1581 1522 
L 1381 1569 
Q 847 1681 609 1914 
Q 372 2147 372 2553 
Q 372 3047 722 3315 
Q 1072 3584 1716 3584 
Q 2034 3584 2315 3537 
Q 2597 3491 2834 3397 
z
" transform="scale(0.015625)"/>
     </defs>
     <use xlink:href="#DejaVuSans-44"/>
     <use xlink:href="#DejaVuSans-4a" x="77.001953"/>
     <use xlink:href="#DejaVuSans-49" x="106.494141"/>
     <use xlink:href="#DejaVuSans-20" x="135.986328"/>
     <use xlink:href="#DejaVuSans-72" x="167.773438"/>
     <use xlink:href="#DejaVuSans-65" x="206.636719"/>
     <use xlink:href="#DejaVuSans-74" x="268.160156"/>
     <use xlink:href="#DejaVuSans-75" x="307.369141"/>
     <use xlink:href="#DejaVuSans-72" x="370.748047"/>
     <use xlink:href="#DejaVuSans-6e" x="410.111328"/>
     <use xlink:href="#DejaVuSans-73" x="473.490234"/>
    </g>
   </g>
  </g>
 </g>
 <defs>
  <clipPath id="p5007f0d9a1">
   <rect x="54" y="30.24" width="334.8" height="171.36"/>
  </clipPath>
 </defs>
</svg>
