<?xml version="1.0" encoding="utf-8" standalone="no"?>
<!DOCTYPE svg PUBLIC "-//W3C//DTD SVG 1.1//EN"
  "http://www.w3.org/Graphics/SVG/1.1/DTD/svg11.dtd">
<svg xmlns:xlink="http://www.w3.org/1999/xlink" width="432pt" height="252pt" viewBox="0 0 432 252" xmlns="http://www.w3.org/2000/svg" version="1.1">
 <metadata>
  <rdf:RDF xmlns:dc="http://purl.org/dc/elements/1.1/" xmlns:cc="http://creativecommons.org/ns#" xmlns:rdf="http://www.w3.org/1999/02/22-rdf-syntax-ns#">
   <cc:Work>
    <dc:type rdf:resource="http://purl.org/dc/dcmitype/StillImage"/>
    <dc:date>2024-07-17T20:15:11.054361</dc:date>
    <dc:format>image/svg+xml</dc:format>
    <dc:creator>
     <cc:Agent>
      <dc:title>Matplotlib v3.8.2, https://matplotlib.org/</dc:title>
     </cc:Agent>
    </dc:creator>
   </cc:Work>
  </rdf:RDF>
 </metadata>
 <defs>
  <style type="text/css">*{stroke-linejoin: round; stroke-linecap: butt}</style>
 </defs>
 <g id="figure_1">
  <g id="patch_1">
   <path d="M 0 252 
L 432 252 
L 432 0 
L 0 0 
z
" style="fill: #ffffff"/>
  </g>
  <g id="axes_1">
   <g id="patch_2">
    <path d="M 54 201.6 
L 388.8 201.6 
L 388.8 30.24 
L 54 30.24 
z
" style="fill: #ffffff"/>
   </g>
   <g id="matplotlib.axis_1">
    <g id="xtick_1">
     <g id="line2d_1">
      <path d="M 68.379715 201.6 
L 68.379715 30.24 
" clip-path="url(#p2c49efb22e)" style="fill: none; stroke: #b0b0b0; stroke-opacity: 0.3; stroke-width: 0.8; stroke-linecap: square"/>
     </g>
     <g id="line2d_2">
      <defs>
       <path id="m4872de2e19" d="M 0 0 
L 0 3.5 
" style="stroke: #000000; stroke-width: 0.8"/>
      </defs>
      <g>
       <use xlink:href="#m4872de2e19" x="68.379715" y="201.6" style="stroke: #000000; stroke-width: 0.8"/>
      </g>
     </g>
     <g id="text_1">
      <!-- 2021-01 -->
      <g transform="translate(23.70993 241.566215) rotate(-30) scale(0.12 -0.12)">
       <defs>
        <path id="DejaVuSans-32" d="M 1228 531 
L 3431 531 
L 3431 0 
L 469 0 
L 469 531 
Q 828 903 1448 1529 
Q 2069 2156 2228 2338 
Q 2531 2678 2651 2914 
Q 2772 3150 2772 3378 
Q 2772 3750 2511 3984 
Q 2250 4219 1831 4219 
Q 1534 4219 1204 4116 
Q 875 4013 500 3803 
L 500 4441 
Q 881 4594 1212 4672 
Q 1544 4750 1819 4750 
Q 2544 4750 2975 4387 
Q 3406 4025 3406 3419 
Q 3406 3131 3298 2873 
Q 3191 2616 2906 2266 
Q 2828 2175 2409 1742 
Q 1991 1309 1228 531 
z
" transform="scale(0.015625)"/>
        <path id="DejaVuSans-30" d="M 2034 4250 
Q 1547 4250 1301 3770 
Q 1056 3291 1056 2328 
Q 1056 1369 1301 889 
Q 1547 409 2034 409 
Q 2525 409 2770 889 
Q 3016 1369 3016 2328 
Q 3016 3291 2770 3770 
Q 2525 4250 2034 4250 
z
M 2034 4750 
Q 2819 4750 3233 4129 
Q 3647 3509 3647 2328 
Q 3647 1150 3233 529 
Q 2819 -91 2034 -91 
Q 1250 -91 836 529 
Q 422 1150 422 2328 
Q 422 3509 836 4129 
Q 1250 4750 2034 4750 
z
" transform="scale(0.015625)"/>
        <path id="DejaVuSans-31" d="M 794 531 
L 1825 531 
L 1825 4091 
L 703 3866 
L 703 4441 
L 1819 4666 
L 2450 4666 
L 2450 531 
L 3481 531 
L 3481 0 
L 794 0 
L 794 531 
z
" transform="scale(0.015625)"/>
        <path id="DejaVuSans-2d" d="M 313 2009 
L 1997 2009 
L 1997 1497 
L 313 1497 
L 313 2009 
z
" transform="scale(0.015625)"/>
       </defs>
       <use xlink:href="#DejaVuSans-32"/>
       <use xlink:href="#DejaVuSans-30" x="63.623047"/>
       <use xlink:href="#DejaVuSans-32" x="127.246094"/>
       <use xlink:href="#DejaVuSans-31" x="190.869141"/>
       <use xlink:href="#DejaVuSans-2d" x="254.492188"/>
       <use xlink:href="#DejaVuSans-30" x="290.576172"/>
       <use xlink:href="#DejaVuSans-31" x="354.199219"/>
      </g>
     </g>
    </g>
    <g id="xtick_2">
     <g id="line2d_3">
      <path d="M 101.918407 201.6 
L 101.918407 30.24 
" clip-path="url(#p2c49efb22e)" style="fill: none; stroke: #b0b0b0; stroke-opacity: 0.3; stroke-width: 0.8; stroke-linecap: square"/>
     </g>
     <g id="line2d_4">
      <g>
       <use xlink:href="#m4872de2e19" x="101.918407" y="201.6" style="stroke: #000000; stroke-width: 0.8"/>
      </g>
     </g>
     <g id="text_2">
      <!-- 2021-05 -->
      <g transform="translate(57.248622 241.566215) rotate(-30) scale(0.12 -0.12)">
       <defs>
        <path id="DejaVuSans-35" d="M 691 4666 
L 3169 4666 
L 3169 4134 
L 1269 4134 
L 1269 2991 
Q 1406 3038 1543 3061 
Q 1681 3084 1819 3084 
Q 2600 3084 3056 2656 
Q 3513 2228 3513 1497 
Q 3513 744 3044 326 
Q 2575 -91 1722 -91 
Q 1428 -91 1123 -41 
Q 819 9 494 109 
L 494 744 
Q 775 591 1075 516 
Q 1375 441 1709 441 
Q 2250 441 2565 725 
Q 2881 1009 2881 1497 
Q 2881 1984 2565 2268 
Q 2250 2553 1709 2553 
Q 1456 2553 1204 2497 
Q 953 2441 691 2322 
L 691 4666 
z
" transform="scale(0.015625)"/>
       </defs>
       <use xlink:href="#DejaVuSans-32"/>
       <use xlink:href="#DejaVuSans-30" x="63.623047"/>
       <use xlink:href="#DejaVuSans-32" x="127.246094"/>
       <use xlink:href="#DejaVuSans-31" x="190.869141"/>
       <use xlink:href="#DejaVuSans-2d" x="254.492188"/>
       <use xlink:href="#DejaVuSans-30" x="290.576172"/>
       <use xlink:href="#DejaVuSans-35" x="354.199219"/>
      </g>
     </g>
    </g>
    <g id="xtick_3">
     <g id="line2d_5">
      <path d="M 136.295567 201.6 
L 136.295567 30.24 
" clip-path="url(#p2c49efb22e)" style="fill: none; stroke: #b0b0b0; stroke-opacity: 0.3; stroke-width: 0.8; stroke-linecap: square"/>
     </g>
     <g id="line2d_6">
      <g>
       <use xlink:href="#m4872de2e19" x="136.295567" y="201.6" style="stroke: #000000; stroke-width: 0.8"/>
      </g>
     </g>
     <g id="text_3">
      <!-- 2021-09 -->
      <g transform="translate(91.625782 241.566215) rotate(-30) scale(0.12 -0.12)">
       <defs>
        <path id="DejaVuSans-39" d="M 703 97 
L 703 672 
Q 941 559 1184 500 
Q 1428 441 1663 441 
Q 2288 441 2617 861 
Q 2947 1281 2994 2138 
Q 2813 1869 2534 1725 
Q 2256 1581 1919 1581 
Q 1219 1581 811 2004 
Q 403 2428 403 3163 
Q 403 3881 828 4315 
Q 1253 4750 1959 4750 
Q 2769 4750 3195 4129 
Q 3622 3509 3622 2328 
Q 3622 1225 3098 567 
Q 2575 -91 1691 -91 
Q 1453 -91 1209 -44 
Q 966 3 703 97 
z
M 1959 2075 
Q 2384 2075 2632 2365 
Q 2881 2656 2881 3163 
Q 2881 3666 2632 3958 
Q 2384 4250 1959 4250 
Q 1534 4250 1286 3958 
Q 1038 3666 1038 3163 
Q 1038 2656 1286 2365 
Q 1534 2075 1959 2075 
z
" transform="scale(0.015625)"/>
       </defs>
       <use xlink:href="#DejaVuSans-32"/>
       <use xlink:href="#DejaVuSans-30" x="63.623047"/>
       <use xlink:href="#DejaVuSans-32" x="127.246094"/>
       <use xlink:href="#DejaVuSans-31" x="190.869141"/>
       <use xlink:href="#DejaVuSans-2d" x="254.492188"/>
       <use xlink:href="#DejaVuSans-30" x="290.576172"/>
       <use xlink:href="#DejaVuSans-39" x="354.199219"/>
      </g>
     </g>
    </g>
    <g id="xtick_4">
     <g id="line2d_7">
      <path d="M 170.393238 201.6 
L 170.393238 30.24 
" clip-path="url(#p2c49efb22e)" style="fill: none; stroke: #b0b0b0; stroke-opacity: 0.3; stroke-width: 0.8; stroke-linecap: square"/>
     </g>
     <g id="line2d_8">
      <g>
       <use xlink:href="#m4872de2e19" x="170.393238" y="201.6" style="stroke: #000000; stroke-width: 0.8"/>
      </g>
     </g>
     <g id="text_4">
      <!-- 2022-01 -->
      <g transform="translate(125.723453 241.566215) rotate(-30) scale(0.12 -0.12)">
       <use xlink:href="#DejaVuSans-32"/>
       <use xlink:href="#DejaVuSans-30" x="63.623047"/>
       <use xlink:href="#DejaVuSans-32" x="127.246094"/>
       <use xlink:href="#DejaVuSans-32" x="190.869141"/>
       <use xlink:href="#DejaVuSans-2d" x="254.492188"/>
       <use xlink:href="#DejaVuSans-30" x="290.576172"/>
       <use xlink:href="#DejaVuSans-31" x="354.199219"/>
      </g>
     </g>
    </g>
    <g id="xtick_5">
     <g id="line2d_9">
      <path d="M 203.931931 201.6 
L 203.931931 30.24 
" clip-path="url(#p2c49efb22e)" style="fill: none; stroke: #b0b0b0; stroke-opacity: 0.3; stroke-width: 0.8; stroke-linecap: square"/>
     </g>
     <g id="line2d_10">
      <g>
       <use xlink:href="#m4872de2e19" x="203.931931" y="201.6" style="stroke: #000000; stroke-width: 0.8"/>
      </g>
     </g>
     <g id="text_5">
      <!-- 2022-05 -->
      <g transform="translate(159.262146 241.566215) rotate(-30) scale(0.12 -0.12)">
       <use xlink:href="#DejaVuSans-32"/>
       <use xlink:href="#DejaVuSans-30" x="63.623047"/>
       <use xlink:href="#DejaVuSans-32" x="127.246094"/>
       <use xlink:href="#DejaVuSans-32" x="190.869141"/>
       <use xlink:href="#DejaVuSans-2d" x="254.492188"/>
       <use xlink:href="#DejaVuSans-30" x="290.576172"/>
       <use xlink:href="#DejaVuSans-35" x="354.199219"/>
      </g>
     </g>
    </g>
    <g id="xtick_6">
     <g id="line2d_11">
      <path d="M 238.309091 201.6 
L 238.309091 30.24 
" clip-path="url(#p2c49efb22e)" style="fill: none; stroke: #b0b0b0; stroke-opacity: 0.3; stroke-width: 0.8; stroke-linecap: square"/>
     </g>
     <g id="line2d_12">
      <g>
       <use xlink:href="#m4872de2e19" x="238.309091" y="201.6" style="stroke: #000000; stroke-width: 0.8"/>
      </g>
     </g>
     <g id="text_6">
      <!-- 2022-09 -->
      <g transform="translate(193.639306 241.566215) rotate(-30) scale(0.12 -0.12)">
       <use xlink:href="#DejaVuSans-32"/>
       <use xlink:href="#DejaVuSans-30" x="63.623047"/>
       <use xlink:href="#DejaVuSans-32" x="127.246094"/>
       <use xlink:href="#DejaVuSans-32" x="190.869141"/>
       <use xlink:href="#DejaVuSans-2d" x="254.492188"/>
       <use xlink:href="#DejaVuSans-30" x="290.576172"/>
       <use xlink:href="#DejaVuSans-39" x="354.199219"/>
      </g>
     </g>
    </g>
    <g id="xtick_7">
     <g id="line2d_13">
      <path d="M 272.406762 201.6 
L 272.406762 30.24 
" clip-path="url(#p2c49efb22e)" style="fill: none; stroke: #b0b0b0; stroke-opacity: 0.3; stroke-width: 0.8; stroke-linecap: square"/>
     </g>
     <g id="line2d_14">
      <g>
       <use xlink:href="#m4872de2e19" x="272.406762" y="201.6" style="stroke: #000000; stroke-width: 0.8"/>
      </g>
     </g>
     <g id="text_7">
      <!-- 2023-01 -->
      <g transform="translate(227.736977 241.566215) rotate(-30) scale(0.12 -0.12)">
       <defs>
        <path id="DejaVuSans-33" d="M 2597 2516 
Q 3050 2419 3304 2112 
Q 3559 1806 3559 1356 
Q 3559 666 3084 287 
Q 2609 -91 1734 -91 
Q 1441 -91 1130 -33 
Q 819 25 488 141 
L 488 750 
Q 750 597 1062 519 
Q 1375 441 1716 441 
Q 2309 441 2620 675 
Q 2931 909 2931 1356 
Q 2931 1769 2642 2001 
Q 2353 2234 1838 2234 
L 1294 2234 
L 1294 2753 
L 1863 2753 
Q 2328 2753 2575 2939 
Q 2822 3125 2822 3475 
Q 2822 3834 2567 4026 
Q 2313 4219 1838 4219 
Q 1578 4219 1281 4162 
Q 984 4106 628 3988 
L 628 4550 
Q 988 4650 1302 4700 
Q 1616 4750 1894 4750 
Q 2613 4750 3031 4423 
Q 3450 4097 3450 3541 
Q 3450 3153 3228 2886 
Q 3006 2619 2597 2516 
z
" transform="scale(0.015625)"/>
       </defs>
       <use xlink:href="#DejaVuSans-32"/>
       <use xlink:href="#DejaVuSans-30" x="63.623047"/>
       <use xlink:href="#DejaVuSans-32" x="127.246094"/>
       <use xlink:href="#DejaVuSans-33" x="190.869141"/>
       <use xlink:href="#DejaVuSans-2d" x="254.492188"/>
       <use xlink:href="#DejaVuSans-30" x="290.576172"/>
       <use xlink:href="#DejaVuSans-31" x="354.199219"/>
      </g>
     </g>
    </g>
    <g id="xtick_8">
     <g id="line2d_15">
      <path d="M 305.945455 201.6 
L 305.945455 30.24 
" clip-path="url(#p2c49efb22e)" style="fill: none; stroke: #b0b0b0; stroke-opacity: 0.3; stroke-width: 0.8; stroke-linecap: square"/>
     </g>
     <g id="line2d_16">
      <g>
       <use xlink:href="#m4872de2e19" x="305.945455" y="201.6" style="stroke: #000000; stroke-width: 0.8"/>
      </g>
     </g>
     <g id="text_8">
      <!-- 2023-05 -->
      <g transform="translate(261.27567 241.566215) rotate(-30) scale(0.12 -0.12)">
       <use xlink:href="#DejaVuSans-32"/>
       <use xlink:href="#DejaVuSans-30" x="63.623047"/>
       <use xlink:href="#DejaVuSans-32" x="127.246094"/>
       <use xlink:href="#DejaVuSans-33" x="190.869141"/>
       <use xlink:href="#DejaVuSans-2d" x="254.492188"/>
       <use xlink:href="#DejaVuSans-30" x="290.576172"/>
       <use xlink:href="#DejaVuSans-35" x="354.199219"/>
      </g>
     </g>
    </g>
    <g id="xtick_9">
     <g id="line2d_17">
      <path d="M 340.322615 201.6 
L 340.322615 30.24 
" clip-path="url(#p2c49efb22e)" style="fill: none; stroke: #b0b0b0; stroke-opacity: 0.3; stroke-width: 0.8; stroke-linecap: square"/>
     </g>
     <g id="line2d_18">
      <g>
       <use xlink:href="#m4872de2e19" x="340.322615" y="201.6" style="stroke: #000000; stroke-width: 0.8"/>
      </g>
     </g>
     <g id="text_9">
      <!-- 2023-09 -->
      <g transform="translate(295.65283 241.566215) rotate(-30) scale(0.12 -0.12)">
       <use xlink:href="#DejaVuSans-32"/>
       <use xlink:href="#DejaVuSans-30" x="63.623047"/>
       <use xlink:href="#DejaVuSans-32" x="127.246094"/>
       <use xlink:href="#DejaVuSans-33" x="190.869141"/>
       <use xlink:href="#DejaVuSans-2d" x="254.492188"/>
       <use xlink:href="#DejaVuSans-30" x="290.576172"/>
       <use xlink:href="#DejaVuSans-39" x="354.199219"/>
      </g>
     </g>
    </g>
    <g id="xtick_10">
     <g id="line2d_19">
      <path d="M 374.420285 201.6 
L 374.420285 30.24 
" clip-path="url(#p2c49efb22e)" style="fill: none; stroke: #b0b0b0; stroke-opacity: 0.3; stroke-width: 0.8; stroke-linecap: square"/>
     </g>
     <g id="line2d_20">
      <g>
       <use xlink:href="#m4872de2e19" x="374.420285" y="201.6" style="stroke: #000000; stroke-width: 0.8"/>
      </g>
     </g>
     <g id="text_10">
      <!-- 2024-01 -->
      <g transform="translate(329.750501 241.566215) rotate(-30) scale(0.12 -0.12)">
       <defs>
        <path id="DejaVuSans-34" d="M 2419 4116 
L 825 1625 
L 2419 1625 
L 2419 4116 
z
M 2253 4666 
L 3047 4666 
L 3047 1625 
L 3713 1625 
L 3713 1100 
L 3047 1100 
L 3047 0 
L 2419 0 
L 2419 1100 
L 313 1100 
L 313 1709 
L 2253 4666 
z
" transform="scale(0.015625)"/>
       </defs>
       <use xlink:href="#DejaVuSans-32"/>
       <use xlink:href="#DejaVuSans-30" x="63.623047"/>
       <use xlink:href="#DejaVuSans-32" x="127.246094"/>
       <use xlink:href="#DejaVuSans-34" x="190.869141"/>
       <use xlink:href="#DejaVuSans-2d" x="254.492188"/>
       <use xlink:href="#DejaVuSans-30" x="290.576172"/>
       <use xlink:href="#DejaVuSans-31" x="354.199219"/>
      </g>
     </g>
    </g>
    <g id="text_11">
     <!-- Date -->
     <g transform="translate(207.059063 256.845615) scale(0.12 -0.12)">
      <defs>
       <path id="DejaVuSans-44" d="M 1259 4147 
L 1259 519 
L 2022 519 
Q 2988 519 3436 956 
Q 3884 1394 3884 2338 
Q 3884 3275 3436 3711 
Q 2988 4147 2022 4147 
L 1259 4147 
z
M 628 4666 
L 1925 4666 
Q 3281 4666 3915 4102 
Q 4550 3538 4550 2338 
Q 4550 1131 3912 565 
Q 3275 0 1925 0 
L 628 0 
L 628 4666 
z
" transform="scale(0.015625)"/>
       <path id="DejaVuSans-61" d="M 2194 1759 
Q 1497 1759 1228 1600 
Q 959 1441 959 1056 
Q 959 750 1161 570 
Q 1363 391 1709 391 
Q 2188 391 2477 730 
Q 2766 1069 2766 1631 
L 2766 1759 
L 2194 1759 
z
M 3341 1997 
L 3341 0 
L 2766 0 
L 2766 531 
Q 2569 213 2275 61 
Q 1981 -91 1556 -91 
Q 1019 -91 701 211 
Q 384 513 384 1019 
Q 384 1609 779 1909 
Q 1175 2209 1959 2209 
L 2766 2209 
L 2766 2266 
Q 2766 2663 2505 2880 
Q 2244 3097 1772 3097 
Q 1472 3097 1187 3025 
Q 903 2953 641 2809 
L 641 3341 
Q 956 3463 1253 3523 
Q 1550 3584 1831 3584 
Q 2591 3584 2966 3190 
Q 3341 2797 3341 1997 
z
" transform="scale(0.015625)"/>
       <path id="DejaVuSans-74" d="M 1172 4494 
L 1172 3500 
L 2356 3500 
L 2356 3053 
L 1172 3053 
L 1172 1153 
Q 1172 725 1289 603 
Q 1406 481 1766 481 
L 2356 481 
L 2356 0 
L 1766 0 
Q 1100 0 847 248 
Q 594 497 594 1153 
L 594 3053 
L 172 3053 
L 172 3500 
L 594 3500 
L 594 4494 
L 1172 4494 
z
" transform="scale(0.015625)"/>
       <path id="DejaVuSans-65" d="M 3597 1894 
L 3597 1613 
L 953 1613 
Q 991 1019 1311 708 
Q 1631 397 2203 397 
Q 2534 397 2845 478 
Q 3156 559 3463 722 
L 3463 178 
Q 3153 47 2828 -22 
Q 2503 -91 2169 -91 
Q 1331 -91 842 396 
Q 353 884 353 1716 
Q 353 2575 817 3079 
Q 1281 3584 2069 3584 
Q 2775 3584 3186 3129 
Q 3597 2675 3597 1894 
z
M 3022 2063 
Q 3016 2534 2758 2815 
Q 2500 3097 2075 3097 
Q 1594 3097 1305 2825 
Q 1016 2553 972 2059 
L 3022 2063 
z
" transform="scale(0.015625)"/>
      </defs>
      <use xlink:href="#DejaVuSans-44"/>
      <use xlink:href="#DejaVuSans-61" x="77.001953"/>
      <use xlink:href="#DejaVuSans-74" x="138.28125"/>
      <use xlink:href="#DejaVuSans-65" x="177.490234"/>
     </g>
    </g>
   </g>
   <g id="matplotlib.axis_2">
    <g id="ytick_1">
     <g id="line2d_21">
      <path d="M 54 196.004079 
L 388.8 196.004079 
" clip-path="url(#p2c49efb22e)" style="fill: none; stroke: #b0b0b0; stroke-opacity: 0.3; stroke-width: 0.8; stroke-linecap: square"/>
     </g>
     <g id="line2d_22">
      <defs>
       <path id="mb532669500" d="M 0 0 
L -3.5 0 
" style="stroke: #000000; stroke-width: 0.8"/>
      </defs>
      <g>
       <use xlink:href="#mb532669500" x="54" y="196.004079" style="stroke: #000000; stroke-width: 0.8"/>
      </g>
     </g>
     <g id="text_12">
      <!-- −10 -->
      <g transform="translate(21.674375 200.563141) scale(0.12 -0.12)">
       <defs>
        <path id="DejaVuSans-2212" d="M 678 2272 
L 4684 2272 
L 4684 1741 
L 678 1741 
L 678 2272 
z
" transform="scale(0.015625)"/>
       </defs>
       <use xlink:href="#DejaVuSans-2212"/>
       <use xlink:href="#DejaVuSans-31" x="83.789062"/>
       <use xlink:href="#DejaVuSans-30" x="147.412109"/>
      </g>
     </g>
    </g>
    <g id="ytick_2">
     <g id="line2d_23">
      <path d="M 54 154.976477 
L 388.8 154.976477 
" clip-path="url(#p2c49efb22e)" style="fill: none; stroke: #b0b0b0; stroke-opacity: 0.3; stroke-width: 0.8; stroke-linecap: square"/>
     </g>
     <g id="line2d_24">
      <g>
       <use xlink:href="#mb532669500" x="54" y="154.976477" style="stroke: #000000; stroke-width: 0.8"/>
      </g>
     </g>
     <g id="text_13">
      <!-- −5 -->
      <g transform="translate(29.309375 159.53554) scale(0.12 -0.12)">
       <use xlink:href="#DejaVuSans-2212"/>
       <use xlink:href="#DejaVuSans-35" x="83.789062"/>
      </g>
     </g>
    </g>
    <g id="ytick_3">
     <g id="line2d_25">
      <path d="M 54 113.948875 
L 388.8 113.948875 
" clip-path="url(#p2c49efb22e)" style="fill: none; stroke: #b0b0b0; stroke-opacity: 0.3; stroke-width: 0.8; stroke-linecap: square"/>
     </g>
     <g id="line2d_26">
      <g>
       <use xlink:href="#mb532669500" x="54" y="113.948875" style="stroke: #000000; stroke-width: 0.8"/>
      </g>
     </g>
     <g id="text_14">
      <!-- 0 -->
      <g transform="translate(39.365 118.507938) scale(0.12 -0.12)">
       <use xlink:href="#DejaVuSans-30"/>
      </g>
     </g>
    </g>
    <g id="ytick_4">
     <g id="line2d_27">
      <path d="M 54 72.921273 
L 388.8 72.921273 
" clip-path="url(#p2c49efb22e)" style="fill: none; stroke: #b0b0b0; stroke-opacity: 0.3; stroke-width: 0.8; stroke-linecap: square"/>
     </g>
     <g id="line2d_28">
      <g>
       <use xlink:href="#mb532669500" x="54" y="72.921273" style="stroke: #000000; stroke-width: 0.8"/>
      </g>
     </g>
     <g id="text_15">
      <!-- 5 -->
      <g transform="translate(39.365 77.480336) scale(0.12 -0.12)">
       <use xlink:href="#DejaVuSans-35"/>
      </g>
     </g>
    </g>
    <g id="ytick_5">
     <g id="line2d_29">
      <path d="M 54 31.893671 
L 388.8 31.893671 
" clip-path="url(#p2c49efb22e)" style="fill: none; stroke: #b0b0b0; stroke-opacity: 0.3; stroke-width: 0.8; stroke-linecap: square"/>
     </g>
     <g id="line2d_30">
      <g>
       <use xlink:href="#mb532669500" x="54" y="31.893671" style="stroke: #000000; stroke-width: 0.8"/>
      </g>
     </g>
     <g id="text_16">
      <!-- 10 -->
      <g transform="translate(31.73 36.452734) scale(0.12 -0.12)">
       <use xlink:href="#DejaVuSans-31"/>
       <use xlink:href="#DejaVuSans-30" x="63.623047"/>
      </g>
     </g>
    </g>
   </g>
   <g id="line2d_31">
    <path d="M 69.218182 115.1499 
L 69.497671 114.297615 
L 69.77716 111.861396 
L 70.056649 110.94241 
L 70.336138 111.004748 
L 71.174606 111.938494 
L 71.454095 111.929596 
L 71.733584 112.33374 
L 72.013073 113.085155 
L 72.292562 114.457855 
L 73.410518 113.96466 
L 73.690008 112.630793 
L 73.969497 113.029523 
L 74.248986 114.430053 
L 75.087453 114.885341 
L 75.366942 115.229507 
L 75.646431 119.356229 
L 75.92592 117.389751 
L 76.205409 121.351473 
L 77.043877 119.690858 
L 77.323366 116.557131 
L 77.602855 116.419282 
L 77.882344 114.407543 
L 79.000301 112.766965 
L 79.27979 113.131732 
L 79.559279 113.024554 
L 79.838768 113.360733 
L 80.118257 113.459191 
L 81.236213 113.319877 
L 81.515702 113.023795 
L 81.795192 114.083731 
L 82.074681 114.316912 
L 83.192637 114.491554 
L 83.472126 111.959074 
L 84.031104 119.120921 
L 84.869572 115.064771 
L 85.42855 117.115238 
L 85.708039 119.474743 
L 85.987528 115.556714 
L 86.825995 113.676424 
L 87.105485 113.731906 
L 87.384974 110.916208 
L 87.664463 110.09619 
L 87.943952 108.65086 
L 88.782419 108.070138 
L 89.061908 109.477507 
L 89.341397 108.758883 
L 89.900376 112.305804 
L 90.738843 111.987631 
L 91.018332 114.405131 
L 91.297821 114.676763 
L 91.57731 113.574549 
L 91.856799 110.837781 
L 92.695267 110.638072 
L 93.254245 112.771808 
L 93.533734 111.973451 
L 94.65169 109.869606 
L 94.93118 111.034313 
L 95.210669 111.38658 
L 95.490158 111.445214 
L 95.769647 109.893844 
L 96.608114 110.795151 
L 96.887603 111.738524 
L 97.167092 111.813508 
L 97.446582 110.18686 
L 97.726071 109.610613 
L 98.564538 111.001643 
L 98.844027 113.225817 
L 99.123516 111.437872 
L 99.403005 114.094033 
L 99.682494 112.855599 
L 100.800451 114.009068 
L 101.07994 115.484015 
L 101.359429 114.066069 
L 101.638918 115.689255 
L 102.477385 114.263795 
L 102.756875 114.449994 
L 103.036364 114.083601 
L 103.595342 111.036695 
L 104.433809 111.789082 
L 104.992787 120.639832 
L 105.551766 115.042565 
L 106.390233 115.71388 
L 106.949211 119.171542 
L 107.2287 117.852973 
L 107.508189 117.077537 
L 108.346657 115.894214 
L 108.626146 116.708832 
L 108.905635 116.812293 
L 109.185124 115.957305 
L 109.464613 115.707741 
L 110.862059 115.666001 
L 111.141548 116.072462 
L 111.421037 114.971452 
L 112.538993 116.599007 
L 112.818482 117.906918 
L 113.377461 117.874875 
L 114.215928 118.616159 
L 114.495417 119.37757 
L 115.054395 122.832484 
L 115.333884 126.608701 
L 116.172352 121.647611 
L 116.451841 120.969755 
L 116.73133 121.381836 
L 117.290308 117.006344 
L 118.128775 118.234511 
L 118.408264 118.193389 
L 118.687754 116.629601 
L 119.246732 114.763259 
L 120.364688 116.557186 
L 120.644177 115.879574 
L 120.923666 118.010229 
L 121.203156 114.595973 
L 122.041623 113.858445 
L 122.321112 114.941414 
L 122.600601 193.810909 
L 122.88009 174.066794 
L 123.159579 164.143772 
L 123.998047 158.592645 
L 124.557025 146.899347 
L 125.116003 140.44557 
L 125.95447 138.028046 
L 126.792938 132.834857 
L 127.072427 131.712255 
L 127.910894 130.570562 
L 128.190383 128.718168 
L 128.469872 128.276355 
L 129.02885 125.303124 
L 129.867318 124.618634 
L 130.705785 121.360099 
L 130.985274 120.631387 
L 131.823742 119.737034 
L 132.103231 119.725375 
L 132.38272 119.932508 
L 132.662209 119.442266 
L 132.941698 118.331078 
L 133.780165 117.301173 
L 134.339144 116.169658 
L 134.618633 116.14612 
L 134.898122 115.158246 
L 135.736589 114.885646 
L 136.295567 114.32863 
L 136.575056 113.679001 
L 136.854545 113.526492 
L 137.972502 113.820191 
L 138.251991 113.647739 
L 138.53148 113.674093 
L 138.810969 113.977006 
L 139.649437 113.027029 
L 139.928926 113.41566 
L 140.208415 112.551396 
L 140.487904 112.437353 
L 140.767393 112.572587 
L 141.60586 113.759828 
L 141.885349 113.552601 
L 142.444328 110.947973 
L 142.723817 110.70191 
L 143.562284 110.381909 
L 143.841773 111.597652 
L 144.121262 111.178913 
L 144.400751 112.321717 
L 144.68024 110.898166 
L 145.518708 111.525921 
L 145.798197 110.570888 
L 146.077686 110.188653 
L 146.357175 109.26104 
L 146.636664 109.232051 
L 147.754621 109.998439 
L 148.03411 109.914089 
L 148.593088 107.625934 
L 149.431555 107.782449 
L 149.990533 107.115234 
L 150.270023 107.247794 
L 150.549512 107.18894 
L 151.667468 107.255307 
L 151.946957 108.005114 
L 152.226446 107.527073 
L 152.505935 107.439525 
L 153.344403 107.350628 
L 153.903381 107.084084 
L 154.18287 107.328961 
L 154.462359 107.015762 
L 155.300826 106.958492 
L 155.580316 107.406379 
L 156.139294 108.621758 
L 156.418783 108.304465 
L 157.536739 108.449352 
L 157.816228 109.064561 
L 158.095718 109.295438 
L 158.375207 110.009451 
L 159.213674 110.008375 
L 159.493163 109.586536 
L 159.772652 109.679185 
L 160.33163 111.908709 
L 161.170098 111.268411 
L 161.729076 113.895279 
L 162.008565 112.15329 
L 162.288054 112.233474 
L 163.126521 110.52907 
L 163.406011 109.334193 
L 163.964989 109.444784 
L 164.244478 109.011043 
L 165.362434 110.258942 
L 165.641923 109.364405 
L 165.921412 109.551242 
L 166.200902 110.973857 
L 167.039369 112.092735 
L 167.318858 110.621552 
L 167.877836 109.604162 
L 169.275282 108.761211 
L 169.554771 108.706819 
L 170.113749 109.41332 
L 170.952216 108.938425 
L 171.231705 108.577979 
L 171.511195 109.749279 
L 171.790684 110.311502 
L 172.070173 110.427241 
L 172.90864 110.940547 
L 173.188129 110.543867 
L 173.467618 110.543203 
L 174.026597 111.686857 
L 175.144553 113.141877 
L 175.98302 115.851114 
L 176.821488 115.382939 
L 177.100977 115.398568 
L 177.380466 115.587867 
L 177.659955 115.424755 
L 177.939444 113.659897 
L 178.777911 112.452471 
L 179.33689 111.107188 
L 179.616379 112.589213 
L 179.895868 112.634015 
L 180.734335 112.613605 
L 181.293313 110.755277 
L 181.852292 113.728277 
L 182.690759 114.149659 
L 182.970248 112.83279 
L 183.249737 112.967238 
L 183.529226 114.730114 
L 183.808715 115.288092 
L 184.926672 116.562103 
L 185.206161 117.733133 
L 185.48565 117.149456 
L 185.765139 114.313738 
L 186.603606 114.699523 
L 186.883095 116.375361 
L 187.162585 114.297667 
L 187.442074 114.476023 
L 187.721563 114.901103 
L 188.56003 117.218277 
L 188.839519 117.521669 
L 189.119008 115.121794 
L 189.398497 115.304659 
L 189.677986 115.852241 
L 190.516454 115.634032 
L 191.075432 111.76757 
L 191.354921 110.470135 
L 191.63441 109.706136 
L 192.472878 110.460885 
L 192.752367 109.761291 
L 193.031856 111.285613 
L 193.311345 110.23605 
L 193.590834 109.869247 
L 194.429301 109.709895 
L 194.70879 108.804614 
L 194.988279 109.210148 
L 195.267769 111.103192 
L 195.547258 110.738024 
L 196.385725 110.511017 
L 196.665214 111.514891 
L 196.944703 112.039237 
L 197.503681 111.396626 
L 198.621638 113.083366 
L 198.901127 111.929359 
L 199.180616 112.345403 
L 200.298573 112.498782 
L 200.578062 110.862365 
L 200.857551 110.1557 
L 201.13704 111.504613 
L 201.416529 114.822526 
L 202.254996 113.904222 
L 202.534485 116.595964 
L 202.813974 116.173001 
L 203.093464 113.840844 
L 203.372953 117.014773 
L 204.21142 116.480116 
L 204.490909 116.033451 
L 204.770398 112.535075 
L 205.049887 116.23145 
L 205.329376 116.388313 
L 206.167844 118.53746 
L 206.447333 118.516742 
L 206.726822 119.388604 
L 207.006311 119.385701 
L 207.2858 117.234566 
L 208.124267 116.860632 
L 208.403757 114.993852 
L 208.683246 119.144068 
L 208.962735 119.659886 
L 209.242224 119.19963 
L 210.080691 116.397048 
L 210.36018 115.965994 
L 210.639669 115.007983 
L 211.198648 110.637418 
L 212.316604 111.537624 
L 212.596093 112.225037 
L 212.875582 110.565888 
L 213.155071 111.952479 
L 213.993539 111.896605 
L 214.273028 110.90003 
L 214.552517 111.986931 
L 215.111495 117.760712 
L 215.949962 120.969915 
L 216.229452 121.086922 
L 216.508941 119.299073 
L 216.78843 121.937935 
L 217.067919 121.513352 
L 218.185875 118.225426 
L 218.465364 118.047913 
L 218.744853 116.865325 
L 219.024343 113.114351 
L 219.86281 113.27372 
L 220.142299 115.189895 
L 220.421788 114.632934 
L 220.701277 115.515935 
L 220.980766 113.91752 
L 222.098723 114.318177 
L 222.378212 113.853798 
L 222.657701 112.236961 
L 222.93719 112.380231 
L 223.775657 113.016716 
L 224.614125 114.953053 
L 224.893614 111.85859 
L 225.732081 112.756887 
L 226.01157 109.392485 
L 226.291059 109.301201 
L 226.570548 108.732447 
L 226.850038 109.47321 
L 227.688505 109.202981 
L 227.967994 110.314804 
L 228.526972 107.282108 
L 228.806461 106.21729 
L 229.644929 106.744371 
L 229.924418 108.732031 
L 230.203907 107.154484 
L 230.483396 107.802491 
L 230.762885 107.73368 
L 231.601352 107.874081 
L 231.880841 108.378159 
L 232.160331 106.34902 
L 232.43982 106.596961 
L 232.719309 105.185548 
L 233.557776 105.011463 
L 233.837265 104.499258 
L 234.116754 105.697284 
L 234.396243 106.05397 
L 234.675733 107.66471 
L 235.793689 111.46151 
L 236.073178 111.31807 
L 236.352667 110.058511 
L 236.632156 114.545103 
L 237.470624 115.303011 
L 238.029602 117.662551 
L 238.309091 116.764627 
L 238.58858 118.109466 
L 239.706536 118.636756 
L 239.986026 116.320634 
L 240.265515 115.265591 
L 240.545004 113.429905 
L 241.383471 112.378715 
L 241.66296 118.182608 
L 241.942449 117.761995 
L 242.501427 118.685225 
L 243.339895 117.426061 
L 243.619384 118.666232 
L 243.898873 120.847826 
L 244.178362 120.910132 
L 244.457851 122.815434 
L 245.296319 123.848008 
L 245.575808 123.803537 
L 245.855297 120.376024 
L 246.414275 124.093504 
L 247.252742 119.487801 
L 247.532231 114.934306 
L 247.811721 114.971037 
L 248.09121 116.499743 
L 248.370699 119.370739 
L 249.209166 119.41851 
L 249.488655 118.796794 
L 249.768144 118.537622 
L 250.047633 113.88725 
L 250.327122 115.781355 
L 251.16559 112.727863 
L 251.445079 110.958078 
L 252.004057 111.939578 
L 252.283546 108.143571 
L 253.122014 106.297114 
L 253.401503 104.987455 
L 253.680992 105.383556 
L 253.960481 104.846284 
L 254.23997 101.37639 
L 255.078437 102.643291 
L 255.357926 103.604744 
L 255.637415 106.470083 
L 255.916905 107.516983 
L 256.196394 105.915453 
L 257.034861 104.34498 
L 257.31435 103.32692 
L 257.593839 106.850543 
L 257.873328 101.65964 
L 258.991285 103.849581 
L 259.270774 104.17989 
L 259.829752 105.478769 
L 260.109241 105.083687 
L 260.947708 105.813175 
L 261.227198 104.528967 
L 261.506687 104.682622 
L 262.065665 104.584223 
L 262.904132 107.350095 
L 263.183621 107.75812 
L 263.46311 104.867989 
L 263.7426 106.303014 
L 264.022089 106.651016 
L 264.860556 109.271711 
L 265.140045 111.190954 
L 265.419534 111.417175 
L 265.699023 110.798427 
L 265.978512 112.45479 
L 266.81698 110.175631 
L 267.096469 110.001326 
L 267.375958 110.964811 
L 267.655447 114.750109 
L 267.934936 116.134483 
L 268.773403 116.885922 
L 269.052893 116.370931 
L 269.332382 113.790744 
L 269.611871 115.551196 
L 269.89136 114.702872 
L 271.009316 114.570807 
L 271.288805 116.388789 
L 271.568295 114.656564 
L 271.847784 115.062519 
L 272.96574 115.141714 
L 273.245229 114.510452 
L 273.524718 116.225531 
L 273.804207 112.71675 
L 274.642675 113.42098 
L 274.922164 112.624424 
L 275.481142 110.644964 
L 275.760631 110.375484 
L 276.878588 112.568468 
L 277.158077 115.76233 
L 277.437566 117.024752 
L 277.717055 115.270416 
L 278.835011 113.578862 
L 279.1145 113.64486 
L 279.393989 112.722605 
L 279.673479 112.743247 
L 280.511946 114.221259 
L 280.791435 112.42761 
L 281.070924 112.576356 
L 281.350413 112.950902 
L 281.629902 113.759179 
L 282.46837 114.051777 
L 282.747859 112.78224 
L 283.306837 115.403316 
L 283.586326 114.542022 
L 284.424793 112.649071 
L 284.704282 113.636346 
L 284.983772 113.557007 
L 285.263261 115.937296 
L 285.54275 115.243189 
L 286.660706 118.962857 
L 286.940195 119.233836 
L 287.219684 118.439601 
L 287.499174 120.099594 
L 288.337641 119.440613 
L 288.61713 120.478147 
L 288.896619 120.152783 
L 289.455597 115.713834 
L 290.294065 115.466431 
L 290.573554 118.576589 
L 290.853043 118.702121 
L 291.132532 121.503562 
L 291.412021 123.053743 
L 292.250488 123.073761 
L 292.529977 120.670087 
L 292.809467 121.898349 
L 293.088956 119.355663 
L 293.368445 121.237156 
L 294.206912 118.658965 
L 294.486401 116.623516 
L 294.76589 119.468375 
L 295.324869 117.719781 
L 296.163336 116.402178 
L 296.442825 116.484023 
L 296.722314 114.492842 
L 297.001803 113.658168 
L 297.281292 111.315604 
L 298.11976 109.62514 
L 298.399249 110.980905 
L 298.678738 110.700464 
L 298.958227 110.876404 
L 300.076183 110.487154 
L 300.355672 110.139443 
L 300.635162 110.585917 
L 300.914651 108.621523 
L 301.19414 109.749512 
L 302.032607 109.442197 
L 302.312096 109.785247 
L 302.871074 111.363773 
L 303.150563 111.418816 
L 303.989031 111.218491 
L 304.548009 114.817964 
L 304.827498 111.716891 
L 305.106987 110.30066 
L 305.945455 110.822284 
L 306.504433 114.883076 
L 306.783922 116.597119 
L 307.063411 113.193796 
L 307.901878 113.619656 
L 308.460856 114.262757 
L 308.740346 115.641026 
L 309.019835 115.652593 
L 309.858302 115.313651 
L 310.137791 117.353244 
L 310.41728 114.667383 
L 310.696769 113.963163 
L 310.976258 114.682585 
L 311.814726 115.557113 
L 312.373704 118.441757 
L 312.653193 118.452325 
L 312.932682 116.135599 
L 314.050639 116.369173 
L 314.330128 117.124235 
L 314.609617 115.993246 
L 314.889106 111.411019 
L 315.727573 112.840756 
L 316.007062 112.866715 
L 316.286551 112.373287 
L 316.566041 111.417945 
L 316.84553 111.318439 
L 317.683997 110.292923 
L 317.963486 109.610007 
L 318.242975 111.373077 
L 318.522464 108.814541 
L 318.801953 109.842384 
L 319.91991 111.690076 
L 320.199399 112.531183 
L 320.478888 112.697508 
L 320.758377 114.254567 
L 321.596844 114.379526 
L 321.876334 113.012282 
L 322.155823 113.610925 
L 322.714801 110.196073 
L 323.553268 110.397115 
L 324.112246 111.514183 
L 324.391736 114.144141 
L 324.671225 115.460917 
L 325.509692 114.026493 
L 325.789181 38.029091 
L 326.06867 55.086613 
L 326.627648 71.524576 
L 327.466116 76.468504 
L 328.584072 88.043949 
L 329.422539 89.893101 
L 330.261007 95.687356 
L 330.540496 96.798227 
L 331.378963 97.986056 
L 331.658452 99.148845 
L 332.217431 102.343263 
L 332.49692 103.686401 
L 333.335387 103.766369 
L 333.894365 106.336551 
L 334.453343 107.582425 
L 335.291811 108.276534 
L 335.850789 110.807507 
L 336.130278 112.035447 
L 336.409767 112.49829 
L 337.248234 113.078658 
L 337.527724 113.939344 
L 337.807213 113.942858 
L 338.086702 115.20871 
L 338.366191 114.992941 
L 339.204658 114.870615 
L 339.484147 114.57651 
L 339.763636 114.87931 
L 340.043125 115.630532 
L 340.322615 115.694993 
L 341.440571 116.463261 
L 341.72006 117.195921 
L 342.279038 117.348203 
L 343.117506 117.368586 
L 343.676484 117.988499 
L 343.955973 117.399568 
L 344.235462 118.268881 
L 345.073929 118.408839 
L 345.632908 119.090462 
L 345.912397 120.042707 
L 346.191886 120.321747 
L 347.030353 120.228075 
L 347.309842 121.143992 
L 347.589331 121.249824 
L 347.86882 120.906849 
L 348.14831 121.229111 
L 348.986777 121.326114 
L 349.266266 122.253624 
L 349.545755 121.791994 
L 349.825244 121.682411 
L 350.104733 120.865887 
L 350.943201 120.316844 
L 351.502179 119.758138 
L 351.781668 120.136782 
L 352.061157 119.989347 
L 352.899624 119.199874 
L 353.179113 119.163399 
L 353.738092 120.465296 
L 354.017581 121.049626 
L 354.856048 121.367615 
L 355.135537 120.710935 
L 355.415026 120.835898 
L 355.694515 121.299227 
L 355.974005 122.009242 
L 357.37145 119.450367 
L 357.650939 118.01811 
L 357.930428 117.494994 
L 359.327874 117.471833 
L 359.607363 118.019313 
L 359.886852 117.075593 
L 360.725319 116.989417 
L 361.004808 115.873044 
L 361.284298 115.597726 
L 361.843276 115.934318 
L 362.681743 115.555949 
L 362.961232 115.827506 
L 363.240721 115.497708 
L 363.799699 115.346451 
L 364.638167 115.613951 
L 364.917656 115.533723 
L 365.197145 115.623723 
L 365.476634 114.499683 
L 365.756123 113.98417 
L 366.594591 114.288456 
L 367.153569 115.005139 
L 367.433058 115.007262 
L 367.712547 114.847864 
L 368.551014 114.634035 
L 368.830503 114.394576 
L 369.109992 113.362401 
L 369.389482 113.234512 
L 370.507438 113.598484 
L 370.786927 113.237826 
L 371.066416 114.614283 
L 371.345905 114.022966 
L 371.625394 114.280023 
L 373.02284 114.043648 
L 373.302329 114.129597 
L 373.581818 114.388524 
L 373.581818 114.388524 
" clip-path="url(#p2c49efb22e)" style="fill: none; stroke: #dc143c; stroke-width: 2; stroke-linecap: square"/>
   </g>
   <g id="line2d_32">
    <path d="M 69.218182 116.549699 
L 69.497671 115.171313 
L 69.77716 111.75173 
L 70.056649 110.610581 
L 70.336138 110.883867 
L 71.174606 112.335703 
L 71.454095 112.394109 
L 71.733584 113.020205 
L 72.013073 114.085694 
L 72.292562 115.935394 
L 73.410518 115.083633 
L 73.690008 113.135076 
L 73.969497 113.710318 
L 74.248986 115.626159 
L 75.087453 116.111948 
L 75.366942 116.414324 
L 75.646431 121.729171 
L 75.92592 118.600146 
L 76.205409 123.444999 
L 77.043877 120.69009 
L 77.323366 116.238909 
L 77.602855 115.920157 
L 77.882344 113.139976 
L 78.161833 112.692099 
L 79.000301 111.058027 
L 79.27979 111.738545 
L 79.559279 111.730163 
L 79.838768 112.333192 
L 80.118257 112.568594 
L 81.236213 112.457938 
L 81.515702 112.135637 
L 81.795192 113.721719 
L 82.074681 114.051297 
L 82.913148 114.105349 
L 83.192637 114.258419 
L 83.472126 110.744511 
L 84.031104 120.305508 
L 84.869572 114.708452 
L 85.42855 117.229059 
L 85.708039 120.180997 
L 85.987528 114.713402 
L 86.825995 112.19399 
L 87.105485 112.376168 
L 87.384974 108.715169 
L 87.664463 107.928448 
L 87.943952 106.333984 
L 88.782419 106.006955 
L 89.061908 108.410586 
L 89.341397 107.741421 
L 89.900376 113.153005 
L 90.738843 112.7201 
L 91.018332 116.054773 
L 91.297821 116.247472 
L 91.57731 114.543585 
L 91.856799 110.748524 
L 92.695267 110.645861 
L 93.254245 113.805883 
L 93.533734 112.676205 
L 94.65169 109.841255 
L 94.93118 111.663902 
L 95.210669 112.254428 
L 95.490158 112.40243 
L 95.769647 110.328912 
L 96.608114 111.761437 
L 96.887603 113.154555 
L 97.167092 113.261216 
L 97.446582 111.027559 
L 97.726071 110.383168 
L 98.564538 112.476739 
L 98.844027 115.547113 
L 99.123516 112.964856 
L 99.403005 116.552114 
L 99.682494 114.663819 
L 100.800451 115.975237 
L 101.07994 117.80103 
L 101.359429 115.583998 
L 101.638918 117.640701 
L 102.477385 115.435108 
L 102.756875 115.562887 
L 103.036364 114.932448 
L 103.315853 112.279217 
L 103.595342 110.807296 
L 104.433809 112.020957 
L 104.992787 123.473902 
L 105.551766 115.359526 
L 106.390233 116.141877 
L 106.669722 118.833837 
L 106.949211 120.260556 
L 107.508189 116.808642 
L 108.346657 115.042223 
L 108.626146 116.098426 
L 108.905635 116.12142 
L 109.185124 114.833279 
L 109.464613 114.458659 
L 110.582569 114.315768 
L 110.862059 114.39712 
L 111.141548 114.954319 
L 111.421037 113.399696 
L 112.538993 115.650353 
L 112.818482 117.36039 
L 113.377461 116.937328 
L 114.215928 117.792754 
L 114.495417 118.621872 
L 115.054395 122.669118 
L 115.333884 127.270888 
L 116.172352 120.023559 
L 116.451841 118.805779 
L 116.73133 119.119619 
L 117.290308 112.954397 
L 118.128775 114.747639 
L 118.408264 114.704918 
L 118.687754 112.5771 
L 119.246732 110.383634 
L 120.364688 113.144461 
L 120.644177 112.317409 
L 120.923666 115.410485 
L 121.203156 110.723962 
L 122.041623 109.98058 
L 122.600601 112.9051 
L 122.88009 112.863431 
L 123.998047 117.0042 
L 124.277536 113.976246 
L 124.557025 112.214084 
L 124.836514 112.274581 
L 125.116003 110.485363 
L 125.95447 110.130468 
L 126.513449 113.335145 
L 126.792938 111.875684 
L 127.072427 114.093921 
L 127.910894 115.558574 
L 128.190383 112.197127 
L 128.469872 116.725966 
L 128.749361 113.258801 
L 129.02885 111.758814 
L 129.867318 113.657902 
L 130.426296 109.521386 
L 130.985274 110.645152 
L 131.823742 109.909651 
L 132.38272 119.41845 
L 132.662209 119.965353 
L 132.941698 116.697248 
L 133.780165 113.944933 
L 134.339144 113.655945 
L 134.618633 116.386506 
L 134.898122 113.345831 
L 135.736589 114.394707 
L 136.295567 115.854179 
L 136.575056 114.265814 
L 136.854545 115.426958 
L 138.53148 120.833981 
L 138.810969 123.575161 
L 139.649437 119.35745 
L 139.928926 122.449181 
L 140.208415 118.658669 
L 140.487904 118.993175 
L 140.767393 120.543287 
L 141.60586 127.223105 
L 141.885349 126.253251 
L 142.444328 113.855456 
L 142.723817 113.449307 
L 143.562284 112.628501 
L 143.841773 119.490982 
L 144.121262 117.715414 
L 144.400751 123.785916 
L 144.68024 116.795667 
L 145.518708 120.2703 
L 145.798197 115.65451 
L 146.077686 114.093401 
L 146.357175 109.819267 
L 146.636664 110.301021 
L 147.754621 115.136838 
L 148.03411 114.909024 
L 148.313599 108.011173 
L 148.593088 103.945728 
L 149.431555 105.533423 
L 149.711044 104.089538 
L 149.990533 103.444655 
L 150.270023 104.844927 
L 150.549512 105.125122 
L 151.387979 105.522382 
L 151.667468 106.489368 
L 151.946957 110.775199 
L 152.226446 108.380871 
L 152.505935 108.150329 
L 153.344403 107.90664 
L 153.623892 107.174276 
L 153.903381 106.974404 
L 154.18287 108.505089 
L 154.462359 106.983973 
L 155.300826 106.893434 
L 155.580316 109.450592 
L 156.139294 115.632803 
L 156.418783 113.586692 
L 157.25725 114.14831 
L 157.536739 113.80888 
L 157.816228 116.790014 
L 158.095718 117.546409 
L 158.375207 120.790268 
L 159.213674 120.053561 
L 159.493163 117.165059 
L 159.772652 117.178396 
L 160.33163 127.762871 
L 161.170098 123.452238 
L 161.449587 130.210021 
L 161.729076 133.783897 
L 162.008565 124.301668 
L 162.288054 123.844215 
L 163.126521 115.230225 
L 163.406011 109.402809 
L 163.6855 109.495686 
L 163.964989 110.011438 
L 164.244478 107.882785 
L 165.362434 114.00452 
L 165.641923 109.311552 
L 165.921412 110.28336 
L 166.200902 117.288022 
L 167.039369 122.345227 
L 167.318858 114.518698 
L 167.877836 109.185265 
L 168.995793 105.445747 
L 169.554771 105.369787 
L 170.113749 109.317303 
L 170.952216 106.94278 
L 171.231705 105.30531 
L 171.511195 111.385873 
L 171.790684 114.064213 
L 172.070173 114.353931 
L 172.90864 116.621619 
L 173.188129 114.188181 
L 173.467618 113.902187 
L 174.026597 118.957573 
L 175.144553 125.482637 
L 175.98302 134.379969 
L 177.100977 129.165075 
L 177.380466 128.771023 
L 177.659955 126.846315 
L 177.939444 118.171809 
L 178.777911 112.545221 
L 179.33689 106.853148 
L 179.616379 113.651304 
L 179.895868 113.777441 
L 180.734335 113.608012 
L 181.293313 105.56802 
L 181.852292 118.863493 
L 182.690759 120.306844 
L 182.970248 114.139305 
L 183.249737 114.640712 
L 183.529226 122.10493 
L 183.808715 123.931091 
L 184.926672 128.661006 
L 185.206161 132.503953 
L 185.48565 128.719543 
L 185.765139 116.648173 
L 186.603606 118.020355 
L 186.883095 124.500765 
L 187.162585 115.696718 
L 187.442074 116.293205 
L 187.721563 117.891045 
L 188.56003 126.917942 
L 188.839519 127.352354 
L 189.119008 117.212785 
L 189.398497 117.772565 
L 189.677986 119.811693 
L 190.516454 118.581123 
L 191.075432 102.994111 
L 191.354921 98.547083 
L 191.63441 96.577561 
L 192.472878 100.698514 
L 192.752367 98.774693 
L 193.031856 105.606266 
L 193.311345 101.965699 
L 193.590834 101.236188 
L 194.429301 101.362738 
L 194.70879 98.618953 
L 194.988279 101.107438 
L 195.267769 108.875127 
L 195.547258 107.664406 
L 196.385725 107.051036 
L 196.665214 111.141097 
L 196.944703 113.1618 
L 197.224192 112.112181 
L 197.503681 110.564514 
L 198.342149 115.952702 
L 198.621638 116.754639 
L 198.901127 112.081166 
L 199.180616 113.644971 
L 200.298573 114.116696 
L 200.578062 107.86387 
L 200.857551 105.498883 
L 201.13704 110.904176 
L 201.416529 122.439964 
L 202.254996 118.631702 
L 202.534485 127.386635 
L 202.813974 125.041834 
L 203.093464 116.484615 
L 203.372953 126.581213 
L 204.21142 124.070557 
L 204.490909 121.969585 
L 204.770398 110.295349 
L 205.049887 121.722503 
L 205.329376 121.872481 
L 206.167844 128.402527 
L 206.447333 127.60717 
L 206.726822 129.838548 
L 207.006311 128.997534 
L 207.2858 121.067542 
L 208.124267 119.532096 
L 208.403757 112.975963 
L 208.683246 126.11274 
L 208.962735 127.306555 
L 209.242224 125.275557 
L 210.080691 115.908866 
L 210.36018 114.562907 
L 210.639669 111.477156 
L 211.198648 98.079714 
L 212.316604 102.110752 
L 212.596093 105.17745 
L 212.875582 100.334864 
L 213.155071 105.740948 
L 213.993539 106.085026 
L 214.273028 103.296175 
L 214.552517 107.549101 
L 215.111495 125.869739 
L 215.949962 134.516927 
L 216.229452 133.593175 
L 216.508941 127.263931 
L 216.78843 134.136009 
L 218.185875 121.824572 
L 218.465364 121.023813 
L 218.744853 117.323459 
L 219.024343 106.91366 
L 219.86281 107.807602 
L 220.142299 113.651675 
L 220.421788 112.111701 
L 220.701277 114.899609 
L 220.980766 110.160992 
L 222.098723 111.643034 
L 222.378212 110.418884 
L 222.657701 105.794773 
L 222.93719 106.771934 
L 223.775657 109.177966 
L 224.334636 114.197033 
L 224.614125 115.552228 
L 224.893614 106.433979 
L 225.732081 109.522438 
L 226.01157 100.412801 
L 226.291059 100.996411 
L 226.570548 100.188749 
L 226.850038 103.114677 
L 227.688505 102.964376 
L 227.967994 106.73667 
L 228.247483 102.018453 
L 228.806461 97.222796 
L 229.644929 99.692833 
L 229.924418 105.85152 
L 230.203907 101.949404 
L 230.483396 104.308235 
L 231.601352 105.367626 
L 231.880841 107.109197 
L 232.160331 101.900097 
L 232.43982 103.153962 
L 232.719309 99.886999 
L 233.557776 100.144559 
L 233.837265 99.476089 
L 234.116754 103.352737 
L 234.396243 104.732556 
L 234.675733 109.298268 
L 235.793689 118.591923 
L 236.073178 117.717977 
L 236.352667 114.030481 
L 236.632156 124.515626 
L 237.470624 125.5315 
L 238.029602 129.328218 
L 238.309091 126.01916 
L 238.58858 128.409145 
L 239.706536 128.638876 
L 239.986026 122.13928 
L 240.265515 119.071543 
L 240.545004 114.34862 
L 241.383471 111.767046 
L 241.66296 124.151062 
L 241.942449 122.720651 
L 242.221938 123.540061 
L 242.501427 123.901628 
L 243.339895 120.474437 
L 243.619384 123.104741 
L 243.898873 127.744694 
L 244.178362 127.144552 
L 244.457851 130.881741 
L 245.296319 132.311373 
L 245.575808 131.153501 
L 245.855297 122.675774 
L 246.414275 130.070653 
L 247.252742 119.902849 
L 247.532231 110.819721 
L 247.811721 111.099697 
L 248.09121 114.506969 
L 248.370699 120.573195 
L 249.209166 120.433398 
L 249.488655 118.816539 
L 249.768144 118.077014 
L 250.047633 108.142895 
L 250.327122 112.553931 
L 251.16559 106.217906 
L 251.445079 102.890821 
L 252.004057 106.242414 
L 252.283546 98.627889 
L 253.122014 95.672248 
L 253.401503 94.076111 
L 253.680992 96.165579 
L 253.960481 96.10001 
L 254.23997 90.176136 
L 255.078437 94.188216 
L 255.357926 97.221289 
L 255.637415 103.641439 
L 255.916905 106.131455 
L 256.196394 103.205081 
L 257.034861 100.512327 
L 257.31435 99.080128 
L 257.593839 106.457892 
L 257.873328 97.535398 
L 258.152817 99.203181 
L 259.829752 106.673048 
L 260.109241 106.01396 
L 260.947708 107.644813 
L 261.227198 105.136775 
L 261.506687 105.668487 
L 262.065665 105.658791 
L 262.904132 111.338981 
L 263.183621 112.03482 
L 263.46311 106.240935 
L 263.7426 109.217398 
L 264.022089 109.910606 
L 264.860556 114.996831 
L 265.140045 118.427547 
L 265.419534 118.369484 
L 265.699023 116.657561 
L 265.978512 119.545529 
L 266.81698 114.59638 
L 267.096469 114.023735 
L 267.375958 115.730802 
L 267.655447 122.573911 
L 267.934936 124.485255 
L 268.773403 125.086851 
L 269.052893 123.257043 
L 269.332382 117.759618 
L 269.611871 120.727245 
L 269.89136 118.620201 
L 271.009316 117.9986 
L 271.288805 121.120148 
L 271.568295 117.346581 
L 271.847784 117.849615 
L 272.96574 117.703998 
L 273.245229 116.210259 
L 273.524718 119.298951 
L 273.804207 112.512017 
L 274.642675 113.865445 
L 275.481142 108.863676 
L 275.760631 108.631131 
L 276.878588 113.032787 
L 277.158077 118.883444 
L 277.437566 120.862086 
L 277.717055 117.178718 
L 278.835011 113.75022 
L 279.1145 113.863965 
L 279.393989 112.104353 
L 279.673479 112.239481 
L 280.511946 115.12236 
L 280.791435 111.650491 
L 281.070924 112.056458 
L 281.350413 112.86447 
L 281.629902 114.442977 
L 282.46837 114.940268 
L 282.747859 112.443078 
L 283.306837 117.383365 
L 283.586326 115.511207 
L 284.424793 111.851669 
L 284.704282 113.82119 
L 284.983772 113.662766 
L 285.263261 118.080921 
L 285.54275 116.503522 
L 286.660706 123.028814 
L 286.940195 122.933677 
L 287.219684 120.913281 
L 287.499174 123.52314 
L 288.337641 121.721888 
L 288.61713 123.174157 
L 288.896619 122.022005 
L 289.455597 113.28582 
L 290.294065 112.933991 
L 290.573554 118.657685 
L 290.853043 118.660326 
L 291.132532 123.492529 
L 291.412021 125.789443 
L 292.250488 125.181546 
L 292.529977 120.251577 
L 292.809467 122.225124 
L 293.088956 117.246262 
L 293.368445 120.583646 
L 294.206912 115.66487 
L 294.486401 111.999096 
L 294.76589 117.314322 
L 295.324869 114.036976 
L 296.163336 111.711959 
L 296.442825 112.115042 
L 296.722314 108.640071 
L 297.001803 107.52875 
L 297.281292 103.730263 
L 298.11976 101.417067 
L 298.399249 104.798569 
L 298.678738 104.951853 
L 298.958227 105.918884 
L 300.355672 105.712523 
L 300.635162 107.098042 
L 300.914651 103.999742 
L 301.19414 106.703665 
L 302.032607 106.61951 
L 302.312096 107.710267 
L 302.871074 111.217566 
L 303.150563 111.458789 
L 303.989031 111.220375 
L 304.26852 115.265152 
L 304.548009 117.656565 
L 304.827498 111.954328 
L 305.106987 109.557254 
L 305.945455 110.717976 
L 306.504433 117.872843 
L 306.783922 120.572047 
L 307.063411 114.283882 
L 307.901878 114.961361 
L 308.181367 115.578905 
L 308.460856 115.845711 
L 308.740346 118.123484 
L 309.858302 116.954611 
L 310.137791 120.345957 
L 310.41728 115.227095 
L 310.696769 113.895258 
L 310.976258 115.158507 
L 311.814726 116.618133 
L 312.373704 121.201797 
L 312.653193 120.736595 
L 312.932682 116.236945 
L 314.050639 116.513983 
L 314.330128 117.698073 
L 314.609617 115.471345 
L 314.889106 107.613189 
L 315.727573 110.474559 
L 316.007062 110.753569 
L 316.286551 110.110345 
L 316.566041 108.697784 
L 316.84553 108.87087 
L 317.683997 107.403024 
L 317.963486 106.632745 
L 318.242975 110.187668 
L 318.522464 105.976857 
L 318.801953 108.262297 
L 319.91991 111.800546 
L 320.199399 113.366099 
L 320.478888 113.655769 
L 320.758377 116.351632 
L 321.596844 116.371394 
L 321.876334 113.78711 
L 322.155823 114.81442 
L 322.714801 108.894404 
L 323.553268 109.553236 
L 324.112246 111.760159 
L 324.391736 116.406557 
L 324.671225 118.4777 
L 325.789181 114.427977 
L 326.348159 114.181528 
L 326.627648 113.690291 
L 327.466116 113.307979 
L 327.745605 110.691128 
L 328.025094 110.040098 
L 328.304583 108.831549 
L 328.584072 109.292217 
L 329.422539 107.72816 
L 329.702029 108.068585 
L 329.981518 107.725982 
L 330.261007 111.472583 
L 330.540496 109.575467 
L 331.658452 108.602205 
L 331.937941 114.064862 
L 332.217431 115.203905 
L 332.49692 117.395968 
L 333.335387 111.610714 
L 333.894365 117.098234 
L 334.173854 116.244849 
L 334.453343 114.748807 
L 335.291811 114.513052 
L 335.5713 119.600527 
L 335.850789 121.636913 
L 336.130278 124.890078 
L 336.409767 123.406909 
L 337.248234 122.92908 
L 337.527724 124.334385 
L 337.807213 120.713998 
L 338.086702 124.916236 
L 338.366191 120.390962 
L 339.204658 116.870031 
L 339.484147 112.744354 
L 339.763636 112.413652 
L 340.043125 114.786963 
L 340.322615 113.20029 
L 341.440571 115.843292 
L 341.72006 118.221146 
L 342.279038 115.602169 
L 343.117506 114.250816 
L 343.396995 114.432539 
L 343.676484 115.283176 
L 343.955973 110.777177 
L 344.235462 114.862589 
L 345.073929 114.66194 
L 345.353418 115.95639 
L 345.632908 116.705991 
L 345.912397 121.194552 
L 346.191886 121.672084 
L 347.030353 120.081502 
L 347.309842 124.348471 
L 347.589331 123.847535 
L 347.86882 120.922885 
L 348.14831 122.000811 
L 348.986777 121.791576 
L 349.266266 126.311666 
L 349.545755 122.802609 
L 349.825244 121.542247 
L 350.104733 116.440155 
L 350.943201 113.167025 
L 351.22269 111.115223 
L 351.502179 110.235712 
L 351.781668 112.667587 
L 352.061157 111.962143 
L 352.899624 107.660908 
L 353.179113 107.946484 
L 353.738092 116.045127 
L 354.017581 119.411923 
L 354.856048 121.078025 
L 355.135537 117.060621 
L 355.415026 117.809046 
L 355.694515 120.495689 
L 355.974005 124.443398 
L 357.37145 110.039301 
L 357.650939 102.544492 
L 357.930428 100.646507 
L 358.768896 101.512594 
L 359.048385 102.018884 
L 359.327874 103.779069 
L 359.607363 107.727173 
L 359.886852 103.097935 
L 360.725319 103.558604 
L 361.004808 98.404825 
L 361.284298 98.245829 
L 361.843276 102.437282 
L 362.681743 101.368586 
L 362.961232 103.832638 
L 363.240721 102.909829 
L 363.799699 103.005188 
L 364.638167 105.290688 
L 364.917656 105.56761 
L 365.197145 106.716523 
L 365.476634 101.501643 
L 365.756123 99.857514 
L 366.594591 102.501454 
L 367.153569 107.662726 
L 367.433058 108.154612 
L 367.712547 107.78788 
L 368.551014 107.169789 
L 368.830503 106.466301 
L 369.109992 101.865911 
L 369.389482 102.137487 
L 369.668971 103.601996 
L 370.507438 105.567088 
L 370.786927 104.378651 
L 371.066416 111.703872 
L 371.345905 108.982897 
L 371.625394 110.578318 
L 372.743351 109.919405 
L 373.02284 109.922883 
L 373.302329 110.622687 
L 373.581818 112.131166 
L 373.581818 112.131166 
" clip-path="url(#p2c49efb22e)" style="fill: none; stroke: #000000; stroke-width: 2; stroke-linecap: square"/>
   </g>
   <g id="line2d_33">
    <path d="M 54 113.948875 
L 388.8 113.948875 
" clip-path="url(#p2c49efb22e)" style="fill: none; stroke-dasharray: 5.55,2.4; stroke-dashoffset: 0; stroke: #000000; stroke-width: 1.5"/>
   </g>
   <g id="patch_3">
    <path d="M 54 201.6 
L 54 30.24 
" style="fill: none; stroke: #000000; stroke-width: 0.8; stroke-linejoin: miter; stroke-linecap: square"/>
   </g>
   <g id="patch_4">
    <path d="M 54 201.6 
L 388.8 201.6 
" style="fill: none; stroke: #000000; stroke-width: 0.8; stroke-linejoin: miter; stroke-linecap: square"/>
   </g>
   <g id="text_17">
    <!-- MA Crossover -->
    <g transform="translate(172.184625 24.24) scale(0.144 -0.144)">
     <defs>
      <path id="DejaVuSans-4d" d="M 628 4666 
L 1569 4666 
L 2759 1491 
L 3956 4666 
L 4897 4666 
L 4897 0 
L 4281 0 
L 4281 4097 
L 3078 897 
L 2444 897 
L 1241 4097 
L 1241 0 
L 628 0 
L 628 4666 
z
" transform="scale(0.015625)"/>
      <path id="DejaVuSans-41" d="M 2188 4044 
L 1331 1722 
L 3047 1722 
L 2188 4044 
z
M 1831 4666 
L 2547 4666 
L 4325 0 
L 3669 0 
L 3244 1197 
L 1141 1197 
L 716 0 
L 50 0 
L 1831 4666 
z
" transform="scale(0.015625)"/>
      <path id="DejaVuSans-20" transform="scale(0.015625)"/>
      <path id="DejaVuSans-43" d="M 4122 4306 
L 4122 3641 
Q 3803 3938 3442 4084 
Q 3081 4231 2675 4231 
Q 1875 4231 1450 3742 
Q 1025 3253 1025 2328 
Q 1025 1406 1450 917 
Q 1875 428 2675 428 
Q 3081 428 3442 575 
Q 3803 722 4122 1019 
L 4122 359 
Q 3791 134 3420 21 
Q 3050 -91 2638 -91 
Q 1578 -91 968 557 
Q 359 1206 359 2328 
Q 359 3453 968 4101 
Q 1578 4750 2638 4750 
Q 3056 4750 3426 4639 
Q 3797 4528 4122 4306 
z
" transform="scale(0.015625)"/>
      <path id="DejaVuSans-72" d="M 2631 2963 
Q 2534 3019 2420 3045 
Q 2306 3072 2169 3072 
Q 1681 3072 1420 2755 
Q 1159 2438 1159 1844 
L 1159 0 
L 581 0 
L 581 3500 
L 1159 3500 
L 1159 2956 
Q 1341 3275 1631 3429 
Q 1922 3584 2338 3584 
Q 2397 3584 2469 3576 
Q 2541 3569 2628 3553 
L 2631 2963 
z
" transform="scale(0.015625)"/>
      <path id="DejaVuSans-6f" d="M 1959 3097 
Q 1497 3097 1228 2736 
Q 959 2375 959 1747 
Q 959 1119 1226 758 
Q 1494 397 1959 397 
Q 2419 397 2687 759 
Q 2956 1122 2956 1747 
Q 2956 2369 2687 2733 
Q 2419 3097 1959 3097 
z
M 1959 3584 
Q 2709 3584 3137 3096 
Q 3566 2609 3566 1747 
Q 3566 888 3137 398 
Q 2709 -91 1959 -91 
Q 1206 -91 779 398 
Q 353 888 353 1747 
Q 353 2609 779 3096 
Q 1206 3584 1959 3584 
z
" transform="scale(0.015625)"/>
      <path id="DejaVuSans-73" d="M 2834 3397 
L 2834 2853 
Q 2591 2978 2328 3040 
Q 2066 3103 1784 3103 
Q 1356 3103 1142 2972 
Q 928 2841 928 2578 
Q 928 2378 1081 2264 
Q 1234 2150 1697 2047 
L 1894 2003 
Q 2506 1872 2764 1633 
Q 3022 1394 3022 966 
Q 3022 478 2636 193 
Q 2250 -91 1575 -91 
Q 1294 -91 989 -36 
Q 684 19 347 128 
L 347 722 
Q 666 556 975 473 
Q 1284 391 1588 391 
Q 1994 391 2212 530 
Q 2431 669 2431 922 
Q 2431 1156 2273 1281 
Q 2116 1406 1581 1522 
L 1381 1569 
Q 847 1681 609 1914 
Q 372 2147 372 2553 
Q 372 3047 722 3315 
Q 1072 3584 1716 3584 
Q 2034 3584 2315 3537 
Q 2597 3491 2834 3397 
z
" transform="scale(0.015625)"/>
      <path id="DejaVuSans-76" d="M 191 3500 
L 800 3500 
L 1894 563 
L 2988 3500 
L 3597 3500 
L 2284 0 
L 1503 0 
L 191 3500 
z
" transform="scale(0.015625)"/>
     </defs>
     <use xlink:href="#DejaVuSans-4d"/>
     <use xlink:href="#DejaVuSans-41" x="86.279297"/>
     <use xlink:href="#DejaVuSans-20" x="154.6875"/>
     <use xlink:href="#DejaVuSans-43" x="186.474609"/>
     <use xlink:href="#DejaVuSans-72" x="256.298828"/>
     <use xlink:href="#DejaVuSans-6f" x="295.162109"/>
     <use xlink:href="#DejaVuSans-73" x="356.34375"/>
     <use xlink:href="#DejaVuSans-73" x="408.443359"/>
     <use xlink:href="#DejaVuSans-6f" x="460.542969"/>
     <use xlink:href="#DejaVuSans-76" x="521.724609"/>
     <use xlink:href="#DejaVuSans-65" x="580.904297"/>
     <use xlink:href="#DejaVuSans-72" x="642.427734"/>
    </g>
   </g>
  </g>
 </g>
 <defs>
  <clipPath id="p2c49efb22e">
   <rect x="54" y="30.24" width="334.8" height="171.36"/>
  </clipPath>
 </defs>
</svg>
