<?xml version="1.0" encoding="utf-8" standalone="no"?>
<!DOCTYPE svg PUBLIC "-//W3C//DTD SVG 1.1//EN"
  "http://www.w3.org/Graphics/SVG/1.1/DTD/svg11.dtd">
<svg xmlns:xlink="http://www.w3.org/1999/xlink" width="432pt" height="252pt" viewBox="0 0 432 252" xmlns="http://www.w3.org/2000/svg" version="1.1">
 <metadata>
  <rdf:RDF xmlns:dc="http://purl.org/dc/elements/1.1/" xmlns:cc="http://creativecommons.org/ns#" xmlns:rdf="http://www.w3.org/1999/02/22-rdf-syntax-ns#">
   <cc:Work>
    <dc:type rdf:resource="http://purl.org/dc/dcmitype/StillImage"/>
    <dc:date>2024-07-17T20:14:58.339630</dc:date>
    <dc:format>image/svg+xml</dc:format>
    <dc:creator>
     <cc:Agent>
      <dc:title>Matplotlib v3.8.2, https://matplotlib.org/</dc:title>
     </cc:Agent>
    </dc:creator>
   </cc:Work>
  </rdf:RDF>
 </metadata>
 <defs>
  <style type="text/css">*{stroke-linejoin: round; stroke-linecap: butt}</style>
 </defs>
 <g id="figure_1">
  <g id="patch_1">
   <path d="M 0 252 
L 432 252 
L 432 0 
L 0 0 
z
" style="fill: #ffffff"/>
  </g>
  <g id="axes_1">
   <g id="patch_2">
    <path d="M 54 201.6 
L 388.8 201.6 
L 388.8 30.24 
L 54 30.24 
z
" style="fill: #ffffff"/>
   </g>
   <g id="matplotlib.axis_1">
    <g id="xtick_1">
     <g id="line2d_1">
      <path d="M 96.917943 201.6 
L 96.917943 30.24 
" clip-path="url(#pe763f0d83d)" style="fill: none; stroke: #b0b0b0; stroke-opacity: 0.3; stroke-width: 0.8; stroke-linecap: square"/>
     </g>
     <g id="line2d_2">
      <defs>
       <path id="mbadbac4b49" d="M 0 0 
L 0 3.5 
" style="stroke: #000000; stroke-width: 0.8"/>
      </defs>
      <g>
       <use xlink:href="#mbadbac4b49" x="96.917943" y="201.6" style="stroke: #000000; stroke-width: 0.8"/>
      </g>
     </g>
     <g id="text_1">
      <!-- 2020 -->
      <g transform="translate(69.221714 231.766528) rotate(-30) scale(0.12 -0.12)">
       <defs>
        <path id="DejaVuSans-32" d="M 1228 531 
L 3431 531 
L 3431 0 
L 469 0 
L 469 531 
Q 828 903 1448 1529 
Q 2069 2156 2228 2338 
Q 2531 2678 2651 2914 
Q 2772 3150 2772 3378 
Q 2772 3750 2511 3984 
Q 2250 4219 1831 4219 
Q 1534 4219 1204 4116 
Q 875 4013 500 3803 
L 500 4441 
Q 881 4594 1212 4672 
Q 1544 4750 1819 4750 
Q 2544 4750 2975 4387 
Q 3406 4025 3406 3419 
Q 3406 3131 3298 2873 
Q 3191 2616 2906 2266 
Q 2828 2175 2409 1742 
Q 1991 1309 1228 531 
z
" transform="scale(0.015625)"/>
        <path id="DejaVuSans-30" d="M 2034 4250 
Q 1547 4250 1301 3770 
Q 1056 3291 1056 2328 
Q 1056 1369 1301 889 
Q 1547 409 2034 409 
Q 2525 409 2770 889 
Q 3016 1369 3016 2328 
Q 3016 3291 2770 3770 
Q 2525 4250 2034 4250 
z
M 2034 4750 
Q 2819 4750 3233 4129 
Q 3647 3509 3647 2328 
Q 3647 1150 3233 529 
Q 2819 -91 2034 -91 
Q 1250 -91 836 529 
Q 422 1150 422 2328 
Q 422 3509 836 4129 
Q 1250 4750 2034 4750 
z
" transform="scale(0.015625)"/>
       </defs>
       <use xlink:href="#DejaVuSans-32"/>
       <use xlink:href="#DejaVuSans-30" x="63.623047"/>
       <use xlink:href="#DejaVuSans-32" x="127.246094"/>
       <use xlink:href="#DejaVuSans-30" x="190.869141"/>
      </g>
     </g>
    </g>
    <g id="xtick_2">
     <g id="line2d_3">
      <path d="M 157.990909 201.6 
L 157.990909 30.24 
" clip-path="url(#pe763f0d83d)" style="fill: none; stroke: #b0b0b0; stroke-opacity: 0.3; stroke-width: 0.8; stroke-linecap: square"/>
     </g>
     <g id="line2d_4">
      <g>
       <use xlink:href="#mbadbac4b49" x="157.990909" y="201.6" style="stroke: #000000; stroke-width: 0.8"/>
      </g>
     </g>
     <g id="text_2">
      <!-- 2021 -->
      <g transform="translate(130.294681 231.766528) rotate(-30) scale(0.12 -0.12)">
       <defs>
        <path id="DejaVuSans-31" d="M 794 531 
L 1825 531 
L 1825 4091 
L 703 3866 
L 703 4441 
L 1819 4666 
L 2450 4666 
L 2450 531 
L 3481 531 
L 3481 0 
L 794 0 
L 794 531 
z
" transform="scale(0.015625)"/>
       </defs>
       <use xlink:href="#DejaVuSans-32"/>
       <use xlink:href="#DejaVuSans-30" x="63.623047"/>
       <use xlink:href="#DejaVuSans-32" x="127.246094"/>
       <use xlink:href="#DejaVuSans-31" x="190.869141"/>
      </g>
     </g>
    </g>
    <g id="xtick_3">
     <g id="line2d_5">
      <path d="M 218.89701 201.6 
L 218.89701 30.24 
" clip-path="url(#pe763f0d83d)" style="fill: none; stroke: #b0b0b0; stroke-opacity: 0.3; stroke-width: 0.8; stroke-linecap: square"/>
     </g>
     <g id="line2d_6">
      <g>
       <use xlink:href="#mbadbac4b49" x="218.89701" y="201.6" style="stroke: #000000; stroke-width: 0.8"/>
      </g>
     </g>
     <g id="text_3">
      <!-- 2022 -->
      <g transform="translate(191.200781 231.766528) rotate(-30) scale(0.12 -0.12)">
       <use xlink:href="#DejaVuSans-32"/>
       <use xlink:href="#DejaVuSans-30" x="63.623047"/>
       <use xlink:href="#DejaVuSans-32" x="127.246094"/>
       <use xlink:href="#DejaVuSans-32" x="190.869141"/>
      </g>
     </g>
    </g>
    <g id="xtick_4">
     <g id="line2d_7">
      <path d="M 279.80311 201.6 
L 279.80311 30.24 
" clip-path="url(#pe763f0d83d)" style="fill: none; stroke: #b0b0b0; stroke-opacity: 0.3; stroke-width: 0.8; stroke-linecap: square"/>
     </g>
     <g id="line2d_8">
      <g>
       <use xlink:href="#mbadbac4b49" x="279.80311" y="201.6" style="stroke: #000000; stroke-width: 0.8"/>
      </g>
     </g>
     <g id="text_4">
      <!-- 2023 -->
      <g transform="translate(252.106882 231.766528) rotate(-30) scale(0.12 -0.12)">
       <defs>
        <path id="DejaVuSans-33" d="M 2597 2516 
Q 3050 2419 3304 2112 
Q 3559 1806 3559 1356 
Q 3559 666 3084 287 
Q 2609 -91 1734 -91 
Q 1441 -91 1130 -33 
Q 819 25 488 141 
L 488 750 
Q 750 597 1062 519 
Q 1375 441 1716 441 
Q 2309 441 2620 675 
Q 2931 909 2931 1356 
Q 2931 1769 2642 2001 
Q 2353 2234 1838 2234 
L 1294 2234 
L 1294 2753 
L 1863 2753 
Q 2328 2753 2575 2939 
Q 2822 3125 2822 3475 
Q 2822 3834 2567 4026 
Q 2313 4219 1838 4219 
Q 1578 4219 1281 4162 
Q 984 4106 628 3988 
L 628 4550 
Q 988 4650 1302 4700 
Q 1616 4750 1894 4750 
Q 2613 4750 3031 4423 
Q 3450 4097 3450 3541 
Q 3450 3153 3228 2886 
Q 3006 2619 2597 2516 
z
" transform="scale(0.015625)"/>
       </defs>
       <use xlink:href="#DejaVuSans-32"/>
       <use xlink:href="#DejaVuSans-30" x="63.623047"/>
       <use xlink:href="#DejaVuSans-32" x="127.246094"/>
       <use xlink:href="#DejaVuSans-33" x="190.869141"/>
      </g>
     </g>
    </g>
    <g id="xtick_5">
     <g id="line2d_9">
      <path d="M 340.709211 201.6 
L 340.709211 30.24 
" clip-path="url(#pe763f0d83d)" style="fill: none; stroke: #b0b0b0; stroke-opacity: 0.3; stroke-width: 0.8; stroke-linecap: square"/>
     </g>
     <g id="line2d_10">
      <g>
       <use xlink:href="#mbadbac4b49" x="340.709211" y="201.6" style="stroke: #000000; stroke-width: 0.8"/>
      </g>
     </g>
     <g id="text_5">
      <!-- 2024 -->
      <g transform="translate(313.012982 231.766528) rotate(-30) scale(0.12 -0.12)">
       <defs>
        <path id="DejaVuSans-34" d="M 2419 4116 
L 825 1625 
L 2419 1625 
L 2419 4116 
z
M 2253 4666 
L 3047 4666 
L 3047 1625 
L 3713 1625 
L 3713 1100 
L 3047 1100 
L 3047 0 
L 2419 0 
L 2419 1100 
L 313 1100 
L 313 1709 
L 2253 4666 
z
" transform="scale(0.015625)"/>
       </defs>
       <use xlink:href="#DejaVuSans-32"/>
       <use xlink:href="#DejaVuSans-30" x="63.623047"/>
       <use xlink:href="#DejaVuSans-32" x="127.246094"/>
       <use xlink:href="#DejaVuSans-34" x="190.869141"/>
      </g>
     </g>
    </g>
    <g id="text_6">
     <!-- Date -->
     <g transform="translate(207.059063 247.045928) scale(0.12 -0.12)">
      <defs>
       <path id="DejaVuSans-44" d="M 1259 4147 
L 1259 519 
L 2022 519 
Q 2988 519 3436 956 
Q 3884 1394 3884 2338 
Q 3884 3275 3436 3711 
Q 2988 4147 2022 4147 
L 1259 4147 
z
M 628 4666 
L 1925 4666 
Q 3281 4666 3915 4102 
Q 4550 3538 4550 2338 
Q 4550 1131 3912 565 
Q 3275 0 1925 0 
L 628 0 
L 628 4666 
z
" transform="scale(0.015625)"/>
       <path id="DejaVuSans-61" d="M 2194 1759 
Q 1497 1759 1228 1600 
Q 959 1441 959 1056 
Q 959 750 1161 570 
Q 1363 391 1709 391 
Q 2188 391 2477 730 
Q 2766 1069 2766 1631 
L 2766 1759 
L 2194 1759 
z
M 3341 1997 
L 3341 0 
L 2766 0 
L 2766 531 
Q 2569 213 2275 61 
Q 1981 -91 1556 -91 
Q 1019 -91 701 211 
Q 384 513 384 1019 
Q 384 1609 779 1909 
Q 1175 2209 1959 2209 
L 2766 2209 
L 2766 2266 
Q 2766 2663 2505 2880 
Q 2244 3097 1772 3097 
Q 1472 3097 1187 3025 
Q 903 2953 641 2809 
L 641 3341 
Q 956 3463 1253 3523 
Q 1550 3584 1831 3584 
Q 2591 3584 2966 3190 
Q 3341 2797 3341 1997 
z
" transform="scale(0.015625)"/>
       <path id="DejaVuSans-74" d="M 1172 4494 
L 1172 3500 
L 2356 3500 
L 2356 3053 
L 1172 3053 
L 1172 1153 
Q 1172 725 1289 603 
Q 1406 481 1766 481 
L 2356 481 
L 2356 0 
L 1766 0 
Q 1100 0 847 248 
Q 594 497 594 1153 
L 594 3053 
L 172 3053 
L 172 3500 
L 594 3500 
L 594 4494 
L 1172 4494 
z
" transform="scale(0.015625)"/>
       <path id="DejaVuSans-65" d="M 3597 1894 
L 3597 1613 
L 953 1613 
Q 991 1019 1311 708 
Q 1631 397 2203 397 
Q 2534 397 2845 478 
Q 3156 559 3463 722 
L 3463 178 
Q 3153 47 2828 -22 
Q 2503 -91 2169 -91 
Q 1331 -91 842 396 
Q 353 884 353 1716 
Q 353 2575 817 3079 
Q 1281 3584 2069 3584 
Q 2775 3584 3186 3129 
Q 3597 2675 3597 1894 
z
M 3022 2063 
Q 3016 2534 2758 2815 
Q 2500 3097 2075 3097 
Q 1594 3097 1305 2825 
Q 1016 2553 972 2059 
L 3022 2063 
z
" transform="scale(0.015625)"/>
      </defs>
      <use xlink:href="#DejaVuSans-44"/>
      <use xlink:href="#DejaVuSans-61" x="77.001953"/>
      <use xlink:href="#DejaVuSans-74" x="138.28125"/>
      <use xlink:href="#DejaVuSans-65" x="177.490234"/>
     </g>
    </g>
   </g>
   <g id="matplotlib.axis_2">
    <g id="ytick_1">
     <g id="line2d_11">
      <path d="M 54 178.712695 
L 388.8 178.712695 
" clip-path="url(#pe763f0d83d)" style="fill: none; stroke: #b0b0b0; stroke-opacity: 0.3; stroke-width: 0.8; stroke-linecap: square"/>
     </g>
     <g id="line2d_12">
      <defs>
       <path id="m04c29432a7" d="M 0 0 
L -3.5 0 
" style="stroke: #000000; stroke-width: 0.8"/>
      </defs>
      <g>
       <use xlink:href="#m04c29432a7" x="54" y="178.712695" style="stroke: #000000; stroke-width: 0.8"/>
      </g>
     </g>
     <g id="text_7">
      <!-- −0.04 -->
      <g transform="translate(10.225625 183.271757) scale(0.12 -0.12)">
       <defs>
        <path id="DejaVuSans-2212" d="M 678 2272 
L 4684 2272 
L 4684 1741 
L 678 1741 
L 678 2272 
z
" transform="scale(0.015625)"/>
        <path id="DejaVuSans-2e" d="M 684 794 
L 1344 794 
L 1344 0 
L 684 0 
L 684 794 
z
" transform="scale(0.015625)"/>
       </defs>
       <use xlink:href="#DejaVuSans-2212"/>
       <use xlink:href="#DejaVuSans-30" x="83.789062"/>
       <use xlink:href="#DejaVuSans-2e" x="147.412109"/>
       <use xlink:href="#DejaVuSans-30" x="179.199219"/>
       <use xlink:href="#DejaVuSans-34" x="242.822266"/>
      </g>
     </g>
    </g>
    <g id="ytick_2">
     <g id="line2d_13">
      <path d="M 54 145.718762 
L 388.8 145.718762 
" clip-path="url(#pe763f0d83d)" style="fill: none; stroke: #b0b0b0; stroke-opacity: 0.3; stroke-width: 0.8; stroke-linecap: square"/>
     </g>
     <g id="line2d_14">
      <g>
       <use xlink:href="#m04c29432a7" x="54" y="145.718762" style="stroke: #000000; stroke-width: 0.8"/>
      </g>
     </g>
     <g id="text_8">
      <!-- −0.02 -->
      <g transform="translate(10.225625 150.277825) scale(0.12 -0.12)">
       <use xlink:href="#DejaVuSans-2212"/>
       <use xlink:href="#DejaVuSans-30" x="83.789062"/>
       <use xlink:href="#DejaVuSans-2e" x="147.412109"/>
       <use xlink:href="#DejaVuSans-30" x="179.199219"/>
       <use xlink:href="#DejaVuSans-32" x="242.822266"/>
      </g>
     </g>
    </g>
    <g id="ytick_3">
     <g id="line2d_15">
      <path d="M 54 112.72483 
L 388.8 112.72483 
" clip-path="url(#pe763f0d83d)" style="fill: none; stroke: #b0b0b0; stroke-opacity: 0.3; stroke-width: 0.8; stroke-linecap: square"/>
     </g>
     <g id="line2d_16">
      <g>
       <use xlink:href="#m04c29432a7" x="54" y="112.72483" style="stroke: #000000; stroke-width: 0.8"/>
      </g>
     </g>
     <g id="text_9">
      <!-- 0.00 -->
      <g transform="translate(20.28125 117.283893) scale(0.12 -0.12)">
       <use xlink:href="#DejaVuSans-30"/>
       <use xlink:href="#DejaVuSans-2e" x="63.623047"/>
       <use xlink:href="#DejaVuSans-30" x="95.410156"/>
       <use xlink:href="#DejaVuSans-30" x="159.033203"/>
      </g>
     </g>
    </g>
    <g id="ytick_4">
     <g id="line2d_17">
      <path d="M 54 79.730898 
L 388.8 79.730898 
" clip-path="url(#pe763f0d83d)" style="fill: none; stroke: #b0b0b0; stroke-opacity: 0.3; stroke-width: 0.8; stroke-linecap: square"/>
     </g>
     <g id="line2d_18">
      <g>
       <use xlink:href="#m04c29432a7" x="54" y="79.730898" style="stroke: #000000; stroke-width: 0.8"/>
      </g>
     </g>
     <g id="text_10">
      <!-- 0.02 -->
      <g transform="translate(20.28125 84.289961) scale(0.12 -0.12)">
       <use xlink:href="#DejaVuSans-30"/>
       <use xlink:href="#DejaVuSans-2e" x="63.623047"/>
       <use xlink:href="#DejaVuSans-30" x="95.410156"/>
       <use xlink:href="#DejaVuSans-32" x="159.033203"/>
      </g>
     </g>
    </g>
    <g id="ytick_5">
     <g id="line2d_19">
      <path d="M 54 46.736966 
L 388.8 46.736966 
" clip-path="url(#pe763f0d83d)" style="fill: none; stroke: #b0b0b0; stroke-opacity: 0.3; stroke-width: 0.8; stroke-linecap: square"/>
     </g>
     <g id="line2d_20">
      <g>
       <use xlink:href="#m04c29432a7" x="54" y="46.736966" style="stroke: #000000; stroke-width: 0.8"/>
      </g>
     </g>
     <g id="text_11">
      <!-- 0.04 -->
      <g transform="translate(20.28125 51.296029) scale(0.12 -0.12)">
       <use xlink:href="#DejaVuSans-30"/>
       <use xlink:href="#DejaVuSans-2e" x="63.623047"/>
       <use xlink:href="#DejaVuSans-30" x="95.410156"/>
       <use xlink:href="#DejaVuSans-34" x="159.033203"/>
      </g>
     </g>
    </g>
   </g>
   <g id="line2d_21">
    <path d="M 69.71878 111.649504 
L 69.885646 110.68065 
L 70.219378 112.279437 
L 70.386244 112.011129 
L 70.886842 111.90717 
L 71.053708 112.130323 
L 71.38744 115.789864 
L 71.554306 116.094067 
L 72.054904 120.53631 
L 72.22177 117.75521 
L 72.388636 117.394456 
L 72.555502 114.573382 
L 72.722368 114.956079 
L 73.222967 117.118124 
L 73.389833 114.306582 
L 73.556699 119.173407 
L 73.723565 117.881281 
L 73.890431 115.388146 
L 74.391029 113.529985 
L 74.557895 114.543658 
L 74.724761 112.834933 
L 74.891627 112.512213 
L 75.058493 116.450557 
L 75.559091 114.340482 
L 75.725957 114.949214 
L 76.059689 110.972881 
L 76.226555 110.891318 
L 76.894019 112.856995 
L 77.394617 109.079062 
L 77.895215 109.209397 
L 78.062081 109.106521 
L 78.228947 108.072977 
L 78.562679 108.483404 
L 79.063278 109.77241 
L 79.39701 109.92628 
L 79.563876 110.523896 
L 79.730742 111.716462 
L 80.23134 111.725918 
L 80.398206 112.696384 
L 80.565072 111.696529 
L 80.898804 112.764814 
L 81.399402 112.166758 
L 81.733134 117.238569 
L 81.9 116.012783 
L 82.066866 113.337482 
L 82.567464 113.870322 
L 82.73433 115.712006 
L 83.234928 111.132239 
L 83.735526 111.471315 
L 83.902392 110.134395 
L 84.069258 110.53274 
L 84.236124 110.605931 
L 84.40299 112.378527 
L 84.903589 112.059187 
L 85.070455 112.368892 
L 85.237321 112.122127 
L 85.404187 112.357118 
L 85.571053 111.455171 
L 86.071651 110.770325 
L 86.238517 111.083304 
L 86.405383 110.545016 
L 86.572249 111.615313 
L 86.739115 109.889509 
L 87.239713 109.480826 
L 87.406579 109.621887 
L 87.573445 109.932602 
L 87.740311 109.11829 
L 87.907177 109.440555 
L 88.407775 109.707896 
L 88.574641 110.00959 
L 88.741507 109.732436 
L 88.908373 110.041354 
L 89.075239 108.98594 
L 89.575837 109.175272 
L 90.076435 111.549487 
L 90.243301 111.017452 
L 90.7439 110.058728 
L 91.077632 110.024963 
L 91.411364 110.954442 
L 91.911962 112.709758 
L 92.078828 114.37521 
L 92.245694 113.328605 
L 92.41256 113.101108 
L 92.579426 111.053229 
L 93.24689 112.094539 
L 93.413756 111.98255 
L 93.580622 110.752036 
L 93.747488 110.929788 
L 94.248086 110.519959 
L 94.414952 110.55775 
L 94.581818 110.937168 
L 94.91555 110.098739 
L 95.416148 109.802233 
L 95.583014 110.302962 
L 95.916746 109.932257 
L 96.083612 110.073931 
L 96.584211 111.393619 
L 96.751077 111.084497 
L 97.084809 109.338847 
L 97.251675 111.014173 
L 97.752273 110.7906 
L 97.919139 111.671986 
L 98.252871 109.818023 
L 98.419737 110.867155 
L 99.254067 110.300783 
L 99.420933 109.023523 
L 99.587799 109.109523 
L 100.588995 110.97928 
L 100.755861 112.117626 
L 101.256459 114.761492 
L 101.423325 113.476462 
L 101.590191 113.334674 
L 101.757057 112.5561 
L 101.923923 116.022255 
L 102.424522 114.853069 
L 102.758254 109.549436 
L 102.92512 109.366167 
L 103.091986 111.25887 
L 103.592584 110.417377 
L 103.75945 110.650827 
L 103.926316 109.308175 
L 104.260048 110.742451 
L 104.927512 111.871594 
L 105.094378 111.303183 
L 105.42811 113.505916 
L 105.928708 119.29777 
L 106.095574 123.829201 
L 106.26244 123.472726 
L 106.429306 129.686073 
L 106.596172 130.277417 
L 107.09677 120.121154 
L 107.263636 124.236772 
L 107.430502 115.616327 
L 107.597368 121.23143 
L 107.764234 122.000702 
L 108.264833 133.917195 
L 108.431699 123.725235 
L 108.598565 132.285004 
L 108.765431 146.806887 
L 108.932297 127.952682 
L 109.432895 147.754777 
L 109.599761 135.681066 
L 109.766627 143.782454 
L 109.933493 139.115861 
L 110.100359 143.97666 
L 110.600957 145.859336 
L 110.767823 123.79702 
L 110.934689 118.740711 
L 111.101555 107.621646 
L 111.268421 114.828064 
L 111.769019 109.351497 
L 111.935885 112.720536 
L 112.102751 120.049594 
L 112.269617 115.615532 
L 112.436483 118.106921 
L 112.937081 104.815778 
L 113.103947 105.796748 
L 113.270813 100.811561 
L 113.437679 99.990889 
L 114.105144 103.549716 
L 114.27201 100.524801 
L 114.438876 104.812857 
L 114.605742 105.370122 
L 114.772608 101.165757 
L 115.273206 106.350553 
L 115.440072 111.393321 
L 115.606938 108.251715 
L 115.773804 108.421873 
L 115.94067 107.028087 
L 116.441268 105.110165 
L 116.608134 106.091944 
L 116.775 103.111691 
L 116.941866 106.00264 
L 117.108732 110.889812 
L 117.60933 110.892029 
L 117.776196 110.149177 
L 117.943062 111.91566 
L 118.109928 110.523923 
L 118.276794 107.597235 
L 118.777392 108.851267 
L 119.111124 115.977365 
L 119.27799 112.974261 
L 119.444856 112.529794 
L 119.945455 106.197539 
L 120.112321 109.469341 
L 120.279187 107.279884 
L 120.612919 108.989712 
L 121.280383 105.789747 
L 121.447249 102.832357 
L 121.780981 105.683725 
L 122.281579 105.790495 
L 122.448445 104.750825 
L 122.615311 102.169451 
L 122.782177 103.150071 
L 122.949043 98.902952 
L 123.449641 97.477167 
L 123.783373 103.698111 
L 123.950239 115.980699 
L 124.117105 112.521117 
L 124.617703 111.525985 
L 124.784569 108.272474 
L 125.285167 111.889351 
L 125.785766 110.994105 
L 125.952632 110.335894 
L 126.119498 115.053852 
L 126.286364 112.878211 
L 126.45323 117.540802 
L 127.120694 111.782738 
L 127.28756 112.374869 
L 127.454426 111.817614 
L 128.12189 108.97224 
L 128.288756 111.838013 
L 128.455622 110.798231 
L 128.622488 113.276722 
L 128.789354 110.852115 
L 129.289952 110.972957 
L 129.456818 107.626939 
L 129.623684 106.727997 
L 129.957416 109.002771 
L 130.458014 109.319805 
L 130.791746 108.062166 
L 131.125478 112.020847 
L 131.626077 111.375272 
L 131.792943 112.78538 
L 131.959809 111.77691 
L 132.126675 113.276018 
L 132.293541 112.501992 
L 132.794139 111.050628 
L 132.961005 110.202966 
L 133.127871 108.161248 
L 133.294737 107.492843 
L 133.461603 107.735942 
L 133.962201 106.082259 
L 134.129067 107.367005 
L 134.295933 106.175269 
L 134.462799 107.302665 
L 135.130263 108.658917 
L 135.463995 110.29377 
L 135.630861 110.257786 
L 135.797727 109.370982 
L 136.298325 107.472953 
L 136.465191 108.347912 
L 136.632057 108.298084 
L 136.965789 107.363195 
L 137.466388 109.187963 
L 137.633254 108.29054 
L 137.80012 106.114557 
L 137.966986 111.354802 
L 138.801316 116.160121 
L 138.968182 113.179682 
L 139.135048 115.530704 
L 139.301914 114.464889 
L 139.802512 112.336874 
L 139.969378 112.362292 
L 140.136244 112.181812 
L 140.30311 113.003514 
L 140.469976 114.4216 
L 140.970574 117.292276 
L 141.13744 115.98187 
L 141.304306 118.830336 
L 141.471172 117.897344 
L 141.638038 115.174463 
L 142.138636 112.439835 
L 142.305502 113.254187 
L 142.472368 111.223971 
L 142.639234 111.165036 
L 142.8061 112.116244 
L 143.306699 109.40109 
L 143.473565 111.93637 
L 143.640431 108.862868 
L 144.474761 107.043985 
L 144.808493 109.889089 
L 144.975359 110.287217 
L 145.142225 109.881908 
L 145.642823 112.535761 
L 145.809689 111.891347 
L 145.976555 112.545616 
L 146.143421 111.669768 
L 146.310287 111.938652 
L 146.977751 116.818861 
L 147.144617 122.075441 
L 147.311483 120.274723 
L 147.478349 120.494424 
L 147.978947 117.081533 
L 148.479545 107.946405 
L 148.646411 108.812293 
L 149.313876 103.693101 
L 149.480742 104.726866 
L 149.647608 107.308142 
L 149.814474 105.582682 
L 150.315072 103.663241 
L 150.982536 110.001595 
L 151.483134 108.426038 
L 151.65 106.319485 
L 151.816866 107.914108 
L 152.150598 108.185879 
L 152.651196 110.138492 
L 152.818062 109.365851 
L 152.984928 109.370581 
L 153.151794 109.232744 
L 153.31866 108.212743 
L 153.819258 109.47449 
L 153.986124 109.228463 
L 154.319856 110.791356 
L 154.486722 110.72564 
L 154.987321 111.940314 
L 155.154187 110.152816 
L 155.321053 110.654582 
L 155.487919 110.047387 
L 155.654785 110.991921 
L 156.155383 110.96077 
L 156.322249 112.234228 
L 156.655981 111.378465 
L 157.323445 110.398186 
L 157.490311 111.001441 
L 157.657177 110.771956 
L 157.824043 109.898966 
L 158.491507 112.243722 
L 158.658373 111.376429 
L 158.992105 108.360854 
L 159.158971 108.495173 
L 159.659569 109.391755 
L 159.826435 109.405855 
L 159.993301 109.7814 
L 160.160167 110.441953 
L 160.327033 111.613806 
L 160.994498 111.10249 
L 161.161364 109.889413 
L 161.32823 110.238385 
L 161.495096 111.434377 
L 162.16256 111.979036 
L 162.329426 115.433684 
L 162.496292 113.528572 
L 162.663158 116.794343 
L 163.163756 115.125797 
L 163.330622 112.28889 
L 163.497488 112.13831 
L 163.664354 110.4129 
L 163.83122 110.153367 
L 164.331818 109.152542 
L 164.498684 109.561965 
L 164.66555 109.552422 
L 164.999282 110.043323 
L 165.666746 109.974018 
L 165.833612 109.776685 
L 166.000478 110.696039 
L 166.167344 110.893784 
L 166.834809 111.030696 
L 167.001675 108.979528 
L 167.335407 114.759053 
L 167.836005 111.338942 
L 168.169737 112.918324 
L 168.336603 114.724082 
L 168.503469 111.47188 
L 169.004067 109.993691 
L 169.170933 110.109629 
L 169.337799 107.965069 
L 169.504665 107.47785 
L 169.671531 106.51437 
L 170.172129 106.255575 
L 170.338995 107.540833 
L 170.505861 107.107286 
L 170.839593 110.03933 
L 171.340191 109.785941 
L 171.507057 111.632444 
L 171.673923 111.757404 
L 171.840789 110.839397 
L 172.007656 108.734917 
L 172.508254 108.642633 
L 172.841986 110.311689 
L 173.008852 109.694381 
L 173.676316 108.13651 
L 173.843182 109.072382 
L 174.010048 109.358572 
L 174.176914 109.412523 
L 174.34378 108.281195 
L 174.844378 108.994972 
L 175.011244 109.701022 
L 175.17811 109.740743 
L 175.344976 108.546981 
L 175.511842 108.166575 
L 176.01244 109.215894 
L 176.179306 110.80768 
L 176.346172 109.457998 
L 176.513038 111.337905 
L 176.679904 110.366308 
L 177.347368 111.068165 
L 177.514234 112.03259 
L 177.6811 110.931236 
L 177.847967 112.009103 
L 178.348565 110.919772 
L 178.515431 111.004526 
L 178.682297 110.706244 
L 179.016029 108.615063 
L 179.516627 109.191779 
L 179.850359 115.167934 
L 180.184091 111.037262 
L 180.684689 111.466749 
L 181.018421 113.658482 
L 181.352153 112.058454 
L 181.852751 111.227419 
L 182.019617 111.768168 
L 182.186483 111.812919 
L 182.353349 111.223574 
L 182.520215 111.063478 
L 183.354545 111.062326 
L 183.521411 111.339858 
L 183.688278 110.622663 
L 184.355742 111.705876 
L 184.522608 112.53574 
L 184.85634 112.425397 
L 185.356938 112.866094 
L 185.523804 113.304854 
L 186.024402 117.701177 
L 186.691866 113.804053 
L 186.858732 114.04283 
L 187.192464 111.235111 
L 187.693062 112.105451 
L 187.859928 112.123985 
L 188.19366 110.701516 
L 188.360526 110.175921 
L 189.02799 111.421872 
L 189.194856 111.053976 
L 189.361722 112.457129 
L 189.528589 110.335723 
L 190.029187 109.978437 
L 190.196053 110.759306 
L 190.362919 193.440689 
L 190.696651 179.286695 
L 191.197249 176.08234 
L 191.530981 160.273036 
L 191.864713 150.002284 
L 192.365311 145.885141 
L 193.032775 135.309208 
L 193.533373 133.51028 
L 193.700239 130.114181 
L 193.867105 129.896064 
L 194.200837 124.795889 
L 194.701435 124.088539 
L 195.202033 119.392459 
L 195.3689 118.653528 
L 195.869498 117.549613 
L 196.20323 119.594462 
L 196.370096 119.221624 
L 196.536962 117.503668 
L 197.371292 115.076768 
L 197.538158 115.737956 
L 197.705024 114.299714 
L 198.539354 114.472725 
L 198.70622 113.684587 
L 199.874282 115.630637 
L 200.041148 116.624932 
L 200.541746 114.986437 
L 200.708612 116.142025 
L 200.875478 114.670436 
L 201.042344 114.774736 
L 201.209211 115.359861 
L 201.709809 118.02709 
L 201.876675 117.742736 
L 202.377273 112.696882 
L 202.877871 112.361327 
L 203.044737 115.091458 
L 203.211603 114.418419 
L 203.378469 116.872018 
L 203.545335 114.105194 
L 204.045933 115.52206 
L 204.212799 113.72984 
L 204.379665 113.13743 
L 204.546531 111.476287 
L 204.713397 111.64239 
L 205.380861 113.480099 
L 205.547727 113.407116 
L 205.881459 109.161994 
L 206.382057 109.687245 
L 206.715789 108.720329 
L 206.882656 109.14978 
L 207.55012 109.224158 
L 207.716986 109.501621 
L 207.883852 111.052049 
L 208.050718 110.104723 
L 208.217584 109.955446 
L 208.718182 109.798171 
L 209.051914 109.300229 
L 209.21878 109.794849 
L 209.385646 109.157513 
L 209.886244 109.040742 
L 210.386842 112.157738 
L 210.553708 111.392016 
L 211.054306 111.584064 
L 211.221172 111.447766 
L 211.388038 112.539349 
L 211.554904 112.833833 
L 211.72177 114.05992 
L 212.222368 113.846386 
L 212.389234 112.833177 
L 212.5561 112.865734 
L 212.889833 117.02164 
L 213.390431 115.473548 
L 213.724163 119.916025 
L 213.891029 116.201495 
L 214.057895 116.138193 
L 214.558493 112.710481 
L 214.725359 110.405986 
L 214.892225 110.474745 
L 215.059091 110.700031 
L 215.225957 109.904518 
L 215.893421 112.255427 
L 216.060287 110.523605 
L 216.227153 110.880516 
L 216.394019 113.510703 
L 216.894617 115.453243 
L 217.228349 111.338365 
L 217.395215 110.569569 
L 218.062679 109.170666 
L 218.396411 109.044208 
L 218.730144 110.38292 
L 219.230742 109.496863 
L 219.397608 108.852029 
L 219.73134 111.944824 
L 219.898206 112.044723 
L 220.398804 112.853947 
L 220.56567 112.003355 
L 220.732536 111.901213 
L 221.066268 113.702507 
L 221.733732 116.100704 
L 222.23433 119.936023 
L 222.901794 118.456899 
L 223.06866 118.507251 
L 223.235526 117.964303 
L 223.402392 114.713348 
L 223.90299 112.583866 
L 224.236722 110.411163 
L 224.403589 113.041742 
L 224.570455 113.110692 
L 225.071053 113.065571 
L 225.404785 110.008222 
L 225.738517 115.066825 
L 226.239115 115.648924 
L 226.405981 113.33929 
L 226.572847 113.535137 
L 226.739713 116.392503 
L 226.906579 117.145261 
L 227.574043 119.039231 
L 227.740909 120.690347 
L 227.907775 119.43536 
L 228.074641 114.618594 
L 228.575239 115.233995 
L 228.742105 117.892095 
L 228.908971 114.420328 
L 229.075837 114.721427 
L 229.242703 115.399759 
L 229.743301 119.045724 
L 229.910167 119.342304 
L 230.077033 115.376325 
L 230.2439 115.66715 
L 230.410766 116.516076 
L 230.911364 116.131694 
L 231.245096 110.233215 
L 231.578828 107.574406 
L 232.079426 109.047988 
L 232.246292 108.200732 
L 232.413158 110.780984 
L 232.580024 109.29756 
L 232.74689 108.911639 
L 233.247488 108.845058 
L 233.414354 107.636473 
L 233.58122 108.450903 
L 233.748086 111.455993 
L 233.914952 110.917258 
L 234.41555 110.607109 
L 234.749282 112.891844 
L 235.083014 111.829269 
L 235.750478 114.187446 
L 235.917344 112.381719 
L 236.084211 112.957074 
L 236.751675 113.123187 
L 237.085407 109.712898 
L 237.252273 111.740838 
L 237.419139 116.49235 
L 237.919737 114.954076 
L 238.086603 118.652114 
L 238.253469 117.752923 
L 238.420335 114.206228 
L 238.587201 118.626269 
L 239.087799 117.614462 
L 239.254665 116.789736 
L 239.421531 111.740871 
L 239.588397 116.988184 
L 239.755263 117.054789 
L 240.255861 119.899537 
L 240.422727 119.616723 
L 240.589593 120.602994 
L 240.756459 120.353139 
L 240.923325 117.165646 
L 241.423923 116.584451 
L 241.590789 113.991089 
L 241.757656 119.747571 
L 241.924522 120.286574 
L 242.091388 119.484107 
L 243.092584 111.031992 
L 243.25945 108.290958 
L 243.926914 109.841198 
L 244.09378 111.014113 
L 244.260646 108.997956 
L 244.427512 111.10021 
L 244.92811 111.182042 
L 245.094976 110.011382 
L 245.261842 111.621372 
L 245.595574 119.208088 
L 246.096172 123.16342 
L 246.263038 122.940768 
L 246.429904 120.269196 
L 246.59677 123.503161 
L 246.763636 122.636397 
L 247.4311 118.104678 
L 247.597967 117.821306 
L 247.764833 116.260517 
L 247.931699 111.479487 
L 248.432297 111.930916 
L 248.599163 114.588206 
L 248.766029 113.963044 
L 248.932895 115.188995 
L 249.099761 113.21743 
L 249.767225 113.854844 
L 249.934091 113.369689 
L 250.100957 111.46154 
L 250.768421 112.78603 
L 251.269019 115.358594 
L 251.435885 111.55084 
L 251.936483 112.80527 
L 252.103349 108.791778 
L 252.270215 108.937373 
L 252.437081 108.47737 
L 252.603947 109.61072 
L 253.104545 109.45281 
L 253.271411 110.958365 
L 253.605144 107.55437 
L 253.77201 106.4714 
L 254.272608 107.331452 
L 254.439474 109.893929 
L 254.60634 108.056959 
L 254.773206 108.954515 
L 254.940072 108.945169 
L 255.44067 109.176941 
L 255.607536 109.823809 
L 255.774402 107.42049 
L 255.941268 107.816411 
L 256.108134 106.207168 
L 256.608732 106.119184 
L 256.775598 105.614342 
L 256.942464 107.154731 
L 257.10933 107.620858 
L 257.276196 109.549549 
L 257.94366 113.754213 
L 258.110526 113.35231 
L 258.277392 111.675604 
L 258.444258 116.777319 
L 258.944856 117.314413 
L 259.278589 119.322854 
L 259.445455 117.898736 
L 259.612321 119.142645 
L 260.279785 119.412877 
L 260.613517 115.05437 
L 260.780383 112.863089 
L 261.280981 111.671037 
L 261.447847 118.278999 
L 261.614713 117.563836 
L 261.948445 118.213437 
L 262.449043 116.608789 
L 262.615909 117.887391 
L 262.782775 120.178005 
L 262.949641 120.018043 
L 263.116507 121.955898 
L 263.617105 122.870346 
L 263.783971 122.565156 
L 263.950837 118.473962 
L 264.284569 122.496023 
L 264.785167 117.123351 
L 264.952033 112.06611 
L 265.1189 112.362979 
L 265.285766 114.28967 
L 265.452632 117.606833 
L 265.95323 117.647438 
L 266.286962 116.687432 
L 266.453828 111.615737 
L 266.620694 113.94477 
L 267.288158 109.105374 
L 267.62189 110.768646 
L 267.788756 106.89098 
L 268.289354 105.260833 
L 268.45622 104.241669 
L 268.623086 105.077705 
L 268.789952 104.836354 
L 268.956818 101.358368 
L 269.457416 103.141855 
L 269.624282 104.502082 
L 269.958014 109.11445 
L 270.12488 107.403292 
L 270.625478 105.777918 
L 270.792344 104.794971 
L 270.959211 108.806128 
L 271.126077 103.102167 
L 271.793541 105.81961 
L 271.960407 106.233581 
L 272.294139 107.676611 
L 272.461005 107.200997 
L 272.961603 107.975372 
L 273.128469 106.502909 
L 273.295335 106.660838 
L 273.629067 106.529232 
L 274.129665 109.538633 
L 274.296531 109.842291 
L 274.463397 106.537837 
L 274.630263 108.085409 
L 274.797129 108.382103 
L 275.297727 111.129601 
L 275.464593 112.993681 
L 275.631459 112.959037 
L 275.798325 112.034316 
L 275.965191 113.592913 
L 276.632656 110.581054 
L 276.799522 111.483631 
L 276.966388 115.31902 
L 277.133254 116.459563 
L 277.633852 116.902508 
L 277.800718 116.020413 
L 277.967584 113.045595 
L 278.13445 114.738468 
L 278.301316 113.655801 
L 278.96878 113.375744 
L 279.135646 115.126276 
L 279.302512 113.154476 
L 279.469378 113.47675 
L 280.136842 113.455707 
L 280.303708 112.718486 
L 280.470574 114.403489 
L 280.63744 110.726181 
L 281.138038 111.480154 
L 281.805502 108.681388 
L 282.472967 110.969802 
L 282.806699 115.241582 
L 282.973565 113.337792 
L 283.641029 111.578951 
L 283.807895 111.645222 
L 283.974761 110.748176 
L 284.141627 110.806526 
L 284.642225 112.265509 
L 284.809091 110.506257 
L 284.975957 110.694623 
L 285.142823 111.086455 
L 285.309689 111.870032 
L 285.810287 112.125655 
L 285.977153 110.892384 
L 286.310885 113.353901 
L 286.477751 112.461786 
L 286.978349 110.653463 
L 287.145215 111.615263 
L 287.312081 111.53855 
L 287.478947 113.741532 
L 287.645813 113.004204 
L 288.313278 116.375959 
L 288.480144 116.431616 
L 288.64701 115.51768 
L 288.813876 116.915215 
L 289.314474 116.13338 
L 289.48134 116.958179 
L 289.648206 116.508879 
L 289.981938 112.300055 
L 290.482536 112.142588 
L 290.649402 115.038089 
L 290.816268 115.098278 
L 291.15 118.873486 
L 291.650598 118.726496 
L 291.817464 116.382954 
L 291.98433 117.457909 
L 292.151196 115.059385 
L 292.318062 116.793346 
L 292.81866 114.405532 
L 292.985526 112.620641 
L 293.152392 115.31881 
L 293.486124 113.797941 
L 293.986722 112.695056 
L 294.153589 112.89046 
L 294.654187 108.785833 
L 295.154785 107.558502 
L 295.321651 109.051024 
L 295.488517 109.021617 
L 295.655383 109.379276 
L 296.489713 109.0834 
L 296.656579 109.635066 
L 296.823445 108.065252 
L 296.990311 109.225514 
L 297.490909 109.085159 
L 297.824641 110.20937 
L 297.991507 110.998161 
L 298.158373 111.061749 
L 298.658971 110.903865 
L 298.992703 113.886536 
L 299.326435 110.001783 
L 299.827033 110.498865 
L 300.160766 113.846481 
L 300.327632 115.148797 
L 300.494498 112.18424 
L 300.995096 112.511122 
L 301.328828 112.952752 
L 301.495694 114.021284 
L 302.163158 113.576893 
L 302.330024 115.156095 
L 302.49689 112.870946 
L 302.663756 112.287987 
L 302.830622 112.869241 
L 303.33122 113.545985 
L 303.664952 115.696208 
L 303.831818 115.576464 
L 303.998684 113.63635 
L 304.666148 113.797238 
L 304.833014 114.361553 
L 304.99988 113.429386 
L 305.166746 109.860153 
L 305.667344 111.12336 
L 305.834211 111.232291 
L 306.001077 110.93076 
L 306.167943 110.284021 
L 306.334809 110.317608 
L 307.002273 109.238232 
L 307.169139 110.709397 
L 307.336005 108.829456 
L 307.502871 109.741307 
L 308.170335 111.219247 
L 308.337201 111.865627 
L 308.504067 111.974919 
L 308.670933 113.115537 
L 309.171531 113.138683 
L 309.338397 112.059813 
L 309.505263 112.48653 
L 309.838995 109.969938 
L 310.339593 110.19331 
L 310.673325 111.068744 
L 311.007057 113.881117 
L 311.507656 112.740898 
L 311.674522 30.254461 
L 312.17512 51.515991 
L 312.675718 57.272029 
L 313.343182 73.943642 
L 313.84378 76.962205 
L 314.511244 89.027211 
L 315.011842 90.93062 
L 315.178708 92.779958 
L 315.51244 98.331803 
L 315.679306 100.475049 
L 316.179904 99.782857 
L 316.513636 103.798672 
L 316.847368 104.777886 
L 317.347967 105.449934 
L 317.681699 109.204006 
L 317.848565 110.936508 
L 318.015431 110.991738 
L 318.516029 111.341825 
L 318.682895 112.317139 
L 318.849761 111.47193 
L 319.016627 113.384883 
L 319.183493 112.121594 
L 319.684091 111.158485 
L 319.850957 109.917984 
L 320.017823 110.020837 
L 320.184689 111.087142 
L 320.351555 110.700725 
L 321.019019 111.830038 
L 321.185885 112.866134 
L 321.519617 112.228517 
L 322.020215 111.862439 
L 322.187081 112.033058 
L 322.353947 112.437736 
L 322.520813 110.884383 
L 322.687679 112.433617 
L 323.188278 112.43386 
L 323.52201 113.313415 
L 323.688876 115.029037 
L 323.855742 115.314678 
L 324.35634 114.846639 
L 324.523206 116.516672 
L 324.690072 116.474161 
L 324.856938 115.528501 
L 325.023804 116.026472 
L 325.524402 116.061375 
L 325.691268 117.854249 
L 325.858134 116.70562 
L 326.025 116.357237 
L 326.191866 114.559409 
L 326.692464 113.402802 
L 327.026196 112.358467 
L 327.193062 113.242915 
L 327.359928 112.999066 
L 327.860526 111.431955 
L 328.027392 111.497603 
L 328.52799 115.66032 
L 329.028589 116.317279 
L 329.195455 114.931395 
L 329.362321 115.235642 
L 329.696053 117.734758 
L 330.530383 112.60393 
L 330.697249 109.817326 
L 330.864115 109.024629 
L 331.531579 109.302577 
L 331.698445 109.839611 
L 331.865311 111.193666 
L 332.032177 109.442804 
L 332.532775 109.507454 
L 332.699641 107.475898 
L 332.866507 107.226288 
L 333.200239 108.456548 
L 333.700837 107.921521 
L 333.867703 108.696348 
L 334.034569 108.23063 
L 334.368301 108.132288 
L 334.8689 108.855753 
L 335.035766 108.852758 
L 335.202632 109.177363 
L 335.536364 106.318438 
L 336.036962 107.14596 
L 336.370694 108.853791 
L 336.53756 108.952863 
L 336.704426 108.734034 
L 337.205024 108.418309 
L 337.37189 108.064963 
L 337.538756 106.220433 
L 337.705622 106.167632 
L 337.872488 106.571745 
L 338.373086 107.183251 
L 338.539952 106.62349 
L 338.706818 109.324059 
L 338.873684 108.230072 
L 339.04055 108.760611 
L 339.87488 108.392383 
L 340.041746 108.590899 
L 340.208612 109.094236 
L 340.876077 109.34568 
L 341.042943 110.92956 
L 341.376675 111.116852 
L 341.877273 110.322602 
L 342.044139 111.253865 
L 342.211005 110.651094 
L 342.377871 110.791554 
L 342.544737 111.501256 
L 343.379067 113.066509 
L 343.545933 112.138407 
L 343.712799 110.457076 
L 344.213397 110.082553 
L 344.547129 111.392186 
L 344.713995 110.466245 
L 344.880861 110.43066 
L 345.548325 109.417708 
L 345.715191 111.107939 
L 345.882057 109.671662 
L 346.048923 109.400611 
L 346.549522 110.903692 
L 346.883254 110.035247 
L 347.05012 110.095334 
L 347.216986 110.591044 
L 347.717584 110.268241 
L 347.88445 112.74467 
L 348.051316 112.089579 
L 348.218182 110.655362 
L 348.385048 111.4798 
L 349.052512 111.878441 
L 349.219378 111.755861 
L 349.386244 109.900794 
L 349.55311 109.919629 
L 350.053708 110.462792 
L 350.38744 111.359529 
L 350.554306 111.295422 
L 350.721172 111.05344 
L 351.22177 111.632292 
L 351.388636 113.453616 
L 351.722368 112.467244 
L 351.889234 112.784996 
L 352.389833 112.578874 
L 352.556699 111.589984 
L 352.723565 111.54347 
L 353.057297 113.100839 
L 353.557895 112.740839 
L 354.058493 108.98522 
L 354.225359 110.625937 
L 354.892823 111.766387 
L 355.059689 109.855877 
L 355.226555 109.94656 
L 355.894019 111.22115 
L 356.060885 113.02514 
L 356.227751 113.176629 
L 356.394617 115.366735 
L 356.561483 113.790121 
L 357.228947 113.669338 
L 357.395813 115.365963 
L 357.562679 115.112272 
L 357.729545 116.914637 
L 358.230144 117.57334 
L 358.39701 116.809307 
L 358.563876 116.600138 
L 358.730742 116.116168 
L 358.897608 114.855484 
L 359.398206 113.541156 
L 359.565072 112.321862 
L 359.731938 112.545408 
L 359.898804 114.172345 
L 360.06567 113.361145 
L 360.566268 112.6658 
L 360.733134 115.122089 
L 360.9 114.501217 
L 361.233732 110.958792 
L 361.73433 110.382158 
L 361.901196 110.480593 
L 362.068062 109.974741 
L 362.234928 108.850081 
L 362.401794 108.713678 
L 362.902392 109.454353 
L 363.069258 109.251744 
L 363.236124 108.139902 
L 363.40299 108.758041 
L 363.569856 108.599392 
L 364.070455 109.823596 
L 364.237321 109.839286 
L 364.404187 110.963384 
L 364.571053 113.658629 
L 364.737919 113.546964 
L 365.405383 114.379884 
L 365.739115 117.053679 
L 365.905981 114.132537 
L 366.406579 114.483396 
L 366.740311 113.200083 
L 366.907177 112.81741 
L 367.074043 113.178002 
L 367.574641 112.839091 
L 367.741507 113.339619 
L 368.075239 113.635189 
L 368.242105 113.791477 
L 368.909569 112.620395 
L 369.243301 111.356869 
L 369.410167 111.428031 
L 369.910766 110.458428 
L 370.077632 111.936849 
L 370.411364 111.874316 
L 370.57823 112.149762 
L 371.078828 111.993629 
L 371.245694 111.383066 
L 371.41256 111.617277 
L 371.746292 111.443192 
L 372.24689 111.701569 
L 372.413756 112.025365 
L 372.580622 110.292493 
L 372.747488 110.401205 
L 372.914354 109.607947 
L 373.414952 109.050183 
L 373.581818 106.370455 
L 373.581818 106.370455 
" clip-path="url(#pe763f0d83d)" style="fill: none; stroke: #dc143c; stroke-width: 2; stroke-linecap: square"/>
   </g>
   <g id="line2d_22">
    <path d="M 69.218182 112.184504 
L 69.71878 112.003229 
L 69.885646 109.41325 
L 70.219378 112.817235 
L 70.386244 112.302119 
L 70.886842 112.108865 
L 71.053708 112.381597 
L 71.38744 116.711703 
L 71.554306 116.951679 
L 72.054904 121.445778 
L 72.22177 118.604139 
L 72.388636 118.166627 
L 72.555502 115.414702 
L 72.722368 115.6982 
L 73.222967 117.65287 
L 73.389833 115.034917 
L 73.556699 119.127166 
L 73.723565 118.012477 
L 73.890431 115.850929 
L 74.391029 114.199053 
L 74.557895 115.031649 
L 74.724761 113.479949 
L 74.891627 113.133587 
L 75.058493 116.469875 
L 75.559091 114.646079 
L 75.725957 115.15364 
L 76.059689 111.601957 
L 76.226555 111.47313 
L 76.894019 113.1734 
L 77.394617 109.676882 
L 77.895215 109.741055 
L 78.062081 109.597977 
L 78.228947 108.602492 
L 78.562679 108.890848 
L 79.063278 110.050141 
L 79.39701 110.144959 
L 79.563876 110.684881 
L 79.730742 111.78592 
L 80.23134 111.788276 
L 80.398206 112.692741 
L 80.565072 111.755935 
L 80.898804 112.752268 
L 81.399402 112.190594 
L 81.733134 116.845788 
L 81.9 115.765787 
L 82.066866 113.389818 
L 82.567464 113.867441 
L 82.73433 115.531065 
L 83.234928 111.392983 
L 83.735526 111.678653 
L 83.902392 110.437854 
L 84.069258 110.776477 
L 84.236124 110.821668 
L 84.40299 112.434123 
L 84.903589 112.133273 
L 85.070455 112.414477 
L 85.237321 112.17979 
L 85.404187 112.394523 
L 85.571053 111.546052 
L 86.071651 110.895198 
L 86.238517 111.177671 
L 86.405383 110.662196 
L 86.572249 111.65667 
L 86.739115 110.043918 
L 87.239713 109.647314 
L 87.406579 109.764009 
L 87.573445 110.042747 
L 87.740311 109.266966 
L 87.907177 109.556445 
L 88.407775 109.797676 
L 88.574641 110.074118 
L 88.741507 109.806 
L 88.908373 110.091325 
L 89.075239 109.090777 
L 89.575837 109.259759 
L 90.076435 111.490896 
L 90.243301 110.994444 
L 90.7439 110.093457 
L 91.077632 110.055069 
L 91.411364 110.92917 
L 91.911962 112.573172 
L 92.078828 114.133691 
L 92.245694 113.182749 
L 92.41256 112.983949 
L 92.579426 111.102392 
L 93.24689 112.065423 
L 93.413756 111.963463 
L 93.580622 110.817142 
L 93.747488 110.97746 
L 94.248086 110.58841 
L 94.414952 110.617521 
L 94.581818 110.969364 
L 94.91555 110.16961 
L 95.416148 109.882713 
L 95.583014 110.348478 
L 95.916746 109.993489 
L 96.083612 110.12184 
L 96.584211 111.360796 
L 96.751077 111.072212 
L 97.084809 109.440367 
L 97.251675 110.988481 
L 97.752273 110.782192 
L 97.919139 111.606372 
L 98.252871 109.879682 
L 98.419737 110.854187 
L 99.254067 110.32238 
L 99.420933 109.122132 
L 99.587799 109.193738 
L 100.588995 110.942915 
L 100.755861 112.015551 
L 101.256459 114.456582 
L 101.423325 113.301741 
L 101.590191 113.186628 
L 101.757057 112.477312 
L 101.923923 115.591126 
L 102.424522 114.575168 
L 102.758254 109.901005 
L 102.92512 109.706088 
L 103.091986 111.364881 
L 103.592584 110.59744 
L 103.75945 110.793384 
L 103.926316 109.55681 
L 104.260048 110.836401 
L 104.927512 111.869621 
L 105.094378 111.342981 
L 105.42811 113.385697 
L 105.928708 118.232047 
L 106.095574 121.925604 
L 106.26244 121.788964 
L 106.429306 126.508385 
L 106.596172 127.210524 
L 107.09677 121.387228 
L 107.263636 123.830675 
L 107.430502 119.335558 
L 107.597368 122.141242 
L 107.764234 122.545664 
L 108.264833 127.540454 
L 108.431699 124.023704 
L 108.765431 130.334247 
L 108.932297 128.053859 
L 109.432895 129.597924 
L 109.599761 128.331421 
L 109.766627 129.816282 
L 109.933493 128.994434 
L 110.100359 130.764204 
L 110.600957 131.956804 
L 110.934689 127.737889 
L 111.101555 125.415767 
L 111.268421 126.811017 
L 111.769019 124.834802 
L 111.935885 125.520396 
L 112.102751 127.949723 
L 112.269617 125.67694 
L 112.436483 126.425504 
L 112.937081 122.00014 
L 113.103947 121.707973 
L 113.437679 117.774516 
L 114.105144 118.727677 
L 114.27201 116.197708 
L 114.438876 117.832862 
L 114.605742 117.345935 
L 114.772608 113.910941 
L 115.273206 116.456137 
L 115.440072 119.122087 
L 115.606938 116.492783 
L 115.773804 116.024976 
L 115.94067 114.426334 
L 116.441268 112.410555 
L 116.608134 112.609535 
L 116.775 109.767955 
L 116.941866 111.542497 
L 117.108732 114.895071 
L 117.60933 114.575202 
L 117.776196 113.658676 
L 117.943062 114.848945 
L 118.109928 113.413591 
L 118.276794 110.713468 
L 118.777392 111.520555 
L 119.111124 117.093822 
L 119.27799 114.531559 
L 119.444856 114.025193 
L 119.945455 109.150206 
L 120.112321 111.418766 
L 120.279187 109.56212 
L 120.446053 110.366682 
L 120.612919 110.612427 
L 121.280383 107.858402 
L 121.447249 105.282509 
L 121.780981 107.299411 
L 122.281579 107.251918 
L 122.448445 106.21157 
L 122.615311 103.842667 
L 122.782177 104.559235 
L 122.949043 100.880136 
L 123.449641 99.499541 
L 123.783373 104.438628 
L 123.950239 111.108384 
L 124.117105 109.357738 
L 124.617703 108.920901 
L 124.784569 106.911549 
L 125.285167 109.954742 
L 125.785766 109.39192 
L 125.952632 108.980245 
L 126.119498 112.788232 
L 126.286364 111.224356 
L 126.45323 114.923544 
L 127.120694 110.84122 
L 127.28756 111.397068 
L 127.454426 111.014117 
L 128.12189 108.71299 
L 128.288756 111.110923 
L 128.455622 110.291259 
L 128.622488 112.43413 
L 128.789354 110.445786 
L 129.289952 110.585811 
L 129.456818 107.773296 
L 129.623684 106.982609 
L 129.957416 108.954908 
L 130.458014 109.243651 
L 130.791746 108.108164 
L 131.125478 111.686994 
L 131.626077 111.129901 
L 131.792943 112.436975 
L 131.959809 111.545774 
L 132.126675 112.938097 
L 132.293541 112.257442 
L 132.794139 110.946201 
L 132.961005 110.173817 
L 133.294737 107.6799 
L 133.461603 107.887563 
L 133.962201 106.349729 
L 134.129067 107.509541 
L 134.295933 106.396756 
L 134.462799 107.418069 
L 135.130263 108.660214 
L 135.463995 110.188995 
L 135.630861 110.165117 
L 135.797727 109.343359 
L 136.298325 107.584609 
L 136.465191 108.387794 
L 136.632057 108.337547 
L 136.965789 107.451499 
L 137.466388 109.140837 
L 137.633254 108.30921 
L 137.80012 106.304486 
L 137.966986 110.727318 
L 138.133852 111.700158 
L 138.801316 114.885627 
L 138.968182 112.509525 
L 139.135048 114.532746 
L 139.301914 113.707947 
L 139.802512 111.945866 
L 139.969378 112.002302 
L 140.136244 111.873991 
L 140.30311 112.638714 
L 140.469976 113.948227 
L 140.970574 116.527697 
L 141.13744 115.427895 
L 141.304306 117.974499 
L 141.471172 117.222099 
L 141.638038 114.890101 
L 142.138636 112.536797 
L 142.305502 113.24649 
L 142.472368 111.456566 
L 142.639234 111.383073 
L 142.8061 112.221069 
L 143.306699 109.799987 
L 143.473565 111.998256 
L 143.640431 109.332494 
L 144.474761 107.580831 
L 144.808493 110.07271 
L 144.975359 110.419518 
L 145.142225 110.034687 
L 145.642823 112.420027 
L 145.809689 111.843384 
L 145.976555 112.447751 
L 146.143421 111.650266 
L 146.310287 111.901069 
L 146.977751 116.278047 
L 147.144617 120.655976 
L 147.311483 119.265308 
L 147.478349 119.540283 
L 147.978947 116.745353 
L 148.479545 109.159899 
L 148.646411 109.787589 
L 149.313876 105.42986 
L 149.480742 106.15804 
L 149.647608 108.225018 
L 149.814474 106.669186 
L 150.315072 104.923355 
L 150.982536 110.177859 
L 151.483134 108.762798 
L 151.65 106.867191 
L 151.816866 108.237944 
L 152.150598 108.453584 
L 152.651196 110.18411 
L 152.818062 109.479895 
L 152.984928 109.473794 
L 153.151794 109.337388 
L 153.31866 108.386395 
L 153.819258 109.535191 
L 153.986124 109.30124 
L 154.319856 110.7489 
L 154.486722 110.691387 
L 154.987321 111.828862 
L 155.154187 110.181867 
L 155.321053 110.646169 
L 155.487919 110.080278 
L 155.654785 110.959162 
L 156.155383 110.933046 
L 156.322249 112.12556 
L 156.655981 111.339491 
L 157.323445 110.423527 
L 157.490311 110.987819 
L 157.657177 110.773078 
L 157.824043 109.951717 
L 158.491507 112.117349 
L 158.658373 111.324219 
L 158.992105 108.54814 
L 159.158971 108.655226 
L 159.659569 109.472826 
L 159.826435 109.478416 
L 159.993301 109.822952 
L 160.160167 110.437993 
L 160.327033 111.534373 
L 160.994498 111.06253 
L 161.161364 109.931669 
L 161.32823 110.254974 
L 161.495096 111.372606 
L 162.16256 111.897047 
L 162.329426 115.033745 
L 162.496292 113.348856 
L 162.663158 116.238146 
L 163.163756 114.811176 
L 163.330622 112.361239 
L 163.497488 112.221276 
L 163.664354 110.679541 
L 164.331818 109.491028 
L 164.498684 109.834117 
L 164.66555 109.800291 
L 164.999282 110.213819 
L 165.666746 110.13318 
L 165.833612 109.933405 
L 166.000478 110.780032 
L 166.167344 110.957893 
L 166.834809 111.075669 
L 167.001675 109.160768 
L 167.335407 114.350466 
L 167.836005 111.412885 
L 168.169737 112.809239 
L 168.336603 114.431107 
L 168.503469 111.619027 
L 169.004067 110.305642 
L 169.170933 110.381259 
L 169.337799 108.451345 
L 169.504665 107.969703 
L 169.671531 107.05321 
L 170.172129 106.76775 
L 170.338995 107.89705 
L 170.505861 107.464994 
L 170.839593 110.109085 
L 171.340191 109.868389 
L 171.507057 111.557525 
L 171.673923 111.679993 
L 171.840789 110.836335 
L 172.007656 108.905517 
L 172.508254 108.804529 
L 172.841986 110.329902 
L 173.008852 109.753075 
L 173.676316 108.302517 
L 173.843182 109.156742 
L 174.010048 109.415874 
L 174.176914 109.461021 
L 174.34378 108.398788 
L 174.844378 109.056101 
L 175.011244 109.712277 
L 175.17811 109.748555 
L 175.344976 108.62863 
L 175.511842 108.263555 
L 176.01244 109.238997 
L 176.179306 110.721572 
L 176.346172 109.473719 
L 176.513038 111.208046 
L 176.679904 110.320856 
L 177.347368 110.985279 
L 177.514234 111.893207 
L 177.6811 110.878723 
L 177.847967 111.888816 
L 178.348565 110.884416 
L 178.515431 110.96703 
L 178.682297 110.690689 
L 179.016029 108.729162 
L 179.516627 109.259343 
L 179.850359 114.664418 
L 180.184091 111.063849 
L 180.684689 111.447397 
L 181.018421 113.445413 
L 181.352153 112.00988 
L 181.852751 111.24755 
L 182.019617 111.746921 
L 182.186483 111.790576 
L 182.353349 111.242331 
L 182.520215 111.090587 
L 183.354545 111.084452 
L 183.521411 111.344099 
L 183.688278 110.667432 
L 184.355742 111.684981 
L 184.522608 112.469466 
L 184.85634 112.376761 
L 185.356938 112.798282 
L 185.523804 113.219924 
L 186.024402 117.363758 
L 186.691866 113.89188 
L 186.858732 114.101959 
L 187.192464 111.515685 
L 187.693062 112.289654 
L 187.859928 112.289759 
L 188.19366 110.934192 
L 188.360526 110.422068 
L 189.02799 111.559986 
L 189.194856 111.203182 
L 189.361722 112.49665 
L 189.528589 110.538504 
L 190.029187 110.188789 
L 190.362919 111.357273 
L 190.529785 111.345021 
L 191.197249 112.639715 
L 191.530981 111.148647 
L 191.697847 111.167573 
L 191.864713 110.614021 
L 192.365311 110.502207 
L 192.699043 111.486587 
L 192.865909 111.03155 
L 193.032775 111.716253 
L 193.533373 112.172234 
L 193.700239 111.121065 
L 193.867105 112.541871 
L 194.200837 110.969687 
L 194.701435 111.568148 
L 195.035167 110.211481 
L 195.3689 110.527055 
L 195.869498 110.257749 
L 196.370096 113.646271 
L 196.536962 112.574796 
L 197.03756 111.651487 
L 197.371292 111.551044 
L 197.538158 112.497584 
L 197.705024 111.458043 
L 198.372488 112.076154 
L 198.539354 112.348627 
L 198.70622 111.806676 
L 198.873086 112.221042 
L 199.874282 114.265762 
L 200.041148 115.327856 
L 200.541746 113.91816 
L 200.708612 115.095253 
L 200.875478 113.824022 
L 201.042344 114.000438 
L 201.209211 114.620255 
L 201.709809 117.129195 
L 201.876675 116.949888 
L 202.377273 112.520291 
L 202.877871 112.229259 
L 203.044737 114.695937 
L 203.211603 114.121254 
L 203.378469 116.347439 
L 203.545335 113.947275 
L 204.045933 115.222239 
L 204.379665 113.124557 
L 204.546531 111.628014 
L 204.713397 111.765414 
L 205.380861 113.434679 
L 205.547727 113.37141 
L 205.881459 109.501102 
L 206.382057 109.950551 
L 206.715789 109.008294 
L 206.882656 109.380628 
L 207.55012 109.409182 
L 207.716986 109.652328 
L 207.883852 111.086061 
L 208.050718 110.197955 
L 208.217584 110.049325 
L 208.718182 109.89273 
L 209.051914 109.404868 
L 209.21878 109.861797 
L 209.385646 109.253952 
L 209.886244 109.134477 
L 210.386842 112.058707 
L 210.553708 111.348617 
L 211.054306 111.533516 
L 211.221172 111.409727 
L 211.388038 112.44037 
L 211.554904 112.727242 
L 211.72177 113.888879 
L 212.222368 113.703979 
L 212.389234 112.76497 
L 212.5561 112.802064 
L 212.889833 116.512577 
L 213.390431 115.172136 
L 213.724163 119.17476 
L 213.891029 116.050201 
L 214.057895 116.008075 
L 214.558493 113.091061 
L 214.725359 111.087471 
L 214.892225 111.088004 
L 215.059091 111.233241 
L 215.225957 110.473373 
L 215.893421 112.504736 
L 216.060287 110.916514 
L 216.227153 111.206229 
L 216.394019 113.540849 
L 216.894617 115.280125 
L 217.228349 111.642327 
L 217.395215 110.924394 
L 218.229545 109.516488 
L 218.396411 109.434843 
L 218.730144 110.608222 
L 219.230742 109.76487 
L 219.397608 109.139619 
L 219.73134 111.955087 
L 219.898206 112.046886 
L 220.398804 112.799683 
L 220.56567 112.011968 
L 220.732536 111.915614 
L 221.066268 113.60423 
L 221.733732 115.821686 
L 222.23433 119.450201 
L 222.901794 118.162365 
L 223.06866 118.23668 
L 223.235526 117.754852 
L 223.402392 114.830643 
L 223.90299 112.904281 
L 224.236722 110.869071 
L 224.403589 113.186994 
L 224.570455 113.236325 
L 225.071053 113.18358 
L 225.404785 110.360375 
L 225.738517 114.852655 
L 226.239115 115.396281 
L 226.405981 113.353907 
L 226.572847 113.529645 
L 226.739713 116.067618 
L 226.906579 116.772262 
L 227.574043 118.502105 
L 227.740909 120.031003 
L 227.907775 118.958262 
L 228.074641 114.926783 
L 228.575239 115.431104 
L 228.742105 117.694879 
L 228.908971 114.794079 
L 229.075837 115.020695 
L 229.242703 115.587461 
L 229.743301 118.669645 
L 229.910167 118.9594 
L 230.077033 115.668582 
L 230.2439 115.892835 
L 230.410766 116.613102 
L 230.911364 116.264293 
L 231.245096 111.119193 
L 231.578828 108.639181 
L 232.079426 109.848864 
L 232.246292 109.019837 
L 232.413158 111.232203 
L 232.580024 109.87157 
L 232.74689 109.472426 
L 233.247488 109.360887 
L 233.414354 108.211667 
L 233.58122 108.905912 
L 233.748086 111.560305 
L 233.914952 111.062981 
L 234.41555 110.766383 
L 234.749282 112.840773 
L 235.083014 111.863042 
L 235.750478 114.040618 
L 235.917344 112.394329 
L 236.084211 112.924733 
L 236.751675 113.082007 
L 237.085407 109.94746 
L 237.252273 111.775183 
L 237.419139 115.826837 
L 237.919737 114.555178 
L 238.086603 117.693089 
L 238.253469 117.00472 
L 238.420335 114.091577 
L 238.587201 117.656426 
L 239.087799 116.899791 
L 239.254665 116.261923 
L 239.421531 112.281831 
L 239.588397 116.190823 
L 239.755263 116.305796 
L 240.255861 118.614273 
L 240.422727 118.488103 
L 240.589593 119.408304 
L 240.756459 119.296583 
L 240.923325 116.689029 
L 241.423923 116.228321 
L 241.590789 114.029011 
L 241.757656 118.550311 
L 241.924522 119.085629 
L 242.091388 118.515838 
L 243.092584 111.569941 
L 243.25945 109.213267 
L 243.926914 110.46104 
L 244.09378 111.42624 
L 244.260646 109.634573 
L 244.427512 111.413743 
L 244.92811 111.458492 
L 245.094976 110.387658 
L 245.261842 111.797115 
L 245.595574 118.267683 
L 246.096172 121.546782 
L 246.263038 121.495923 
L 246.429904 119.383064 
L 246.59677 122.124347 
L 246.763636 121.508288 
L 247.4311 117.930909 
L 247.597967 117.709194 
L 247.764833 116.396743 
L 247.931699 112.552041 
L 248.432297 112.83665 
L 248.599163 114.96653 
L 248.766029 114.403348 
L 248.932895 115.42343 
L 249.099761 113.694031 
L 249.767225 114.213366 
L 249.934091 113.748515 
L 250.100957 112.013959 
L 250.768421 113.122033 
L 251.269019 115.418097 
L 251.435885 112.047783 
L 251.936483 113.121561 
L 252.103349 109.665207 
L 252.270215 109.71596 
L 252.437081 109.240256 
L 252.603947 110.184073 
L 253.104545 109.989696 
L 253.271411 111.303968 
L 253.605144 108.158033 
L 253.77201 107.120073 
L 254.272608 107.846578 
L 254.439474 110.109647 
L 254.60634 108.43746 
L 254.773206 109.216713 
L 254.940072 109.184186 
L 255.44067 109.37563 
L 255.607536 109.955718 
L 255.774402 107.751837 
L 255.941268 108.085093 
L 256.108134 106.586023 
L 256.608732 106.469915 
L 256.775598 105.969575 
L 256.942464 107.360246 
L 257.10933 107.773902 
L 257.276196 109.536508 
L 257.94366 113.323726 
L 258.110526 112.99781 
L 258.277392 111.508052 
L 258.444258 115.808583 
L 258.944856 116.352679 
L 259.278589 118.284182 
L 259.445455 117.1111 
L 259.612321 118.294047 
L 260.279785 118.615066 
L 260.613517 114.845172 
L 260.780383 112.914769 
L 261.280981 111.841995 
L 261.447847 117.029184 
L 261.614713 116.548896 
L 261.948445 117.267066 
L 262.449043 115.959475 
L 262.615909 117.135815 
L 262.782775 119.199748 
L 262.949641 119.144682 
L 263.116507 120.937986 
L 263.617105 121.846503 
L 263.783971 121.663165 
L 263.950837 118.200475 
L 264.284569 121.765863 
L 264.785167 117.491009 
L 264.952033 113.604418 
L 265.1189 113.718042 
L 265.285766 115.17271 
L 265.452632 117.779277 
L 265.95323 117.798709 
L 266.286962 116.94339 
L 266.453828 112.812375 
L 266.620694 114.626059 
L 267.288158 110.506505 
L 267.62189 111.711873 
L 267.788756 108.395034 
L 268.289354 106.888577 
L 268.45622 105.871809 
L 268.623086 106.460565 
L 268.789952 106.12353 
L 268.956818 103.017875 
L 269.457416 104.423786 
L 269.624282 105.506821 
L 269.958014 109.364927 
L 270.12488 107.841947 
L 270.625478 106.369756 
L 270.792344 105.441311 
L 270.959211 108.820897 
L 271.126077 104.344141 
L 271.793541 106.394821 
L 271.960407 106.696835 
L 272.294139 107.884436 
L 272.461005 107.442637 
L 272.961603 108.11718 
L 273.128469 106.776663 
L 273.295335 106.895525 
L 273.629067 106.753221 
L 274.129665 109.43181 
L 274.296531 109.716634 
L 274.463397 106.81349 
L 274.630263 108.162103 
L 274.797129 108.421729 
L 275.297727 110.850461 
L 275.464593 112.527228 
L 275.631459 112.538002 
L 275.798325 111.739375 
L 275.965191 113.177306 
L 276.632656 110.531058 
L 276.799522 111.35582 
L 276.966388 114.713741 
L 277.133254 115.773235 
L 277.633852 116.230335 
L 277.800718 115.495542 
L 277.967584 112.90907 
L 278.13445 114.424572 
L 278.301316 113.482732 
L 278.96878 113.244813 
L 279.135646 114.839503 
L 279.302512 113.088422 
L 279.469378 113.387613 
L 280.136842 113.376488 
L 280.303708 112.704378 
L 280.470574 114.252785 
L 280.63744 111.015181 
L 281.138038 111.663626 
L 281.805502 109.020515 
L 282.472967 111.072078 
L 282.806699 114.886426 
L 282.973565 113.215278 
L 283.641029 111.63868 
L 283.807895 111.693895 
L 283.974761 110.864547 
L 284.141627 110.907766 
L 284.642225 112.245646 
L 284.809091 110.630886 
L 284.975957 110.793524 
L 285.142823 111.148317 
L 285.309689 111.872108 
L 285.810287 112.110788 
L 285.977153 110.961808 
L 286.310885 113.248607 
L 286.477751 112.427338 
L 286.978349 110.757737 
L 287.145215 111.639609 
L 287.312081 111.5659 
L 287.478947 113.59007 
L 287.645813 112.922803 
L 288.313278 115.945902 
L 288.480144 116.035138 
L 288.64701 115.239142 
L 288.813876 116.538423 
L 289.314474 115.856097 
L 289.48134 116.641115 
L 289.648206 116.25454 
L 289.981938 112.438727 
L 290.482536 112.281608 
L 290.649402 114.869532 
L 290.816268 114.939449 
L 291.15 118.379426 
L 291.650598 118.290654 
L 291.817464 116.218129 
L 291.98433 117.207409 
L 292.151196 115.077422 
L 292.318062 116.632772 
L 292.81866 114.520596 
L 292.985526 112.918876 
L 293.152392 115.269846 
L 293.486124 113.907958 
L 293.986722 112.899235 
L 294.153589 113.059105 
L 294.654187 109.239901 
L 295.154785 108.075985 
L 295.321651 109.393876 
L 295.488517 109.335201 
L 295.655383 109.637442 
L 296.489713 109.314647 
L 296.656579 109.809599 
L 296.823445 108.331403 
L 296.990311 109.386695 
L 297.490909 109.240476 
L 297.657775 109.614937 
L 297.991507 111.003947 
L 298.158373 111.063225 
L 298.658971 110.914265 
L 298.992703 113.707084 
L 299.326435 110.164599 
L 299.827033 110.607756 
L 300.327632 114.878409 
L 300.494498 112.24375 
L 300.995096 112.534584 
L 301.328828 112.937416 
L 301.495694 113.924568 
L 302.163158 113.527517 
L 302.330024 114.996456 
L 302.49689 112.918354 
L 302.663756 112.377046 
L 302.830622 112.906728 
L 303.33122 113.531722 
L 303.664952 115.539519 
L 303.831818 115.442382 
L 303.998684 113.660029 
L 304.666148 113.807405 
L 304.833014 114.332724 
L 304.99988 113.46547 
L 305.166746 110.257531 
L 305.667344 111.362088 
L 305.834211 111.439608 
L 306.001077 111.143715 
L 306.167943 110.527311 
L 306.334809 110.535901 
L 307.002273 109.487067 
L 307.169139 110.832595 
L 307.336005 109.085949 
L 307.502871 109.906282 
L 308.170335 111.256175 
L 308.337201 111.852161 
L 308.504067 111.95523 
L 308.670933 113.019057 
L 309.171531 113.049709 
L 309.338397 112.05024 
L 309.505263 112.45081 
L 309.838995 110.100491 
L 310.339593 110.297286 
L 310.673325 111.107109 
L 311.007057 113.723141 
L 311.841388 112.174714 
L 312.675718 111.887717 
L 312.842584 111.137789 
L 313.343182 110.732605 
L 313.84378 110.278026 
L 314.010646 110.365489 
L 314.177512 110.253494 
L 314.344378 111.323706 
L 314.511244 110.762702 
L 315.178708 110.439933 
L 315.345574 112.033866 
L 315.51244 112.369023 
L 315.679306 113.028182 
L 316.179904 111.293758 
L 316.513636 112.951964 
L 316.680502 112.704746 
L 316.847368 112.252775 
L 317.347967 112.182986 
L 317.681699 114.476458 
L 317.848565 115.590824 
L 318.015431 115.20981 
L 318.516029 115.142905 
L 318.682895 115.699457 
L 318.849761 114.594583 
L 319.016627 116.081366 
L 319.183493 114.662477 
L 319.684091 113.535811 
L 319.850957 112.170693 
L 320.017823 112.057039 
L 320.184689 112.859508 
L 320.351555 112.333624 
L 321.019019 113.235284 
L 321.185885 114.07183 
L 321.519617 113.256694 
L 322.020215 112.815833 
L 322.187081 112.88676 
L 322.353947 113.188027 
L 322.520813 111.662857 
L 322.687679 113.03495 
L 323.188278 112.9789 
L 323.52201 113.710161 
L 323.688876 115.274351 
L 323.855742 115.518837 
L 324.35634 115.060533 
L 324.523206 116.597325 
L 324.690072 116.550007 
L 324.856938 115.658182 
L 325.023804 116.112948 
L 325.524402 116.137631 
L 325.691268 117.801834 
L 325.858134 116.736699 
L 326.025 116.408155 
L 326.191866 114.73573 
L 326.692464 113.646513 
L 327.026196 112.626055 
L 327.193062 113.427494 
L 327.359928 113.181651 
L 327.860526 111.704182 
L 328.027392 111.740125 
L 328.52799 115.574389 
L 329.028589 116.193935 
L 329.195455 114.918334 
L 329.362321 115.203247 
L 329.696053 117.540652 
L 330.530383 112.875725 
L 330.697249 110.354536 
L 330.864115 109.589687 
L 331.531579 109.746619 
L 331.698445 110.201824 
L 331.865311 111.418915 
L 332.032177 109.789429 
L 332.532775 109.817157 
L 332.699641 107.927121 
L 332.866507 107.65528 
L 333.200239 108.725576 
L 333.700837 108.20145 
L 333.867703 108.899232 
L 334.034569 108.444024 
L 334.368301 108.331617 
L 334.8689 108.992824 
L 335.035766 108.977092 
L 335.202632 109.271556 
L 335.536364 106.577875 
L 336.036962 107.326654 
L 336.370694 108.897198 
L 336.53756 108.986106 
L 336.704426 108.777133 
L 337.205024 108.475577 
L 337.37189 108.1368 
L 337.538756 106.406949 
L 337.705622 106.339981 
L 337.872488 106.703375 
L 338.373086 107.266016 
L 338.539952 106.731328 
L 338.706818 109.208003 
L 338.873684 108.20938 
L 339.04055 108.703037 
L 339.87488 108.368269 
L 340.041746 108.556631 
L 340.208612 109.032557 
L 340.876077 109.275001 
L 341.042943 110.762623 
L 341.376675 110.969078 
L 341.877273 110.23609 
L 342.044139 111.119198 
L 342.211005 110.564909 
L 342.377871 110.705406 
L 342.544737 111.382354 
L 343.379067 112.881842 
L 343.545933 112.026332 
L 343.712799 110.46686 
L 344.213397 110.115219 
L 344.547129 111.342145 
L 344.713995 110.477877 
L 344.880861 110.443306 
L 345.548325 109.483352 
L 345.715191 111.058048 
L 345.882057 109.724395 
L 346.048923 109.466019 
L 346.549522 110.859306 
L 346.883254 110.052291 
L 347.05012 110.107125 
L 347.216986 110.572285 
L 347.717584 110.269906 
L 347.88445 112.560103 
L 348.051316 111.969093 
L 348.218182 110.651886 
L 348.385048 111.417767 
L 349.052512 111.79514 
L 349.219378 111.688255 
L 349.386244 109.973435 
L 349.55311 109.984219 
L 350.053708 110.485798 
L 350.38744 111.325756 
L 350.554306 111.268608 
L 350.721172 111.043023 
L 351.22177 111.589965 
L 351.388636 113.295479 
L 351.722368 112.396392 
L 351.889234 112.701865 
L 352.389833 112.515485 
L 352.556699 111.591073 
L 352.723565 111.547122 
L 353.057297 113.017716 
L 353.557895 112.685997 
L 354.058493 109.161383 
L 354.225359 110.669775 
L 354.892823 111.73017 
L 355.059689 109.964194 
L 355.226555 110.038503 
L 355.894019 111.214486 
L 356.060885 112.880595 
L 356.227751 113.034617 
L 356.394617 115.05682 
L 356.561483 113.64084 
L 357.228947 113.555027 
L 357.395813 115.131234 
L 357.562679 114.917653 
L 357.729545 116.596889 
L 358.230144 117.235957 
L 358.39701 116.557877 
L 358.563876 116.386276 
L 358.730742 115.953674 
L 358.897608 114.792293 
L 359.398206 113.574299 
L 359.565072 112.437089 
L 359.731938 112.635076 
L 359.898804 114.137884 
L 360.06567 113.386007 
L 360.566268 112.734944 
L 360.733134 114.983044 
L 360.9 114.423016 
L 361.233732 111.17782 
L 361.73433 110.627485 
L 361.901196 110.695855 
L 362.068062 110.205945 
L 362.234928 109.139801 
L 362.401794 108.985538 
L 362.902392 109.652321 
L 363.069258 109.44384 
L 363.236124 108.385291 
L 363.40299 108.941827 
L 363.569856 108.775434 
L 364.070455 109.906528 
L 364.237321 109.913481 
L 364.404187 110.960993 
L 364.571053 113.435674 
L 364.737919 113.353097 
L 365.405383 114.142867 
L 365.739115 116.665289 
L 365.905981 114.060109 
L 366.406579 114.386656 
L 366.740311 113.218071 
L 366.907177 112.861617 
L 367.074043 113.193234 
L 367.574641 112.875157 
L 367.741507 113.340574 
L 368.075239 113.618935 
L 368.242105 113.767843 
L 368.909569 112.663696 
L 369.243301 111.472244 
L 369.410167 111.528398 
L 369.910766 110.607045 
L 370.077632 111.97658 
L 370.411364 111.910677 
L 370.57823 112.166849 
L 371.078828 112.01785 
L 371.245694 111.439127 
L 371.41256 111.655211 
L 371.746292 111.486899 
L 372.24689 111.727425 
L 372.413756 112.031735 
L 372.580622 110.404532 
L 372.747488 110.496279 
L 372.914354 109.741071 
L 373.414952 109.203328 
L 373.581818 106.721311 
L 373.581818 106.721311 
" clip-path="url(#pe763f0d83d)" style="fill: none; stroke: #000000; stroke-width: 2; stroke-linecap: square"/>
   </g>
   <g id="patch_3">
    <path d="M 54 201.6 
L 54 30.24 
" style="fill: none; stroke: #000000; stroke-width: 0.8; stroke-linejoin: miter; stroke-linecap: square"/>
   </g>
   <g id="patch_4">
    <path d="M 54 201.6 
L 388.8 201.6 
" style="fill: none; stroke: #000000; stroke-width: 0.8; stroke-linejoin: miter; stroke-linecap: square"/>
   </g>
   <g id="text_12">
    <!-- ^DJI -->
    <g transform="translate(205.574625 24.24) scale(0.144 -0.144)">
     <defs>
      <path id="DejaVuSans-5e" d="M 2988 4666 
L 4684 2925 
L 4056 2925 
L 2681 4159 
L 1306 2925 
L 678 2925 
L 2375 4666 
L 2988 4666 
z
" transform="scale(0.015625)"/>
      <path id="DejaVuSans-4a" d="M 628 4666 
L 1259 4666 
L 1259 325 
Q 1259 -519 939 -900 
Q 619 -1281 -91 -1281 
L -331 -1281 
L -331 -750 
L -134 -750 
Q 284 -750 456 -515 
Q 628 -281 628 325 
L 628 4666 
z
" transform="scale(0.015625)"/>
      <path id="DejaVuSans-49" d="M 628 4666 
L 1259 4666 
L 1259 0 
L 628 0 
L 628 4666 
z
" transform="scale(0.015625)"/>
     </defs>
     <use xlink:href="#DejaVuSans-5e"/>
     <use xlink:href="#DejaVuSans-44" x="83.789062"/>
     <use xlink:href="#DejaVuSans-4a" x="160.791016"/>
     <use xlink:href="#DejaVuSans-49" x="190.283203"/>
    </g>
   </g>
   <g id="legend_1">
    <g id="patch_5">
     <path d="M 62.4 75.0675 
L 175.23 75.0675 
Q 177.63 75.0675 177.63 72.6675 
L 177.63 38.64 
Q 177.63 36.24 175.23 36.24 
L 62.4 36.24 
Q 60 36.24 60 38.64 
L 60 72.6675 
Q 60 75.0675 62.4 75.0675 
z
" style="fill: #ffffff; opacity: 0.8; stroke: #cccccc; stroke-linejoin: miter"/>
    </g>
    <g id="line2d_23">
     <path d="M 64.8 45.958125 
L 76.8 45.958125 
L 88.8 45.958125 
" style="fill: none; stroke: #dc143c; stroke-width: 2; stroke-linecap: square"/>
    </g>
    <g id="text_13">
     <!-- EWMA -->
     <g transform="translate(98.4 50.158125) scale(0.12 -0.12)">
      <defs>
       <path id="DejaVuSans-45" d="M 628 4666 
L 3578 4666 
L 3578 4134 
L 1259 4134 
L 1259 2753 
L 3481 2753 
L 3481 2222 
L 1259 2222 
L 1259 531 
L 3634 531 
L 3634 0 
L 628 0 
L 628 4666 
z
" transform="scale(0.015625)"/>
       <path id="DejaVuSans-57" d="M 213 4666 
L 850 4666 
L 1831 722 
L 2809 4666 
L 3519 4666 
L 4500 722 
L 5478 4666 
L 6119 4666 
L 4947 0 
L 4153 0 
L 3169 4050 
L 2175 0 
L 1381 0 
L 213 4666 
z
" transform="scale(0.015625)"/>
       <path id="DejaVuSans-4d" d="M 628 4666 
L 1569 4666 
L 2759 1491 
L 3956 4666 
L 4897 4666 
L 4897 0 
L 4281 0 
L 4281 4097 
L 3078 897 
L 2444 897 
L 1241 4097 
L 1241 0 
L 628 0 
L 628 4666 
z
" transform="scale(0.015625)"/>
       <path id="DejaVuSans-41" d="M 2188 4044 
L 1331 1722 
L 3047 1722 
L 2188 4044 
z
M 1831 4666 
L 2547 4666 
L 4325 0 
L 3669 0 
L 3244 1197 
L 1141 1197 
L 716 0 
L 50 0 
L 1831 4666 
z
" transform="scale(0.015625)"/>
      </defs>
      <use xlink:href="#DejaVuSans-45"/>
      <use xlink:href="#DejaVuSans-57" x="63.183594"/>
      <use xlink:href="#DejaVuSans-4d" x="162.060547"/>
      <use xlink:href="#DejaVuSans-41" x="248.339844"/>
     </g>
    </g>
    <g id="line2d_24">
     <path d="M 64.8 63.571875 
L 76.8 63.571875 
L 88.8 63.571875 
" style="fill: none; stroke: #000000; stroke-width: 2; stroke-linecap: square"/>
    </g>
    <g id="text_14">
     <!-- WoLF-EWMA -->
     <g transform="translate(98.4 67.771875) scale(0.12 -0.12)">
      <defs>
       <path id="DejaVuSans-6f" d="M 1959 3097 
Q 1497 3097 1228 2736 
Q 959 2375 959 1747 
Q 959 1119 1226 758 
Q 1494 397 1959 397 
Q 2419 397 2687 759 
Q 2956 1122 2956 1747 
Q 2956 2369 2687 2733 
Q 2419 3097 1959 3097 
z
M 1959 3584 
Q 2709 3584 3137 3096 
Q 3566 2609 3566 1747 
Q 3566 888 3137 398 
Q 2709 -91 1959 -91 
Q 1206 -91 779 398 
Q 353 888 353 1747 
Q 353 2609 779 3096 
Q 1206 3584 1959 3584 
z
" transform="scale(0.015625)"/>
       <path id="DejaVuSans-4c" d="M 628 4666 
L 1259 4666 
L 1259 531 
L 3531 531 
L 3531 0 
L 628 0 
L 628 4666 
z
" transform="scale(0.015625)"/>
       <path id="DejaVuSans-46" d="M 628 4666 
L 3309 4666 
L 3309 4134 
L 1259 4134 
L 1259 2759 
L 3109 2759 
L 3109 2228 
L 1259 2228 
L 1259 0 
L 628 0 
L 628 4666 
z
" transform="scale(0.015625)"/>
       <path id="DejaVuSans-2d" d="M 313 2009 
L 1997 2009 
L 1997 1497 
L 313 1497 
L 313 2009 
z
" transform="scale(0.015625)"/>
      </defs>
      <use xlink:href="#DejaVuSans-57"/>
      <use xlink:href="#DejaVuSans-6f" x="93.001953"/>
      <use xlink:href="#DejaVuSans-4c" x="154.183594"/>
      <use xlink:href="#DejaVuSans-46" x="209.896484"/>
      <use xlink:href="#DejaVuSans-2d" x="267.416016"/>
      <use xlink:href="#DejaVuSans-45" x="303.5"/>
      <use xlink:href="#DejaVuSans-57" x="366.683594"/>
      <use xlink:href="#DejaVuSans-4d" x="465.560547"/>
      <use xlink:href="#DejaVuSans-41" x="551.839844"/>
     </g>
    </g>
   </g>
  </g>
 </g>
 <defs>
  <clipPath id="pe763f0d83d">
   <rect x="54" y="30.24" width="334.8" height="171.36"/>
  </clipPath>
 </defs>
</svg>
