<?xml version="1.0" encoding="utf-8" standalone="no"?>
<!DOCTYPE svg PUBLIC "-//W3C//DTD SVG 1.1//EN"
  "http://www.w3.org/Graphics/SVG/1.1/DTD/svg11.dtd">
<svg xmlns:xlink="http://www.w3.org/1999/xlink" width="432pt" height="252pt" viewBox="0 0 432 252" xmlns="http://www.w3.org/2000/svg" version="1.1">
 <metadata>
  <rdf:RDF xmlns:dc="http://purl.org/dc/elements/1.1/" xmlns:cc="http://creativecommons.org/ns#" xmlns:rdf="http://www.w3.org/1999/02/22-rdf-syntax-ns#">
   <cc:Work>
    <dc:type rdf:resource="http://purl.org/dc/dcmitype/StillImage"/>
    <dc:date>2024-07-17T20:26:39.936859</dc:date>
    <dc:format>image/svg+xml</dc:format>
    <dc:creator>
     <cc:Agent>
      <dc:title>Matplotlib v3.8.2, https://matplotlib.org/</dc:title>
     </cc:Agent>
    </dc:creator>
   </cc:Work>
  </rdf:RDF>
 </metadata>
 <defs>
  <style type="text/css">*{stroke-linejoin: round; stroke-linecap: butt}</style>
 </defs>
 <g id="figure_1">
  <g id="patch_1">
   <path d="M 0 252 
L 432 252 
L 432 0 
L 0 0 
z
" style="fill: #ffffff"/>
  </g>
  <g id="axes_1">
   <g id="patch_2">
    <path d="M 46.69 188.828705 
L 415.407787 188.828705 
L 415.407787 31.2 
L 46.69 31.2 
z
" style="fill: #ffffff"/>
   </g>
   <g id="matplotlib.axis_1">
    <g id="xtick_1">
     <g id="line2d_1">
      <path d="M 63.247607 188.828705 
L 63.247607 31.2 
" clip-path="url(#p8d581e0519)" style="fill: none; stroke: #b0b0b0; stroke-opacity: 0.3; stroke-width: 0.8; stroke-linecap: square"/>
     </g>
     <g id="line2d_2">
      <defs>
       <path id="m51c6a95a81" d="M 0 0 
L 0 3.5 
" style="stroke: #000000; stroke-width: 0.8"/>
      </defs>
      <g>
       <use xlink:href="#m51c6a95a81" x="63.247607" y="188.828705" style="stroke: #000000; stroke-width: 0.8"/>
      </g>
     </g>
     <g id="text_1">
      <!-- 2020-01 -->
      <g transform="translate(47.862069 237.730085) rotate(-45) scale(0.12 -0.12)">
       <defs>
        <path id="DejaVuSans-32" d="M 1228 531 
L 3431 531 
L 3431 0 
L 469 0 
L 469 531 
Q 828 903 1448 1529 
Q 2069 2156 2228 2338 
Q 2531 2678 2651 2914 
Q 2772 3150 2772 3378 
Q 2772 3750 2511 3984 
Q 2250 4219 1831 4219 
Q 1534 4219 1204 4116 
Q 875 4013 500 3803 
L 500 4441 
Q 881 4594 1212 4672 
Q 1544 4750 1819 4750 
Q 2544 4750 2975 4387 
Q 3406 4025 3406 3419 
Q 3406 3131 3298 2873 
Q 3191 2616 2906 2266 
Q 2828 2175 2409 1742 
Q 1991 1309 1228 531 
z
" transform="scale(0.015625)"/>
        <path id="DejaVuSans-30" d="M 2034 4250 
Q 1547 4250 1301 3770 
Q 1056 3291 1056 2328 
Q 1056 1369 1301 889 
Q 1547 409 2034 409 
Q 2525 409 2770 889 
Q 3016 1369 3016 2328 
Q 3016 3291 2770 3770 
Q 2525 4250 2034 4250 
z
M 2034 4750 
Q 2819 4750 3233 4129 
Q 3647 3509 3647 2328 
Q 3647 1150 3233 529 
Q 2819 -91 2034 -91 
Q 1250 -91 836 529 
Q 422 1150 422 2328 
Q 422 3509 836 4129 
Q 1250 4750 2034 4750 
z
" transform="scale(0.015625)"/>
        <path id="DejaVuSans-2d" d="M 313 2009 
L 1997 2009 
L 1997 1497 
L 313 1497 
L 313 2009 
z
" transform="scale(0.015625)"/>
        <path id="DejaVuSans-31" d="M 794 531 
L 1825 531 
L 1825 4091 
L 703 3866 
L 703 4441 
L 1819 4666 
L 2450 4666 
L 2450 531 
L 3481 531 
L 3481 0 
L 794 0 
L 794 531 
z
" transform="scale(0.015625)"/>
       </defs>
       <use xlink:href="#DejaVuSans-32"/>
       <use xlink:href="#DejaVuSans-30" x="63.623047"/>
       <use xlink:href="#DejaVuSans-32" x="127.246094"/>
       <use xlink:href="#DejaVuSans-30" x="190.869141"/>
       <use xlink:href="#DejaVuSans-2d" x="254.492188"/>
       <use xlink:href="#DejaVuSans-30" x="290.576172"/>
       <use xlink:href="#DejaVuSans-31" x="354.199219"/>
      </g>
     </g>
    </g>
    <g id="xtick_2">
     <g id="line2d_3">
      <path d="M 100.064767 188.828705 
L 100.064767 31.2 
" clip-path="url(#p8d581e0519)" style="fill: none; stroke: #b0b0b0; stroke-opacity: 0.3; stroke-width: 0.8; stroke-linecap: square"/>
     </g>
     <g id="line2d_4">
      <g>
       <use xlink:href="#m51c6a95a81" x="100.064767" y="188.828705" style="stroke: #000000; stroke-width: 0.8"/>
      </g>
     </g>
     <g id="text_2">
      <!-- 2020-07 -->
      <g transform="translate(84.679228 237.730085) rotate(-45) scale(0.12 -0.12)">
       <defs>
        <path id="DejaVuSans-37" d="M 525 4666 
L 3525 4666 
L 3525 4397 
L 1831 0 
L 1172 0 
L 2766 4134 
L 525 4134 
L 525 4666 
z
" transform="scale(0.015625)"/>
       </defs>
       <use xlink:href="#DejaVuSans-32"/>
       <use xlink:href="#DejaVuSans-30" x="63.623047"/>
       <use xlink:href="#DejaVuSans-32" x="127.246094"/>
       <use xlink:href="#DejaVuSans-30" x="190.869141"/>
       <use xlink:href="#DejaVuSans-2d" x="254.492188"/>
       <use xlink:href="#DejaVuSans-30" x="290.576172"/>
       <use xlink:href="#DejaVuSans-37" x="354.199219"/>
      </g>
     </g>
    </g>
    <g id="xtick_3">
     <g id="line2d_5">
      <path d="M 137.286511 188.828705 
L 137.286511 31.2 
" clip-path="url(#p8d581e0519)" style="fill: none; stroke: #b0b0b0; stroke-opacity: 0.3; stroke-width: 0.8; stroke-linecap: square"/>
     </g>
     <g id="line2d_6">
      <g>
       <use xlink:href="#m51c6a95a81" x="137.286511" y="188.828705" style="stroke: #000000; stroke-width: 0.8"/>
      </g>
     </g>
     <g id="text_3">
      <!-- 2021-01 -->
      <g transform="translate(121.900973 237.730085) rotate(-45) scale(0.12 -0.12)">
       <use xlink:href="#DejaVuSans-32"/>
       <use xlink:href="#DejaVuSans-30" x="63.623047"/>
       <use xlink:href="#DejaVuSans-32" x="127.246094"/>
       <use xlink:href="#DejaVuSans-31" x="190.869141"/>
       <use xlink:href="#DejaVuSans-2d" x="254.492188"/>
       <use xlink:href="#DejaVuSans-30" x="290.576172"/>
       <use xlink:href="#DejaVuSans-31" x="354.199219"/>
      </g>
     </g>
    </g>
    <g id="xtick_4">
     <g id="line2d_7">
      <path d="M 173.901379 188.828705 
L 173.901379 31.2 
" clip-path="url(#p8d581e0519)" style="fill: none; stroke: #b0b0b0; stroke-opacity: 0.3; stroke-width: 0.8; stroke-linecap: square"/>
     </g>
     <g id="line2d_8">
      <g>
       <use xlink:href="#m51c6a95a81" x="173.901379" y="188.828705" style="stroke: #000000; stroke-width: 0.8"/>
      </g>
     </g>
     <g id="text_4">
      <!-- 2021-07 -->
      <g transform="translate(158.51584 237.730085) rotate(-45) scale(0.12 -0.12)">
       <use xlink:href="#DejaVuSans-32"/>
       <use xlink:href="#DejaVuSans-30" x="63.623047"/>
       <use xlink:href="#DejaVuSans-32" x="127.246094"/>
       <use xlink:href="#DejaVuSans-31" x="190.869141"/>
       <use xlink:href="#DejaVuSans-2d" x="254.492188"/>
       <use xlink:href="#DejaVuSans-30" x="290.576172"/>
       <use xlink:href="#DejaVuSans-37" x="354.199219"/>
      </g>
     </g>
    </g>
    <g id="xtick_5">
     <g id="line2d_9">
      <path d="M 211.123123 188.828705 
L 211.123123 31.2 
" clip-path="url(#p8d581e0519)" style="fill: none; stroke: #b0b0b0; stroke-opacity: 0.3; stroke-width: 0.8; stroke-linecap: square"/>
     </g>
     <g id="line2d_10">
      <g>
       <use xlink:href="#m51c6a95a81" x="211.123123" y="188.828705" style="stroke: #000000; stroke-width: 0.8"/>
      </g>
     </g>
     <g id="text_5">
      <!-- 2022-01 -->
      <g transform="translate(195.737584 237.730085) rotate(-45) scale(0.12 -0.12)">
       <use xlink:href="#DejaVuSans-32"/>
       <use xlink:href="#DejaVuSans-30" x="63.623047"/>
       <use xlink:href="#DejaVuSans-32" x="127.246094"/>
       <use xlink:href="#DejaVuSans-32" x="190.869141"/>
       <use xlink:href="#DejaVuSans-2d" x="254.492188"/>
       <use xlink:href="#DejaVuSans-30" x="290.576172"/>
       <use xlink:href="#DejaVuSans-31" x="354.199219"/>
      </g>
     </g>
    </g>
    <g id="xtick_6">
     <g id="line2d_11">
      <path d="M 247.737991 188.828705 
L 247.737991 31.2 
" clip-path="url(#p8d581e0519)" style="fill: none; stroke: #b0b0b0; stroke-opacity: 0.3; stroke-width: 0.8; stroke-linecap: square"/>
     </g>
     <g id="line2d_12">
      <g>
       <use xlink:href="#m51c6a95a81" x="247.737991" y="188.828705" style="stroke: #000000; stroke-width: 0.8"/>
      </g>
     </g>
     <g id="text_6">
      <!-- 2022-07 -->
      <g transform="translate(232.352452 237.730085) rotate(-45) scale(0.12 -0.12)">
       <use xlink:href="#DejaVuSans-32"/>
       <use xlink:href="#DejaVuSans-30" x="63.623047"/>
       <use xlink:href="#DejaVuSans-32" x="127.246094"/>
       <use xlink:href="#DejaVuSans-32" x="190.869141"/>
       <use xlink:href="#DejaVuSans-2d" x="254.492188"/>
       <use xlink:href="#DejaVuSans-30" x="290.576172"/>
       <use xlink:href="#DejaVuSans-37" x="354.199219"/>
      </g>
     </g>
    </g>
    <g id="xtick_7">
     <g id="line2d_13">
      <path d="M 284.959735 188.828705 
L 284.959735 31.2 
" clip-path="url(#p8d581e0519)" style="fill: none; stroke: #b0b0b0; stroke-opacity: 0.3; stroke-width: 0.8; stroke-linecap: square"/>
     </g>
     <g id="line2d_14">
      <g>
       <use xlink:href="#m51c6a95a81" x="284.959735" y="188.828705" style="stroke: #000000; stroke-width: 0.8"/>
      </g>
     </g>
     <g id="text_7">
      <!-- 2023-01 -->
      <g transform="translate(269.574196 237.730085) rotate(-45) scale(0.12 -0.12)">
       <defs>
        <path id="DejaVuSans-33" d="M 2597 2516 
Q 3050 2419 3304 2112 
Q 3559 1806 3559 1356 
Q 3559 666 3084 287 
Q 2609 -91 1734 -91 
Q 1441 -91 1130 -33 
Q 819 25 488 141 
L 488 750 
Q 750 597 1062 519 
Q 1375 441 1716 441 
Q 2309 441 2620 675 
Q 2931 909 2931 1356 
Q 2931 1769 2642 2001 
Q 2353 2234 1838 2234 
L 1294 2234 
L 1294 2753 
L 1863 2753 
Q 2328 2753 2575 2939 
Q 2822 3125 2822 3475 
Q 2822 3834 2567 4026 
Q 2313 4219 1838 4219 
Q 1578 4219 1281 4162 
Q 984 4106 628 3988 
L 628 4550 
Q 988 4650 1302 4700 
Q 1616 4750 1894 4750 
Q 2613 4750 3031 4423 
Q 3450 4097 3450 3541 
Q 3450 3153 3228 2886 
Q 3006 2619 2597 2516 
z
" transform="scale(0.015625)"/>
       </defs>
       <use xlink:href="#DejaVuSans-32"/>
       <use xlink:href="#DejaVuSans-30" x="63.623047"/>
       <use xlink:href="#DejaVuSans-32" x="127.246094"/>
       <use xlink:href="#DejaVuSans-33" x="190.869141"/>
       <use xlink:href="#DejaVuSans-2d" x="254.492188"/>
       <use xlink:href="#DejaVuSans-30" x="290.576172"/>
       <use xlink:href="#DejaVuSans-31" x="354.199219"/>
      </g>
     </g>
    </g>
    <g id="xtick_8">
     <g id="line2d_15">
      <path d="M 321.574603 188.828705 
L 321.574603 31.2 
" clip-path="url(#p8d581e0519)" style="fill: none; stroke: #b0b0b0; stroke-opacity: 0.3; stroke-width: 0.8; stroke-linecap: square"/>
     </g>
     <g id="line2d_16">
      <g>
       <use xlink:href="#m51c6a95a81" x="321.574603" y="188.828705" style="stroke: #000000; stroke-width: 0.8"/>
      </g>
     </g>
     <g id="text_8">
      <!-- 2023-07 -->
      <g transform="translate(306.189064 237.730085) rotate(-45) scale(0.12 -0.12)">
       <use xlink:href="#DejaVuSans-32"/>
       <use xlink:href="#DejaVuSans-30" x="63.623047"/>
       <use xlink:href="#DejaVuSans-32" x="127.246094"/>
       <use xlink:href="#DejaVuSans-33" x="190.869141"/>
       <use xlink:href="#DejaVuSans-2d" x="254.492188"/>
       <use xlink:href="#DejaVuSans-30" x="290.576172"/>
       <use xlink:href="#DejaVuSans-37" x="354.199219"/>
      </g>
     </g>
    </g>
    <g id="xtick_9">
     <g id="line2d_17">
      <path d="M 358.796347 188.828705 
L 358.796347 31.2 
" clip-path="url(#p8d581e0519)" style="fill: none; stroke: #b0b0b0; stroke-opacity: 0.3; stroke-width: 0.8; stroke-linecap: square"/>
     </g>
     <g id="line2d_18">
      <g>
       <use xlink:href="#m51c6a95a81" x="358.796347" y="188.828705" style="stroke: #000000; stroke-width: 0.8"/>
      </g>
     </g>
     <g id="text_9">
      <!-- 2024-01 -->
      <g transform="translate(343.410808 237.730085) rotate(-45) scale(0.12 -0.12)">
       <defs>
        <path id="DejaVuSans-34" d="M 2419 4116 
L 825 1625 
L 2419 1625 
L 2419 4116 
z
M 2253 4666 
L 3047 4666 
L 3047 1625 
L 3713 1625 
L 3713 1100 
L 3047 1100 
L 3047 0 
L 2419 0 
L 2419 1100 
L 313 1100 
L 313 1709 
L 2253 4666 
z
" transform="scale(0.015625)"/>
       </defs>
       <use xlink:href="#DejaVuSans-32"/>
       <use xlink:href="#DejaVuSans-30" x="63.623047"/>
       <use xlink:href="#DejaVuSans-32" x="127.246094"/>
       <use xlink:href="#DejaVuSans-34" x="190.869141"/>
       <use xlink:href="#DejaVuSans-2d" x="254.492188"/>
       <use xlink:href="#DejaVuSans-30" x="290.576172"/>
       <use xlink:href="#DejaVuSans-31" x="354.199219"/>
      </g>
     </g>
    </g>
    <g id="xtick_10">
     <g id="line2d_19">
      <path d="M 395.613507 188.828705 
L 395.613507 31.2 
" clip-path="url(#p8d581e0519)" style="fill: none; stroke: #b0b0b0; stroke-opacity: 0.3; stroke-width: 0.8; stroke-linecap: square"/>
     </g>
     <g id="line2d_20">
      <g>
       <use xlink:href="#m51c6a95a81" x="395.613507" y="188.828705" style="stroke: #000000; stroke-width: 0.8"/>
      </g>
     </g>
     <g id="text_10">
      <!-- 2024-07 -->
      <g transform="translate(380.227968 237.730085) rotate(-45) scale(0.12 -0.12)">
       <use xlink:href="#DejaVuSans-32"/>
       <use xlink:href="#DejaVuSans-30" x="63.623047"/>
       <use xlink:href="#DejaVuSans-32" x="127.246094"/>
       <use xlink:href="#DejaVuSans-34" x="190.869141"/>
       <use xlink:href="#DejaVuSans-2d" x="254.492188"/>
       <use xlink:href="#DejaVuSans-30" x="290.576172"/>
       <use xlink:href="#DejaVuSans-37" x="354.199219"/>
      </g>
     </g>
    </g>
   </g>
   <g id="matplotlib.axis_2">
    <g id="ytick_1">
     <g id="line2d_21">
      <path d="M 46.69 186.121168 
L 415.407787 186.121168 
" clip-path="url(#p8d581e0519)" style="fill: none; stroke: #b0b0b0; stroke-opacity: 0.3; stroke-width: 0.8; stroke-linecap: square"/>
     </g>
     <g id="line2d_22">
      <defs>
       <path id="m6f4588c3b7" d="M 0 0 
L -3.5 0 
" style="stroke: #000000; stroke-width: 0.8"/>
      </defs>
      <g>
       <use xlink:href="#m6f4588c3b7" x="46.69" y="186.121168" style="stroke: #000000; stroke-width: 0.8"/>
      </g>
     </g>
     <g id="text_11">
      <!-- 0.00 -->
      <g transform="translate(12.97125 190.680231) scale(0.12 -0.12)">
       <defs>
        <path id="DejaVuSans-2e" d="M 684 794 
L 1344 794 
L 1344 0 
L 684 0 
L 684 794 
z
" transform="scale(0.015625)"/>
       </defs>
       <use xlink:href="#DejaVuSans-30"/>
       <use xlink:href="#DejaVuSans-2e" x="63.623047"/>
       <use xlink:href="#DejaVuSans-30" x="95.410156"/>
       <use xlink:href="#DejaVuSans-30" x="159.033203"/>
      </g>
     </g>
    </g>
    <g id="ytick_2">
     <g id="line2d_23">
      <path d="M 46.69 155.004753 
L 415.407787 155.004753 
" clip-path="url(#p8d581e0519)" style="fill: none; stroke: #b0b0b0; stroke-opacity: 0.3; stroke-width: 0.8; stroke-linecap: square"/>
     </g>
     <g id="line2d_24">
      <g>
       <use xlink:href="#m6f4588c3b7" x="46.69" y="155.004753" style="stroke: #000000; stroke-width: 0.8"/>
      </g>
     </g>
     <g id="text_12">
      <!-- 0.02 -->
      <g transform="translate(12.97125 159.563816) scale(0.12 -0.12)">
       <use xlink:href="#DejaVuSans-30"/>
       <use xlink:href="#DejaVuSans-2e" x="63.623047"/>
       <use xlink:href="#DejaVuSans-30" x="95.410156"/>
       <use xlink:href="#DejaVuSans-32" x="159.033203"/>
      </g>
     </g>
    </g>
    <g id="ytick_3">
     <g id="line2d_25">
      <path d="M 46.69 123.888339 
L 415.407787 123.888339 
" clip-path="url(#p8d581e0519)" style="fill: none; stroke: #b0b0b0; stroke-opacity: 0.3; stroke-width: 0.8; stroke-linecap: square"/>
     </g>
     <g id="line2d_26">
      <g>
       <use xlink:href="#m6f4588c3b7" x="46.69" y="123.888339" style="stroke: #000000; stroke-width: 0.8"/>
      </g>
     </g>
     <g id="text_13">
      <!-- 0.04 -->
      <g transform="translate(12.97125 128.447401) scale(0.12 -0.12)">
       <use xlink:href="#DejaVuSans-30"/>
       <use xlink:href="#DejaVuSans-2e" x="63.623047"/>
       <use xlink:href="#DejaVuSans-30" x="95.410156"/>
       <use xlink:href="#DejaVuSans-34" x="159.033203"/>
      </g>
     </g>
    </g>
    <g id="ytick_4">
     <g id="line2d_27">
      <path d="M 46.69 92.771924 
L 415.407787 92.771924 
" clip-path="url(#p8d581e0519)" style="fill: none; stroke: #b0b0b0; stroke-opacity: 0.3; stroke-width: 0.8; stroke-linecap: square"/>
     </g>
     <g id="line2d_28">
      <g>
       <use xlink:href="#m6f4588c3b7" x="46.69" y="92.771924" style="stroke: #000000; stroke-width: 0.8"/>
      </g>
     </g>
     <g id="text_14">
      <!-- 0.06 -->
      <g transform="translate(12.97125 97.330987) scale(0.12 -0.12)">
       <defs>
        <path id="DejaVuSans-36" d="M 2113 2584 
Q 1688 2584 1439 2293 
Q 1191 2003 1191 1497 
Q 1191 994 1439 701 
Q 1688 409 2113 409 
Q 2538 409 2786 701 
Q 3034 994 3034 1497 
Q 3034 2003 2786 2293 
Q 2538 2584 2113 2584 
z
M 3366 4563 
L 3366 3988 
Q 3128 4100 2886 4159 
Q 2644 4219 2406 4219 
Q 1781 4219 1451 3797 
Q 1122 3375 1075 2522 
Q 1259 2794 1537 2939 
Q 1816 3084 2150 3084 
Q 2853 3084 3261 2657 
Q 3669 2231 3669 1497 
Q 3669 778 3244 343 
Q 2819 -91 2113 -91 
Q 1303 -91 875 529 
Q 447 1150 447 2328 
Q 447 3434 972 4092 
Q 1497 4750 2381 4750 
Q 2619 4750 2861 4703 
Q 3103 4656 3366 4563 
z
" transform="scale(0.015625)"/>
       </defs>
       <use xlink:href="#DejaVuSans-30"/>
       <use xlink:href="#DejaVuSans-2e" x="63.623047"/>
       <use xlink:href="#DejaVuSans-30" x="95.410156"/>
       <use xlink:href="#DejaVuSans-36" x="159.033203"/>
      </g>
     </g>
    </g>
    <g id="ytick_5">
     <g id="line2d_29">
      <path d="M 46.69 61.655509 
L 415.407787 61.655509 
" clip-path="url(#p8d581e0519)" style="fill: none; stroke: #b0b0b0; stroke-opacity: 0.3; stroke-width: 0.8; stroke-linecap: square"/>
     </g>
     <g id="line2d_30">
      <g>
       <use xlink:href="#m6f4588c3b7" x="46.69" y="61.655509" style="stroke: #000000; stroke-width: 0.8"/>
      </g>
     </g>
     <g id="text_15">
      <!-- 0.08 -->
      <g transform="translate(12.97125 66.214572) scale(0.12 -0.12)">
       <defs>
        <path id="DejaVuSans-38" d="M 2034 2216 
Q 1584 2216 1326 1975 
Q 1069 1734 1069 1313 
Q 1069 891 1326 650 
Q 1584 409 2034 409 
Q 2484 409 2743 651 
Q 3003 894 3003 1313 
Q 3003 1734 2745 1975 
Q 2488 2216 2034 2216 
z
M 1403 2484 
Q 997 2584 770 2862 
Q 544 3141 544 3541 
Q 544 4100 942 4425 
Q 1341 4750 2034 4750 
Q 2731 4750 3128 4425 
Q 3525 4100 3525 3541 
Q 3525 3141 3298 2862 
Q 3072 2584 2669 2484 
Q 3125 2378 3379 2068 
Q 3634 1759 3634 1313 
Q 3634 634 3220 271 
Q 2806 -91 2034 -91 
Q 1263 -91 848 271 
Q 434 634 434 1313 
Q 434 1759 690 2068 
Q 947 2378 1403 2484 
z
M 1172 3481 
Q 1172 3119 1398 2916 
Q 1625 2713 2034 2713 
Q 2441 2713 2670 2916 
Q 2900 3119 2900 3481 
Q 2900 3844 2670 4047 
Q 2441 4250 2034 4250 
Q 1625 4250 1398 4047 
Q 1172 3844 1172 3481 
z
" transform="scale(0.015625)"/>
       </defs>
       <use xlink:href="#DejaVuSans-30"/>
       <use xlink:href="#DejaVuSans-2e" x="63.623047"/>
       <use xlink:href="#DejaVuSans-30" x="95.410156"/>
       <use xlink:href="#DejaVuSans-38" x="159.033203"/>
      </g>
     </g>
    </g>
   </g>
   <g id="line2d_31">
    <path d="M 63.449899 39.112023 
L 63.652192 39.476262 
L 64.663652 39.130713 
L 65.068236 39.181971 
L 65.877404 38.847679 
L 66.079697 38.73497 
L 66.281989 38.945057 
L 66.484281 38.797744 
L 67.293449 38.96211 
L 67.698033 38.725703 
L 67.900325 38.872219 
L 68.507202 40.107654 
L 68.709494 40.059313 
L 69.114078 39.541376 
L 69.31637 41.615219 
L 69.923246 41.238862 
L 70.32783 42.679568 
L 70.530122 41.872101 
L 70.732415 41.873653 
L 71.339291 41.339451 
L 71.541583 40.771292 
L 71.946167 40.404566 
L 72.148459 40.020309 
L 72.957628 39.924429 
L 73.362212 39.529163 
L 73.564504 39.62819 
L 74.373672 48.300699 
L 74.575964 46.517367 
L 74.778256 52.26254 
L 74.980548 49.90446 
L 75.587425 64.655763 
L 75.789717 62.932686 
L 75.992009 70.570449 
L 76.194301 69.873381 
L 76.396593 64.696279 
L 77.408053 89.848195 
L 77.812638 126.605261 
L 78.419514 141.76605 
L 78.824098 129.832495 
L 79.228682 110.582308 
L 79.835558 100.904022 
L 80.037851 131.285212 
L 80.240143 121.741646 
L 80.442435 123.433859 
L 80.644727 114.869927 
L 81.251603 108.600231 
L 81.453895 98.818723 
L 81.858479 89.523605 
L 82.060771 81.900644 
L 82.667648 99.645432 
L 82.86994 90.376246 
L 83.072232 87.385557 
L 83.274524 80.26649 
L 84.083692 74.358709 
L 84.892861 62.443006 
L 85.499737 61.611999 
L 85.702029 60.963391 
L 85.904321 59.306443 
L 86.308905 53.265489 
L 86.915782 51.621901 
L 87.118074 49.323168 
L 87.320366 49.408381 
L 87.522658 48.599716 
L 87.72495 50.596981 
L 88.331826 48.419602 
L 88.73641 45.708209 
L 88.938702 44.810535 
L 89.140994 45.40396 
L 89.747871 44.335396 
L 90.152455 46.415958 
L 90.354747 46.685325 
L 90.557039 45.219599 
L 91.163915 51.443733 
L 91.366207 50.888104 
L 91.770792 47.821497 
L 91.973084 46.138233 
L 92.984544 46.948907 
L 93.389128 44.73352 
L 93.996005 43.556889 
L 94.198297 42.821764 
L 94.400589 43.324387 
L 94.602881 42.548348 
L 94.805173 45.280575 
L 95.412049 44.451552 
L 95.614341 45.272497 
L 95.816633 45.514331 
L 96.018925 68.977099 
L 96.221218 65.512302 
L 97.030386 58.798111 
L 97.637262 50.683911 
L 98.244138 48.599796 
L 98.446431 46.815992 
L 98.648723 49.495397 
L 98.851015 48.27833 
L 99.053307 50.606335 
L 99.660183 51.575595 
L 100.267059 46.006433 
L 101.27852 46.220374 
L 101.480812 44.975901 
L 101.885396 44.798297 
L 102.492272 43.613709 
L 102.694564 44.734936 
L 103.099149 43.097381 
L 103.301441 42.341596 
L 103.908317 41.604947 
L 104.312901 40.606 
L 104.515193 41.48302 
L 104.717485 41.228996 
L 105.728946 40.399068 
L 105.931238 40.433313 
L 106.13353 40.127529 
L 106.740406 40.167831 
L 106.942698 39.93794 
L 107.14499 40.421646 
L 107.549574 39.752439 
L 108.358743 39.971913 
L 108.763327 39.836558 
L 108.965619 39.548756 
L 109.774787 39.36941 
L 110.381664 39.052246 
L 110.98854 39.586562 
L 111.393124 39.226503 
L 111.797708 38.942819 
L 112.404585 39.439914 
L 112.606877 39.358428 
L 112.809169 40.059173 
L 113.011461 44.895585 
L 113.213753 43.920798 
L 114.225213 45.843777 
L 114.427505 45.546817 
L 114.629797 44.421003 
L 115.236674 44.125129 
L 115.641258 42.178393 
L 115.84355 41.586433 
L 116.045842 41.363612 
L 116.652718 42.394999 
L 116.85501 41.936928 
L 117.057303 42.843214 
L 117.259595 42.147659 
L 117.461887 42.804555 
L 118.068763 43.378355 
L 118.271055 42.563767 
L 118.473347 42.560093 
L 118.877931 41.281892 
L 119.484808 42.140787 
L 119.6871 42.626493 
L 119.889392 43.627529 
L 120.293976 41.913035 
L 121.305436 41.02852 
L 121.710021 40.13421 
L 122.316897 41.126058 
L 122.721481 40.2915 
L 123.126065 39.714886 
L 123.732941 42.30752 
L 123.935233 41.769583 
L 124.137526 46.387664 
L 124.54211 44.184186 
L 125.148986 45.228489 
L 125.351278 46.690211 
L 125.55357 46.147487 
L 125.755862 46.502346 
L 125.958154 45.137387 
L 126.565031 47.702419 
L 126.969615 44.863878 
L 127.171907 44.848595 
L 127.374199 44.247875 
L 127.981075 43.899797 
L 128.183367 43.45744 
L 128.385659 43.777664 
L 128.587951 42.775201 
L 128.790244 42.465514 
L 129.39712 42.166649 
L 129.599412 42.305997 
L 130.206288 41.340325 
L 130.813164 41.489558 
L 131.420041 40.061514 
L 131.622333 39.915852 
L 132.229209 39.898591 
L 132.431501 39.590328 
L 132.836085 39.325528 
L 133.038377 39.109141 
L 133.645254 39.222555 
L 133.847546 39.639067 
L 134.25213 39.253013 
L 135.465882 39.053546 
L 135.668175 38.89974 
L 136.679635 38.868311 
L 136.881927 38.743798 
L 137.084219 38.780782 
L 137.893388 39.731409 
L 138.09568 39.584627 
L 138.297972 40.294299 
L 138.702556 39.683328 
L 139.309432 39.554694 
L 139.714016 39.11148 
L 139.916308 39.017805 
L 140.1186 39.125618 
L 140.927769 38.994215 
L 141.130061 39.122825 
L 141.332353 38.96575 
L 141.534645 39.093213 
L 142.343813 38.802093 
L 142.546106 41.004129 
L 142.748398 41.165901 
L 142.95069 42.683368 
L 143.557566 42.376897 
L 143.759858 43.1296 
L 143.96215 42.23903 
L 144.164442 42.07616 
L 144.366734 41.382108 
L 144.973611 40.996939 
L 145.580487 39.749796 
L 145.782779 39.45946 
L 146.591947 39.219523 
L 146.794239 39.029923 
L 146.996531 39.02818 
L 147.198824 38.872083 
L 148.007992 38.627893 
L 148.210284 39.360332 
L 148.412576 41.1843 
L 148.614868 41.863634 
L 149.221744 43.390715 
L 149.626329 41.891431 
L 149.828621 41.849632 
L 150.030913 43.177516 
L 150.637789 42.696333 
L 150.840081 41.879623 
L 151.042373 42.102924 
L 151.446957 41.036326 
L 152.256126 40.400844 
L 152.458418 40.031004 
L 152.66071 40.018402 
L 152.863002 40.17071 
L 153.469878 39.814409 
L 153.67217 40.171088 
L 154.076754 39.663325 
L 154.279047 40.244489 
L 155.492799 39.353505 
L 156.301967 39.606654 
L 156.50426 39.505858 
L 156.908844 39.064933 
L 157.111136 39.146289 
L 157.920304 38.986519 
L 158.122596 38.830873 
L 158.324888 38.981805 
L 158.52718 38.855929 
L 159.134057 38.936239 
L 159.740933 39.879549 
L 159.943225 39.742795 
L 160.550101 39.507619 
L 160.752393 39.263626 
L 161.35927 39.293871 
L 161.966146 39.310149 
L 162.37073 38.938465 
L 162.573022 39.137499 
L 163.38219 38.961179 
L 163.584483 40.122949 
L 163.786775 41.970679 
L 163.989067 42.332507 
L 164.191359 42.161625 
L 165.000527 41.256649 
L 165.607403 40.156961 
L 166.21428 39.923894 
L 167.023448 39.027528 
L 168.034908 38.731251 
L 168.439493 38.64459 
L 169.450953 38.643106 
L 169.855537 38.473087 
L 170.664706 38.428853 
L 170.866998 38.669373 
L 171.06929 38.713222 
L 171.271582 39.688496 
L 171.878458 41.609406 
L 172.283042 40.518263 
L 172.485334 40.649424 
L 172.687627 40.436577 
L 173.294503 40.161645 
L 173.496795 39.794387 
L 173.901379 39.439211 
L 174.103671 39.258844 
L 174.912839 39.349148 
L 175.115132 39.155476 
L 175.317424 39.3488 
L 175.519716 40.004563 
L 176.328884 39.523953 
L 176.531176 181.663763 
L 176.93576 151.680503 
L 177.542637 138.456278 
L 178.351805 93.764581 
L 178.958681 85.220095 
L 179.565557 66.03664 
L 179.76785 61.454637 
L 180.374726 57.526926 
L 180.981602 50.022621 
L 181.183894 48.005469 
L 181.79077 46.332147 
L 182.397647 42.880518 
L 182.599939 42.032231 
L 183.409107 41.21816 
L 183.611399 41.328183 
L 183.813691 40.761204 
L 184.015983 40.561195 
L 184.62286 40.325666 
L 185.027444 39.605626 
L 186.241196 39.101687 
L 186.645781 38.859963 
L 186.848073 38.763067 
L 187.657241 38.976671 
L 188.061825 38.778558 
L 189.275578 39.478145 
L 189.680162 39.123423 
L 190.287038 40.399341 
L 190.48933 39.997609 
L 190.691622 40.497641 
L 190.893914 41.453105 
L 191.096206 40.859209 
L 191.703083 40.386093 
L 191.905375 41.438546 
L 192.107667 40.921666 
L 192.512251 42.40631 
L 193.321419 41.933235 
L 193.523711 41.315108 
L 193.726004 41.270948 
L 193.928296 40.710381 
L 194.535172 40.568594 
L 194.939756 39.815536 
L 195.142048 40.849533 
L 195.34434 40.869075 
L 195.951217 40.424507 
L 196.760385 39.250359 
L 197.569553 38.894207 
L 197.771845 39.219797 
L 197.974137 39.197084 
L 198.176429 39.007802 
L 200.19935 38.50665 
L 200.401642 38.58596 
L 200.603935 38.870029 
L 201.008519 38.859437 
L 201.817687 38.626988 
L 202.019979 38.771491 
L 202.222271 38.672492 
L 202.424563 38.872868 
L 203.03144 38.745068 
L 203.233732 38.828687 
L 203.436024 38.701506 
L 203.840608 41.941021 
L 204.447484 41.696782 
L 204.649776 42.569448 
L 204.852068 42.325591 
L 205.05436 44.127525 
L 205.256653 43.057361 
L 205.863529 44.391036 
L 206.065821 44.29939 
L 206.470405 42.298457 
L 206.672697 41.681534 
L 207.279573 41.611343 
L 207.481866 41.051123 
L 207.684158 41.112615 
L 207.88645 40.59702 
L 208.088742 41.469822 
L 208.695618 41.598288 
L 208.89791 42.592724 
L 209.302494 41.4818 
L 210.111663 41.267736 
L 210.516247 40.241514 
L 210.920831 39.695311 
L 211.527707 39.569093 
L 211.729999 39.393496 
L 211.932291 40.04681 
L 212.336876 39.559695 
L 213.146044 39.332558 
L 213.348336 39.116201 
L 213.75292 39.082214 
L 214.562089 40.039092 
L 214.966673 39.880312 
L 215.168965 40.066494 
L 215.775841 39.977848 
L 216.382717 39.206647 
L 216.585009 41.03816 
L 217.191886 41.39536 
L 217.59647 40.757048 
L 217.798762 41.587553 
L 218.001054 40.966337 
L 218.60793 40.455676 
L 218.810222 40.656367 
L 219.012514 40.525699 
L 219.417099 41.941219 
L 220.023975 41.325054 
L 220.226267 41.763079 
L 220.428559 41.117268 
L 220.630851 42.149874 
L 220.833143 41.543602 
L 221.844604 41.557025 
L 222.046896 41.22376 
L 222.249188 45.008149 
L 222.856064 43.851596 
L 223.058356 44.1618 
L 223.260648 45.340533 
L 223.665232 43.095698 
L 224.272109 44.714488 
L 224.474401 43.560781 
L 224.676693 45.518724 
L 225.081277 43.266561 
L 225.688153 42.37609 
L 225.890445 43.748354 
L 226.092738 44.020617 
L 226.29503 43.603756 
L 226.497322 42.796985 
L 227.104198 42.34199 
L 227.30649 41.740043 
L 227.508782 42.322351 
L 227.711074 42.007229 
L 227.913366 41.344646 
L 228.924827 40.26382 
L 229.127119 41.591042 
L 229.329411 41.02525 
L 229.936287 40.522947 
L 230.138579 40.545294 
L 230.745456 39.636636 
L 231.352332 40.182854 
L 231.554624 39.831584 
L 231.756916 40.148596 
L 231.959208 39.848352 
L 232.768376 39.542952 
L 232.970668 40.433993 
L 233.172961 40.207268 
L 233.375253 40.617171 
L 233.577545 44.460724 
L 234.184421 43.757954 
L 234.386713 45.367806 
L 234.589005 44.214631 
L 234.791297 45.442406 
L 234.993589 47.787906 
L 235.600466 46.252915 
L 235.802758 44.927873 
L 236.207342 51.531366 
L 236.409634 49.190331 
L 237.01651 48.776911 
L 237.421094 45.560034 
L 237.623386 44.24561 
L 237.825679 45.008342 
L 238.432555 43.843171 
L 238.634847 44.086477 
L 238.837139 49.133824 
L 239.241723 45.750833 
L 239.848599 47.222858 
L 240.253184 44.61051 
L 240.657768 45.164078 
L 241.466936 44.332037 
L 241.669228 43.469069 
L 242.073812 43.19487 
L 243.085273 41.636425 
L 243.287565 43.086396 
L 243.489857 45.675974 
L 244.096733 47.335816 
L 244.299025 45.710341 
L 244.501317 45.6237 
L 244.70361 46.313385 
L 244.905902 44.978862 
L 245.71507 47.483137 
L 246.119654 44.930369 
L 246.321946 47.989146 
L 246.928823 46.276375 
L 247.131115 46.103288 
L 247.535699 43.858209 
L 247.737991 43.584623 
L 248.547159 42.680494 
L 248.749451 41.913871 
L 248.951743 41.950825 
L 249.154035 41.286197 
L 249.760912 40.883956 
L 250.367788 39.990579 
L 250.57008 42.442129 
L 251.176956 41.957363 
L 251.379248 44.357869 
L 251.783833 42.381437 
L 251.986125 41.846718 
L 252.795293 41.056351 
L 252.997585 41.38529 
L 253.402169 40.848349 
L 254.009046 40.488636 
L 254.211338 41.301765 
L 254.41363 41.389645 
L 254.818214 40.442832 
L 255.627382 39.769035 
L 255.829674 40.598608 
L 256.031966 40.180503 
L 256.234259 40.323198 
L 256.841135 39.929451 
L 257.043427 39.658141 
L 257.245719 39.829583 
L 257.448011 39.56208 
L 257.650303 40.02053 
L 258.257179 41.998376 
L 258.661764 40.85238 
L 258.864056 40.889136 
L 259.066348 45.34375 
L 259.673224 44.128025 
L 260.2801 42.126565 
L 260.482392 41.730097 
L 261.291561 41.102914 
L 261.493853 42.217416 
L 261.696145 41.838784 
L 261.898437 42.087213 
L 262.505313 41.653647 
L 262.707605 49.085053 
L 263.314482 44.341783 
L 263.921358 43.694401 
L 264.12365 43.027197 
L 264.325942 43.185879 
L 264.528234 42.283066 
L 264.730526 42.29411 
L 265.337402 41.728564 
L 265.539695 41.093351 
L 265.741987 43.675861 
L 266.146571 43.309357 
L 266.753447 47.68627 
L 266.955739 50.712784 
L 267.360323 47.322719 
L 267.562615 47.683871 
L 268.169492 45.995573 
L 268.574076 43.536836 
L 268.776368 47.399017 
L 268.97866 46.715911 
L 269.585536 47.134142 
L 270.192413 43.710918 
L 270.394705 45.621612 
L 271.001581 44.844312 
L 271.608457 42.114678 
L 271.810749 43.799293 
L 272.417625 43.330845 
L 272.619918 42.718671 
L 272.82221 43.996805 
L 273.226794 42.883629 
L 273.83367 42.551061 
L 274.035962 41.955907 
L 274.238254 44.274587 
L 274.440546 49.188645 
L 274.642838 47.343546 
L 275.249715 46.363252 
L 275.654299 43.847646 
L 276.058883 42.084002 
L 276.868051 41.303078 
L 277.070343 40.735924 
L 277.474928 40.269771 
L 278.081804 41.619899 
L 278.284096 41.011551 
L 278.486388 42.572039 
L 278.68868 42.227366 
L 278.890972 41.508735 
L 279.497849 42.35265 
L 279.700141 42.278171 
L 280.104725 41.075835 
L 280.307017 41.02824 
L 280.913893 41.870767 
L 281.318477 40.820844 
L 281.520769 43.167198 
L 281.723061 42.532788 
L 282.329938 41.789096 
L 282.53223 41.266824 
L 282.734522 42.363471 
L 282.936814 42.160037 
L 283.139106 41.653863 
L 283.948274 41.034188 
L 284.150567 41.108884 
L 284.352859 41.308975 
L 284.555151 40.757236 
L 285.364319 40.283417 
L 285.566611 39.99874 
L 285.768903 40.212706 
L 285.971195 42.422009 
L 286.578072 41.756072 
L 286.982656 40.91762 
L 287.38724 40.100759 
L 288.196408 40.739548 
L 288.3987 42.185354 
L 288.600992 41.70237 
L 288.803285 41.740532 
L 289.410161 41.421892 
L 289.814745 40.374681 
L 290.219329 39.766382 
L 290.826205 39.880501 
L 291.028498 40.164414 
L 291.433082 39.528883 
L 291.635374 39.393887 
L 292.24225 39.177368 
L 292.849126 39.444436 
L 293.051418 39.358296 
L 293.658295 39.770738 
L 293.860587 39.651142 
L 294.062879 39.376698 
L 294.265171 40.09386 
L 294.467463 39.841235 
L 295.276631 41.734325 
L 295.681216 40.707082 
L 296.490384 40.290879 
L 296.894968 39.729262 
L 297.299552 40.753252 
L 297.906428 40.285635 
L 298.108721 41.503043 
L 298.311013 40.897135 
L 298.513305 41.610175 
L 298.715597 41.313174 
L 299.322473 40.742639 
L 299.524765 41.3069 
L 299.727057 40.962704 
L 299.929349 41.547485 
L 300.131641 41.511239 
L 300.738518 41.990957 
L 300.94081 41.916221 
L 301.143102 42.610888 
L 301.547686 41.360594 
L 302.154562 41.01803 
L 302.356854 40.503898 
L 302.559146 40.620046 
L 302.761439 40.237313 
L 302.963731 40.5583 
L 303.772899 40.42428 
L 304.177483 39.692216 
L 304.986652 39.415722 
L 305.391236 39.050715 
L 305.593528 39.372381 
L 305.79582 39.400904 
L 307.818741 38.665475 
L 308.021033 39.244804 
L 308.223325 39.293429 
L 308.425617 40.49587 
L 309.234785 39.984116 
L 309.437077 40.422282 
L 309.841662 40.297936 
L 310.043954 41.578244 
L 310.65083 40.978521 
L 311.055414 40.062041 
L 311.257706 39.936436 
L 311.459998 39.610683 
L 312.066875 39.366321 
L 312.269167 39.631954 
L 312.471459 40.362319 
L 312.876043 39.747433 
L 314.089795 39.248432 
L 314.292088 39.770172 
L 315.50584 39.252828 
L 315.708132 41.514686 
L 316.315008 41.201076 
L 316.719593 40.214334 
L 317.124177 39.598317 
L 317.731053 39.427139 
L 317.933345 39.225385 
L 318.135637 39.438882 
L 318.337929 39.895966 
L 318.540221 39.731946 
L 319.34939 39.860903 
L 319.753974 39.359555 
L 319.956266 39.391841 
L 320.967726 39.040977 
L 321.372311 39.300503 
L 322.383771 39.068214 
L 322.586063 39.621483 
L 322.788355 39.506845 
L 323.395231 39.505151 
L 323.597524 181.628653 
L 324.2044 137.566363 
L 324.811276 124.546675 
L 325.620444 84.169576 
L 326.227321 76.903646 
L 326.834197 61.047572 
L 327.036489 57.206415 
L 327.643365 53.929449 
L 328.047949 49.57624 
L 328.452534 46.04823 
L 329.05941 45.315332 
L 329.666286 42.394657 
L 329.868578 41.668859 
L 330.475455 41.032792 
L 330.677747 41.119022 
L 331.082331 40.527164 
L 331.284623 40.123916 
L 332.296083 39.551703 
L 332.700667 39.950633 
L 333.307544 39.903768 
L 333.509836 40.00058 
L 333.91442 39.536162 
L 334.116712 39.340902 
L 335.128173 39.253443 
L 335.532757 38.948294 
L 336.341925 38.712738 
L 336.544217 38.626875 
L 336.948801 39.310907 
L 337.75797 38.96737 
L 337.960262 38.832401 
L 338.162554 39.255044 
L 338.364846 39.064032 
L 338.971722 38.940849 
L 339.174014 39.32472 
L 339.376306 39.10834 
L 339.578598 39.108777 
L 339.780891 38.976752 
L 340.387767 38.822678 
L 340.590059 39.319019 
L 340.792351 39.359808 
L 340.994643 39.160892 
L 341.196935 39.608462 
L 341.803811 39.608642 
L 342.61298 39.000789 
L 343.219856 39.331924 
L 343.422148 39.114071 
L 343.62444 39.510304 
L 344.029024 39.577324 
L 344.635901 39.400936 
L 344.838193 39.540085 
L 345.040485 39.30259 
L 345.242777 39.288218 
L 345.445069 39.518072 
L 346.051945 41.112892 
L 346.456529 40.533131 
L 346.658821 41.617815 
L 346.861114 41.123399 
L 347.46799 40.589403 
L 347.872574 39.831532 
L 348.074866 39.868211 
L 348.277158 40.159206 
L 348.884034 39.792708 
L 349.086327 40.310312 
L 349.490911 39.71122 
L 349.693203 39.462959 
L 350.502371 39.183581 
L 351.109247 38.874381 
L 351.716124 38.837448 
L 352.120708 38.622371 
L 352.323 39.373101 
L 352.525292 39.2747 
L 353.536752 39.093869 
L 353.941337 38.78584 
L 354.750505 38.609191 
L 354.952797 39.190827 
L 355.357381 38.870598 
L 356.16655 38.745733 
L 356.368842 40.045589 
L 356.571134 39.928401 
L 356.773426 39.658163 
L 357.582594 39.399116 
L 357.987178 38.988394 
L 358.18947 38.882255 
L 358.998639 38.758008 
L 359.200931 39.138015 
L 359.605515 38.80892 
L 360.616976 38.790695 
L 361.02156 38.675574 
L 361.830728 38.835039 
L 362.03302 38.744507 
L 362.235312 38.795295 
L 362.437604 39.220571 
L 363.853649 38.779122 
L 364.662817 38.66685 
L 365.067401 39.344235 
L 365.269694 39.138651 
L 365.87657 39.393545 
L 366.483446 38.877557 
L 366.685738 38.789206 
L 367.292614 38.689092 
L 367.494906 39.783234 
L 367.697199 39.563941 
L 367.899491 39.699984 
L 368.101783 39.548223 
L 368.910951 39.322892 
L 369.113243 39.108941 
L 369.315535 39.598912 
L 369.517827 39.332697 
L 370.326996 39.060191 
L 370.933872 38.659542 
L 371.540748 38.628578 
L 371.74304 39.18921 
L 372.349917 38.803294 
L 372.956793 38.688163 
L 373.159085 38.775741 
L 373.563669 38.657484 
L 373.765961 38.706253 
L 374.372837 38.625287 
L 374.777422 39.233643 
L 374.979714 39.172786 
L 375.182006 39.499454 
L 375.788882 39.403696 
L 375.991174 39.185164 
L 376.193466 39.703608 
L 376.395758 39.419849 
L 377.204927 39.499295 
L 377.407219 39.885531 
L 377.609511 39.572962 
L 377.811803 40.253848 
L 378.014095 40.338578 
L 378.620971 39.94004 
L 378.823263 39.613038 
L 379.025555 39.910936 
L 379.227848 39.599451 
L 379.43014 39.976419 
L 380.239308 39.549218 
L 380.643892 39.129481 
L 380.846184 39.252631 
L 381.655353 39.448927 
L 381.857645 39.218524 
L 382.059937 39.532313 
L 382.262229 39.405996 
L 382.869105 39.269776 
L 383.071397 40.230493 
L 383.273689 39.923695 
L 383.475981 40.082464 
L 383.678273 40.480839 
L 384.28515 40.12503 
L 384.689734 39.522695 
L 384.892026 39.525173 
L 385.094318 39.277156 
L 385.701194 39.169939 
L 385.903486 38.99022 
L 386.105778 39.082199 
L 386.510363 38.830347 
L 387.117239 38.98941 
L 387.319531 38.832943 
L 387.521823 38.94986 
L 387.724115 40.215834 
L 387.926407 39.840565 
L 388.735576 39.671272 
L 388.937868 39.890735 
L 389.14016 39.816277 
L 389.342452 41.12863 
L 389.949328 40.613421 
L 390.758496 39.392582 
L 391.567665 39.042694 
L 392.174541 38.641926 
L 392.781417 38.711078 
L 392.983709 38.617966 
L 393.388294 38.843086 
L 393.590586 38.713748 
L 394.197462 38.794526 
L 394.399754 39.093823 
L 395.00663 38.672613 
L 397.231843 38.364941 
L 397.434135 38.910175 
L 397.636427 38.769909 
L 398.445596 38.72405 
L 398.647888 40.028971 
L 398.647888 40.028971 
" clip-path="url(#p8d581e0519)" style="fill: none; stroke: #000000; stroke-width: 2; stroke-linecap: square"/>
   </g>
   <g id="patch_3">
    <path d="M 46.69 188.828705 
L 46.69 31.2 
" style="fill: none; stroke: #000000; stroke-width: 0.8; stroke-linejoin: miter; stroke-linecap: square"/>
   </g>
   <g id="patch_4">
    <path d="M 46.69 188.828705 
L 415.407787 188.828705 
" style="fill: none; stroke: #000000; stroke-width: 0.8; stroke-linejoin: miter; stroke-linecap: square"/>
   </g>
   <g id="text_16">
    <!-- $k_t$ - EWMA WoLF -->
    <g transform="translate(172.728894 25.2) scale(0.144 -0.144)">
     <defs>
      <path id="DejaVuSans-Oblique-6b" d="M 1172 4863 
L 1747 4863 
L 1197 2028 
L 3169 3500 
L 3916 3500 
L 1716 1825 
L 3322 0 
L 2625 0 
L 1131 1709 
L 800 0 
L 225 0 
L 1172 4863 
z
" transform="scale(0.015625)"/>
      <path id="DejaVuSans-Oblique-74" d="M 2706 3500 
L 2619 3053 
L 1472 3053 
L 1100 1153 
Q 1081 1047 1072 975 
Q 1063 903 1063 863 
Q 1063 663 1183 572 
Q 1303 481 1569 481 
L 2150 481 
L 2053 0 
L 1503 0 
Q 991 0 739 200 
Q 488 400 488 806 
Q 488 878 497 964 
Q 506 1050 525 1153 
L 897 3053 
L 409 3053 
L 500 3500 
L 978 3500 
L 1172 4494 
L 1747 4494 
L 1556 3500 
L 2706 3500 
z
" transform="scale(0.015625)"/>
      <path id="DejaVuSans-20" transform="scale(0.015625)"/>
      <path id="DejaVuSans-45" d="M 628 4666 
L 3578 4666 
L 3578 4134 
L 1259 4134 
L 1259 2753 
L 3481 2753 
L 3481 2222 
L 1259 2222 
L 1259 531 
L 3634 531 
L 3634 0 
L 628 0 
L 628 4666 
z
" transform="scale(0.015625)"/>
      <path id="DejaVuSans-57" d="M 213 4666 
L 850 4666 
L 1831 722 
L 2809 4666 
L 3519 4666 
L 4500 722 
L 5478 4666 
L 6119 4666 
L 4947 0 
L 4153 0 
L 3169 4050 
L 2175 0 
L 1381 0 
L 213 4666 
z
" transform="scale(0.015625)"/>
      <path id="DejaVuSans-4d" d="M 628 4666 
L 1569 4666 
L 2759 1491 
L 3956 4666 
L 4897 4666 
L 4897 0 
L 4281 0 
L 4281 4097 
L 3078 897 
L 2444 897 
L 1241 4097 
L 1241 0 
L 628 0 
L 628 4666 
z
" transform="scale(0.015625)"/>
      <path id="DejaVuSans-41" d="M 2188 4044 
L 1331 1722 
L 3047 1722 
L 2188 4044 
z
M 1831 4666 
L 2547 4666 
L 4325 0 
L 3669 0 
L 3244 1197 
L 1141 1197 
L 716 0 
L 50 0 
L 1831 4666 
z
" transform="scale(0.015625)"/>
      <path id="DejaVuSans-6f" d="M 1959 3097 
Q 1497 3097 1228 2736 
Q 959 2375 959 1747 
Q 959 1119 1226 758 
Q 1494 397 1959 397 
Q 2419 397 2687 759 
Q 2956 1122 2956 1747 
Q 2956 2369 2687 2733 
Q 2419 3097 1959 3097 
z
M 1959 3584 
Q 2709 3584 3137 3096 
Q 3566 2609 3566 1747 
Q 3566 888 3137 398 
Q 2709 -91 1959 -91 
Q 1206 -91 779 398 
Q 353 888 353 1747 
Q 353 2609 779 3096 
Q 1206 3584 1959 3584 
z
" transform="scale(0.015625)"/>
      <path id="DejaVuSans-4c" d="M 628 4666 
L 1259 4666 
L 1259 531 
L 3531 531 
L 3531 0 
L 628 0 
L 628 4666 
z
" transform="scale(0.015625)"/>
      <path id="DejaVuSans-46" d="M 628 4666 
L 3309 4666 
L 3309 4134 
L 1259 4134 
L 1259 2759 
L 3109 2759 
L 3109 2228 
L 1259 2228 
L 1259 0 
L 628 0 
L 628 4666 
z
" transform="scale(0.015625)"/>
     </defs>
     <use xlink:href="#DejaVuSans-Oblique-6b" transform="translate(0 0.015625)"/>
     <use xlink:href="#DejaVuSans-Oblique-74" transform="translate(57.910156 -16.390625) scale(0.7)"/>
     <use xlink:href="#DejaVuSans-20" transform="translate(88.09082 0.015625)"/>
     <use xlink:href="#DejaVuSans-2d" transform="translate(119.87793 0.015625)"/>
     <use xlink:href="#DejaVuSans-20" transform="translate(155.961914 0.015625)"/>
     <use xlink:href="#DejaVuSans-45" transform="translate(187.749023 0.015625)"/>
     <use xlink:href="#DejaVuSans-57" transform="translate(250.932617 0.015625)"/>
     <use xlink:href="#DejaVuSans-4d" transform="translate(349.80957 0.015625)"/>
     <use xlink:href="#DejaVuSans-41" transform="translate(436.088867 0.015625)"/>
     <use xlink:href="#DejaVuSans-20" transform="translate(504.49707 0.015625)"/>
     <use xlink:href="#DejaVuSans-57" transform="translate(536.28418 0.015625)"/>
     <use xlink:href="#DejaVuSans-6f" transform="translate(635.161133 0.015625)"/>
     <use xlink:href="#DejaVuSans-4c" transform="translate(696.342773 0.015625)"/>
     <use xlink:href="#DejaVuSans-46" transform="translate(752.055664 0.015625)"/>
    </g>
   </g>
  </g>
 </g>
 <defs>
  <clipPath id="p8d581e0519">
   <rect x="46.69" y="31.2" width="368.717787" height="157.628705"/>
  </clipPath>
 </defs>
</svg>
